<svg width="150" height="112" viewBox="0 0 150 112" fill="none" xmlns="http://www.w3.org/2000/svg">
<rect width="150" height="112" fill="white"/>
<path d="M14.0613 14.7593H134.711C134.921 14.7593 135.129 14.8011 135.323 14.8823C135.517 14.9635 135.693 15.0825 135.841 15.2326C135.99 15.3826 136.107 15.5607 136.188 15.7568C136.268 15.9528 136.309 16.1629 136.309 16.3751V94.224C136.309 94.6828 136.22 95.137 136.046 95.5608C135.873 95.9846 135.618 96.3696 135.297 96.694C134.977 97.0184 134.596 97.2756 134.176 97.4512C133.757 97.6267 133.308 97.7171 132.854 97.7171H15.6786C14.7622 97.7171 13.8834 97.3491 13.2354 96.694C12.5874 96.0389 12.2234 95.1505 12.2234 94.224V16.6173C12.2234 16.1245 12.417 15.6519 12.7617 15.3035C13.1064 14.955 13.5738 14.7593 14.0613 14.7593V14.7593Z" fill="#637B84"/>
<path d="M7.03467 91.5798H141.474V95.5476C141.474 95.9795 141.39 96.4072 141.227 96.8063C141.063 97.2054 140.824 97.568 140.521 97.8734C140.219 98.1788 139.861 98.4211 139.466 98.5864C139.071 98.7517 138.648 98.8368 138.221 98.8368H10.2883C9.86102 98.8368 9.43793 98.7517 9.04319 98.5864C8.64844 98.4211 8.28976 98.1788 7.98763 97.8734C7.68551 97.568 7.44585 97.2054 7.28234 96.8063C7.11883 96.4072 7.03467 95.9795 7.03467 95.5476V91.5798Z" fill="#637B84"/>
<path d="M132.631 18.0558H15.553V88.1107H132.631V18.0558Z" fill="#F5F5F5"/>
<path d="M62.0334 91.5798L63.7029 94.2625H87.1779L88.7265 91.5798H62.0334Z" fill="#263238"/>
<path d="M136.331 91.5559H12.2424V91.9563H136.331V91.5559Z" fill="#263238"/>
<path d="M48.7037 14.7595H35.8125V10.1708C35.8125 6.9319 38.4069 4.19165 41.6131 4.19165L48.7037 4.30432V14.7595Z" fill="#E0E0E0"/>
<path d="M41.3354 4.18431C41.3354 4.18431 48.6632 3.51065 48.6632 13.1842V88.4272H106.242V10.4416C106.242 9.60112 106.077 8.76896 105.759 7.99271C105.44 7.21645 104.973 6.51134 104.384 5.9177C103.796 5.32407 103.097 4.85357 102.329 4.5331C101.56 4.21263 100.737 4.04848 99.9055 4.05006L41.3354 4.18431Z" fill="white"/>
<path d="M41.3352 4.18438L83.9336 4.04532L94.247 4.01656L99.7345 4.00217C100.683 3.97739 101.626 4.16487 102.495 4.55119C103.379 4.95275 104.164 5.54809 104.793 6.2941C105.427 7.05843 105.878 7.96114 106.109 8.93126C106.169 9.17525 106.214 9.42264 106.244 9.67207C106.277 9.91181 106.275 10.1731 106.292 10.4249C106.292 10.9259 106.292 11.4294 106.292 11.9352V18.0894C106.292 22.2545 106.292 26.5371 106.292 30.9372C106.292 48.5198 106.292 67.8574 106.292 88.1396V88.5016H106.23H48.6512H48.5942V88.444C48.5942 62.3937 48.6108 40.2727 48.6156 24.6727C48.6156 20.7697 48.6156 17.2743 48.6156 14.2272C48.6156 13.4648 48.6156 12.7312 48.5729 12.0287C48.5302 11.3547 48.4383 10.6848 48.2978 10.0245C48.1616 9.42296 47.9727 8.83488 47.7334 8.26719C47.5084 7.7601 47.2318 7.27802 46.9081 6.82874C46.3543 6.08064 45.6442 5.46509 44.8284 5.02588C44.2324 4.70722 43.5931 4.4794 42.9312 4.3498C42.5297 4.2673 42.1219 4.22077 41.7123 4.21075C41.4348 4.21075 41.2949 4.21075 41.2949 4.21075C41.4339 4.20227 41.5733 4.20227 41.7123 4.21075C42.1231 4.21777 42.5326 4.2611 42.936 4.34022C43.5975 4.46854 44.2368 4.69472 44.8331 5.01149C45.6539 5.44922 46.369 6.06484 46.9271 6.81435C47.2535 7.26359 47.5332 7.74561 47.7619 8.25281C48.0027 8.82283 48.1932 9.4133 48.331 10.0173C48.4895 10.6691 48.6004 11.3318 48.663 12C48.7152 12.7048 48.7081 13.4384 48.7081 14.2008C48.7081 17.2479 48.7081 20.7434 48.7081 24.6464C48.7081 40.2559 48.7223 62.3769 48.7318 88.4177L48.6749 88.3625H106.254L106.19 88.4249V88.1372C106.19 67.8478 106.19 48.5174 106.19 30.9348C106.19 26.5379 106.19 22.2553 106.19 18.087V11.9352C106.175 10.9259 106.261 9.91421 106.012 8.95525C105.784 8.00119 105.341 7.11338 104.717 6.36124C104.098 5.6274 103.326 5.04117 102.457 4.64468C101.599 4.26837 100.67 4.08671 99.7345 4.11246H94.2375L83.9027 4.12924L41.3352 4.18438Z" fill="#263238"/>
<path d="M73.3264 27.0197C73.3264 27.0533 69.8261 27.0821 65.5006 27.0821C61.1751 27.0821 57.6748 27.0533 57.6748 27.0197C57.6748 26.9862 61.1751 26.9574 65.5006 26.9574C69.8261 26.9574 73.3264 26.9838 73.3264 27.0197Z" fill="#263238"/>
<path d="M76.8241 28.9089C76.8241 28.9449 72.5365 28.9712 67.2505 28.9712C61.9646 28.9712 57.677 28.9449 57.677 28.9089C57.677 28.8729 61.9622 28.8466 67.2505 28.8466C72.5389 28.8466 76.8241 28.8753 76.8241 28.9089Z" fill="#263238"/>
<path d="M78.0811 36.3529C78.0811 36.3864 73.6536 36.4152 68.1969 36.4152C62.7402 36.4152 58.3103 36.3864 58.3103 36.3529C58.3103 36.3193 62.7354 36.2905 68.1969 36.2905C73.6583 36.2905 78.0811 36.3193 78.0811 36.3529Z" fill="#263238"/>
<path d="M90.9935 43.6075C90.9935 43.6411 83.5946 43.6698 74.4693 43.6698C65.3439 43.6698 57.9426 43.6411 57.9426 43.6075C57.9426 43.5739 65.3415 43.5452 74.4693 43.5452C83.597 43.5452 90.9935 43.5715 90.9935 43.6075Z" fill="#263238"/>
<path d="M90.9935 45.77C90.9935 45.8059 83.5946 45.8323 74.4693 45.8323C65.3439 45.8323 57.9426 45.8059 57.9426 45.77C57.9426 45.734 65.3415 45.7076 74.4693 45.7076C83.597 45.7076 90.9935 45.7364 90.9935 45.77Z" fill="#263238"/>
<path d="M90.9935 47.9348C90.9935 47.9707 83.5946 47.9971 74.4693 47.9971C65.3439 47.9971 57.9426 47.9707 57.9426 47.9348C57.9426 47.8988 65.3415 47.8724 74.4693 47.8724C83.597 47.8724 90.9935 47.9012 90.9935 47.9348Z" fill="#263238"/>
<path d="M90.9935 50.0997C90.9935 50.1333 83.5946 50.162 74.4693 50.162C65.3439 50.162 57.9426 50.1333 57.9426 50.0997C57.9426 50.0661 65.3415 50.0374 74.4693 50.0374C83.597 50.0374 90.9935 50.0661 90.9935 50.0997Z" fill="#263238"/>
<path d="M90.9935 52.2645C90.9935 52.298 83.5946 52.3268 74.4693 52.3268C65.3439 52.3268 57.9426 52.298 57.9426 52.2645C57.9426 52.2309 65.3415 52.2021 74.4693 52.2021C83.597 52.2021 90.9935 52.2309 90.9935 52.2645Z" fill="#263238"/>
<path d="M70.4806 54.4294C70.4806 54.463 67.6752 54.4917 64.2153 54.4917C60.7553 54.4917 57.9475 54.463 57.9475 54.4294C57.9475 54.3958 60.7529 54.3671 64.2153 54.3671C67.6776 54.3671 70.4806 54.3934 70.4806 54.4294Z" fill="#263238"/>
<path d="M96.9032 43.303L91.0243 57.1145C90.9962 57.1788 90.9879 57.2503 91.0008 57.3194C91.0136 57.3886 91.0469 57.4522 91.0962 57.5018C91.1456 57.5514 91.2086 57.5847 91.2771 57.5973C91.3456 57.6099 91.4162 57.6013 91.4797 57.5724L96.0115 55.549C96.056 55.5283 96.1043 55.5174 96.1533 55.517C96.2023 55.5166 96.2508 55.5267 96.2956 55.5466C96.3404 55.5666 96.3806 55.5959 96.4133 55.6327C96.4461 55.6694 96.4708 55.7128 96.4858 55.76L98.0154 60.399C98.0375 60.4677 98.0803 60.5277 98.1378 60.5707C98.1953 60.6137 98.2646 60.6375 98.336 60.6388C98.4075 60.6402 98.4776 60.6189 98.5366 60.5781C98.5956 60.5372 98.6405 60.4788 98.6652 60.411L104.191 45.5134L96.9032 43.303Z" fill="url(#paint0_linear_639_165)"/>
<path d="M104.563 45.6021L107.38 60.3654C107.393 60.4344 107.427 60.4978 107.476 60.5473C107.525 60.5969 107.588 60.6303 107.657 60.6432C107.725 60.6561 107.795 60.648 107.859 60.6198C107.923 60.5917 107.976 60.5448 108.013 60.4853L110.636 56.2371C110.662 56.1958 110.695 56.1604 110.735 56.1331C110.775 56.1058 110.82 56.0871 110.867 56.0783C110.915 56.0695 110.963 56.0708 111.01 56.082C111.057 56.0932 111.101 56.1142 111.139 56.1436L114.983 59.114C115.04 59.1573 115.109 59.1818 115.18 59.1843C115.251 59.1867 115.321 59.1669 115.381 59.1276C115.44 59.0883 115.486 59.0314 115.513 58.9646C115.539 58.8978 115.545 58.8244 115.529 58.7544L111.815 43.291L104.563 45.6021Z" fill="url(#paint1_linear_639_165)"/>
<g opacity="0.3">
<path d="M96.9032 43.303L91.0243 57.1145C90.9962 57.1788 90.9879 57.2503 91.0008 57.3194C91.0136 57.3886 91.0469 57.4522 91.0962 57.5018C91.1456 57.5514 91.2086 57.5847 91.2771 57.5973C91.3456 57.6099 91.4162 57.6013 91.4797 57.5724L96.0115 55.549C96.056 55.5283 96.1043 55.5174 96.1533 55.517C96.2023 55.5166 96.2508 55.5267 96.2956 55.5466C96.3404 55.5666 96.3806 55.5959 96.4133 55.6327C96.4461 55.6694 96.4708 55.7128 96.4858 55.76L98.0154 60.399C98.0375 60.4677 98.0803 60.5277 98.1378 60.5707C98.1953 60.6137 98.2646 60.6375 98.336 60.6388C98.4075 60.6402 98.4776 60.6189 98.5366 60.5781C98.5956 60.5372 98.6405 60.4788 98.6652 60.411L104.191 45.5134L96.9032 43.303Z" fill="black"/>
</g>
<g opacity="0.3">
<path d="M104.563 45.6021L107.38 60.3654C107.393 60.4344 107.427 60.4978 107.476 60.5473C107.525 60.5969 107.588 60.6303 107.657 60.6432C107.725 60.6561 107.795 60.648 107.859 60.6198C107.923 60.5917 107.976 60.5448 108.013 60.4853L110.636 56.2371C110.662 56.1958 110.695 56.1604 110.735 56.1331C110.775 56.1058 110.82 56.0871 110.867 56.0783C110.915 56.0695 110.963 56.0708 111.01 56.082C111.057 56.0932 111.101 56.1142 111.139 56.1436L114.983 59.114C115.04 59.1573 115.109 59.1818 115.18 59.1843C115.251 59.1867 115.321 59.1669 115.381 59.1276C115.44 59.0883 115.486 59.0314 115.513 58.9646C115.539 58.8978 115.545 58.8244 115.529 58.7544L111.815 43.291L104.563 45.6021Z" fill="black"/>
</g>
<path d="M104.852 19.0938L106.78 17.6577L108.298 19.5325L110.52 18.6287L111.528 20.8271L113.904 20.5082L114.338 22.8913L116.717 23.1814L116.553 25.5956L118.784 26.4754L118.033 28.7745L119.98 30.1866L118.685 32.2244L120.222 34.0824L118.467 35.7295L119.498 37.9159L117.392 39.0715L117.855 41.4473L115.531 42.0371L115.393 44.4537L112.998 44.4417L112.27 46.748L109.953 46.1318L108.68 48.184L106.588 47.0069L104.852 48.6731L103.114 47.0069L101.02 48.184L99.7488 46.1318L97.4319 46.748L96.7039 44.4417L94.3087 44.4537L94.1712 42.0371L91.8496 41.4473L92.3096 39.0715L90.2038 37.9159L91.2353 35.7295L89.4805 34.0824L91.0195 32.2244L89.7247 30.1866L91.6693 28.7745L90.9176 26.4754L93.1491 25.5956L92.9855 23.1814L95.364 22.8913L95.798 20.5082L98.1742 20.8271L99.1821 18.6287L101.404 19.5325L102.922 17.6577L104.852 19.0938Z" fill="url(#paint2_linear_639_165)"/>
<path d="M112.523 40.9229C116.76 36.6396 116.76 29.6949 112.523 25.4116C108.286 21.1282 101.417 21.1282 97.18 25.4116C92.943 29.6949 92.943 36.6396 97.18 40.9229C101.417 45.2063 108.286 45.2063 112.523 40.9229Z" fill="white"/>
<path d="M107.217 30.5703L110.129 30.9995C110.237 31.0153 110.338 31.0613 110.421 31.1324C110.504 31.2034 110.566 31.2966 110.6 31.4015C110.634 31.5063 110.637 31.6185 110.611 31.7254C110.585 31.8323 110.529 31.9297 110.451 32.0064L108.341 34.0802C108.273 34.1472 108.222 34.2296 108.193 34.3206C108.164 34.4116 108.157 34.5084 108.172 34.6028L108.661 37.5348C108.679 37.6433 108.667 37.7547 108.626 37.8565C108.585 37.9584 108.516 38.0466 108.428 38.1111C108.34 38.1757 108.236 38.2141 108.127 38.222C108.019 38.2299 107.91 38.207 107.814 38.1558L105.206 36.7677C105.122 36.7228 105.029 36.6993 104.934 36.6993C104.839 36.6993 104.746 36.7228 104.662 36.7677L102.054 38.1486C101.957 38.1993 101.849 38.2218 101.741 38.2135C101.632 38.2052 101.528 38.1665 101.44 38.1017C101.353 38.0369 101.285 37.9486 101.244 37.8467C101.203 37.7449 101.191 37.6335 101.21 37.5253L101.71 34.5956C101.726 34.5027 101.719 34.4074 101.69 34.3177C101.662 34.228 101.613 34.1465 101.546 34.0802L99.4429 32.0016C99.3647 31.9247 99.3093 31.8272 99.2831 31.7201C99.257 31.613 99.261 31.5006 99.2949 31.3958C99.3287 31.2909 99.391 31.1977 99.4746 31.1268C99.5582 31.0559 99.6598 31.0101 99.7678 30.9947L102.68 30.5703C102.774 30.5572 102.862 30.5211 102.939 30.4651C103.015 30.4091 103.077 30.3349 103.119 30.2491L104.423 27.5832C104.471 27.4846 104.546 27.4016 104.638 27.3436C104.731 27.2856 104.837 27.2549 104.946 27.2549C105.055 27.2549 105.161 27.2856 105.254 27.3436C105.346 27.4016 105.421 27.4846 105.469 27.5832L106.778 30.2443C106.82 30.3302 106.881 30.4047 106.958 30.4615C107.034 30.5182 107.123 30.5556 107.217 30.5703V30.5703Z" fill="url(#paint3_linear_639_165)"/>
<path d="M63.1551 15.8381C63.1537 15.6526 63.1902 15.4688 63.2623 15.2983C63.3344 15.1277 63.4405 14.9741 63.5741 14.8469C63.7077 14.7198 63.8658 14.6218 64.0385 14.5593C64.2112 14.4968 64.3949 14.471 64.5779 14.4836C64.7865 14.4724 64.9949 14.5098 65.1869 14.5929C65.3789 14.6761 65.5495 14.8027 65.6854 14.963L65.223 15.3874C65.1518 15.2928 65.06 15.2161 64.9547 15.1633C64.8494 15.1105 64.7334 15.083 64.6159 15.0829C64.4209 15.0829 64.2339 15.1612 64.0961 15.3006C63.9582 15.44 63.8807 15.629 63.8807 15.8261C63.8807 16.0232 63.9582 16.2122 64.0961 16.3516C64.2339 16.491 64.4209 16.5693 64.6159 16.5693C64.7334 16.5692 64.8494 16.5417 64.9547 16.4889C65.06 16.4361 65.1518 16.3594 65.223 16.2648L65.6854 16.6868C65.5495 16.8471 65.3789 16.9737 65.1869 17.0569C64.9949 17.14 64.7865 17.1774 64.5779 17.1663C63.755 17.1902 63.1551 16.6292 63.1551 15.8381Z" fill="#263238"/>
<path d="M68.0686 16.579V17.1472H66.0007V14.5364H68.0212V15.1046H66.7217V15.5433H67.8718V16.0995H66.7288V16.579H68.0686Z" fill="#263238"/>
<path d="M69.5984 16.4471H69.2V17.1376H68.4719V14.5364H69.6576C70.3691 14.5364 70.8031 14.9056 70.8031 15.4953C70.8093 15.6674 70.7646 15.8373 70.6746 15.9834C70.5846 16.1295 70.4534 16.2451 70.2979 16.3153L70.8529 17.1328H70.075L69.5984 16.4471ZM69.5984 15.1166H69.2V15.8789H69.6055C69.9066 15.8789 70.0584 15.7375 70.0584 15.5001C70.0584 15.2628 69.9066 15.1166 69.6055 15.1166H69.5984Z" fill="#263238"/>
<path d="M71.704 15.1189H70.9143V14.5364H73.2194V15.1189H72.432V17.1376H71.704V15.1189Z" fill="#263238"/>
<path d="M73.4922 14.5364H74.2202V17.1376H73.4922V14.5364Z" fill="#263238"/>
<path d="M75.4605 15.1046V15.6776H76.5964V16.2457H75.4605V17.1376H74.749V14.5364H76.7695V15.1046H75.4605Z" fill="#263238"/>
<path d="M77.0991 14.5364H77.8319V17.1376H77.1039L77.0991 14.5364Z" fill="#263238"/>
<path d="M78.2139 15.8381C78.2139 15.0446 78.8115 14.4836 79.6367 14.4836C79.845 14.4725 80.053 14.5099 80.2446 14.593C80.4362 14.6762 80.6064 14.8028 80.7418 14.9631L80.2794 15.3874C80.2083 15.2927 80.1165 15.216 80.0112 15.1631C79.9059 15.1103 79.7899 15.0829 79.6723 15.083C79.4773 15.083 79.2903 15.1613 79.1525 15.3006C79.0146 15.44 78.9372 15.6291 78.9372 15.8262C78.9372 16.0233 79.0146 16.2123 79.1525 16.3517C79.2903 16.4911 79.4773 16.5694 79.6723 16.5694C79.7899 16.5695 79.9059 16.542 80.0112 16.4892C80.1165 16.4364 80.2083 16.3596 80.2794 16.2649L80.7418 16.6868C80.6064 16.8471 80.4362 16.9738 80.2446 17.0569C80.053 17.1401 79.845 17.1775 79.6367 17.1663C78.8115 17.1903 78.2139 16.6293 78.2139 15.8381Z" fill="#263238"/>
<path d="M82.7386 16.6317H81.6501L81.4486 17.1376H80.7063L81.8422 14.5364H82.5537L83.6943 17.1376H82.9378L82.7386 16.6317ZM82.5252 16.0899L82.1956 15.258L81.8636 16.0995L82.5252 16.0899Z" fill="#263238"/>
<path d="M84.325 15.1189H83.5234V14.5364H85.8285V15.1189H85.0435V17.1376H84.3155L84.325 15.1189Z" fill="#263238"/>
<path d="M86.1106 14.5364H86.8434V17.1376H86.1153L86.1106 14.5364Z" fill="#263238"/>
<path d="M87.2253 15.8382C87.2253 15.0566 87.8324 14.4836 88.6482 14.4836C89.464 14.4836 90.0711 15.0566 90.0711 15.8382C90.0711 16.6197 89.464 17.1903 88.6482 17.1903C87.8324 17.1903 87.2253 16.6173 87.2253 15.8382ZM89.3596 15.8382C89.3518 15.7013 89.3044 15.5697 89.2235 15.4596C89.1425 15.3496 89.0314 15.266 88.904 15.219C88.7765 15.172 88.6383 15.1638 88.5062 15.1953C88.3742 15.2269 88.2542 15.2968 88.161 15.3964C88.0678 15.4961 88.0055 15.6212 87.9818 15.7562C87.9581 15.8912 87.9741 16.0303 88.0276 16.1563C88.0812 16.2823 88.1701 16.3897 88.2833 16.4652C88.3965 16.5408 88.5292 16.5812 88.6648 16.5814C88.759 16.5809 88.852 16.561 88.9383 16.5229C89.0245 16.4847 89.1021 16.4291 89.1663 16.3595C89.2305 16.2898 89.2799 16.2077 89.3116 16.118C89.3432 16.0284 89.3563 15.9331 89.3502 15.8382H89.3596Z" fill="#263238"/>
<path d="M92.9168 14.5364V17.1376H92.3168L91.1809 15.7519V17.1376H90.4695V14.5364H91.0695L92.2054 15.9221V14.5364H92.9168Z" fill="#263238"/>
<path d="M95.8362 63.5684C95.8362 63.602 92.5541 63.6308 88.506 63.6308C84.4579 63.6308 81.1782 63.602 81.1782 63.5684C81.1782 63.5349 84.4579 63.5061 88.506 63.5061C92.5541 63.5061 95.8362 63.5325 95.8362 63.5684Z" fill="#263238"/>
<path d="M95.8362 65.6566C95.8362 65.6925 92.5541 65.7189 88.506 65.7189C84.4579 65.7189 81.1782 65.6925 81.1782 65.6566C81.1782 65.6206 84.4579 65.5942 88.506 65.5942C92.5541 65.5942 95.8362 65.623 95.8362 65.6566Z" fill="#263238"/>
<path d="M94.8616 74.7403C94.8541 74.7056 94.8501 74.6703 94.8497 74.6348C94.8497 74.5605 94.8378 74.4598 94.8284 74.3303C94.8284 74.2632 94.8236 74.1889 94.8141 74.1074C94.8141 74.0259 94.788 73.9348 94.7738 73.8389C94.7444 73.6153 94.6992 73.3942 94.6386 73.1772C94.488 72.5774 94.2481 72.0043 93.9272 71.4774C93.5097 70.7763 92.9631 70.1627 92.317 69.6698C91.5378 69.065 90.6287 68.6544 89.6633 68.471C88.5594 68.2704 87.4224 68.3705 86.3694 68.7611C86.088 68.8636 85.8139 68.9854 85.5489 69.1255C85.2801 69.2744 85.0218 69.4418 84.7758 69.6266C84.5257 69.8153 84.288 70.0203 84.0644 70.2403C83.8431 70.4726 83.6372 70.7193 83.4478 70.9787C83.0563 71.5099 82.7528 72.1017 82.549 72.7313C82.1158 74.034 82.1158 75.4442 82.549 76.7469C82.7528 77.3764 83.0563 77.9683 83.4478 78.4995C83.6372 78.7589 83.8431 79.0056 84.0644 79.2378C84.288 79.4579 84.5257 79.6629 84.7758 79.8516C85.0204 80.0379 85.278 80.2062 85.5465 80.3551C85.8125 80.4948 86.0874 80.6165 86.3694 80.7195C87.7473 81.2246 89.256 81.2299 90.6373 80.7343C92.0187 80.2388 93.1867 79.2734 93.9414 78.0032C94.262 77.4752 94.5019 76.9014 94.6529 76.301C94.7137 76.084 94.7589 75.8629 94.788 75.6393C94.8023 75.5434 94.8189 75.4547 94.8284 75.3732C94.8378 75.2917 94.8284 75.215 94.8426 75.1479C94.8426 75.0184 94.8592 74.9081 94.8639 74.8434C94.8642 74.8087 94.8682 74.7741 94.8758 74.7403C94.879 74.7746 94.879 74.8091 94.8758 74.8434V75.1503C94.8758 75.2174 94.8758 75.2941 94.8758 75.3756C94.8758 75.4571 94.8521 75.5482 94.8402 75.6465C94.8165 75.8716 94.7752 76.0944 94.7169 76.313C94.5751 76.9201 94.3415 77.5016 94.0244 78.0367C93.5595 78.8302 92.9321 79.514 92.1845 80.0424C91.4369 80.5708 90.5862 80.9316 89.6894 81.1006C88.5632 81.316 87.4004 81.2225 86.322 80.8297C86.0353 80.7252 85.7556 80.6019 85.4849 80.4605C85.2111 80.3088 84.9481 80.1382 84.6975 79.9499C84.4413 79.7588 84.1981 79.5506 83.9695 79.3266C83.7437 79.0909 83.5337 78.8402 83.3411 78.5762C82.9411 78.0339 82.6304 77.43 82.4209 76.7877C82.2104 76.1257 82.0993 75.4356 82.0913 74.7403C82.099 74.0456 82.211 73.3561 82.4233 72.6953C82.632 72.0538 82.9419 71.4507 83.3411 70.9092C83.5338 70.6453 83.7438 70.3946 83.9695 70.1588C84.1987 69.9347 84.4419 69.7257 84.6975 69.5331C84.9487 69.3464 85.2117 69.1766 85.4849 69.0249C85.7552 68.8825 86.0349 68.7591 86.322 68.6556C87.4002 68.2621 88.5629 68.1678 89.6894 68.3823C90.5809 68.5541 91.4259 68.9159 92.1681 69.4438C92.9103 69.9718 93.5326 70.6536 93.9936 71.4438C94.3103 71.9792 94.5438 72.5606 94.6861 73.1676C94.7445 73.3869 94.7857 73.6106 94.8094 73.8365C94.8212 73.9348 94.8378 74.0235 94.845 74.1074C94.8521 74.1913 94.845 74.2632 94.845 74.3327V74.6372C94.8535 74.671 94.8591 74.7055 94.8616 74.7403Z" fill="url(#paint4_linear_639_165)"/>
<path d="M92.4794 75.6827C93.0013 73.4646 91.6457 71.2387 89.4516 70.7111C87.2575 70.1835 85.0558 71.5539 84.5339 73.772C84.012 75.9902 85.3675 78.216 87.5617 78.7437C89.7558 79.2713 91.9575 77.9008 92.4794 75.6827Z" fill="url(#paint5_linear_639_165)"/>
<path d="M97.5885 71.1849L97.4178 71.2808L96.9079 71.5541L94.9468 72.5898L91.8473 74.2081C91.5314 74.3743 91.1897 74.4846 90.837 74.5341C90.6458 74.5584 90.4516 74.5415 90.2672 74.4844C90.0829 74.4274 89.9126 74.3316 89.7675 74.2033C89.6128 74.068 89.5028 73.8881 89.4521 73.6878C89.4225 73.5834 89.4193 73.4731 89.4429 73.3671C89.4666 73.2611 89.5162 73.1628 89.5873 73.0813C89.7349 72.9172 89.9398 72.8175 90.1588 72.8032C90.2731 72.7872 90.3895 72.8095 90.4901 72.8667C90.5907 72.9238 90.6701 73.0127 90.7161 73.1197V73.1197C90.7222 73.8123 90.4776 74.4834 90.0284 75.0064C89.7947 75.29 89.5056 75.5216 89.1791 75.6866C88.8526 75.8517 88.4958 75.9466 88.1312 75.9654C87.7467 75.9864 87.362 75.9291 86.9998 75.7969C86.6377 75.6647 86.3055 75.4603 86.023 75.1958C85.7174 74.9252 85.5048 74.5633 85.4159 74.1625C85.3754 73.9516 85.4028 73.7332 85.4942 73.5392C85.5905 73.3416 85.755 73.1865 85.9566 73.1029C86.0605 73.0624 86.173 73.0493 86.2833 73.0648C86.3937 73.0803 86.4983 73.1239 86.5874 73.1916C86.7581 73.33 86.8837 73.5171 86.9478 73.7286C87.0144 73.9336 87.0472 74.1482 87.0451 74.3639C87.0521 74.5793 87.0354 74.7948 86.9953 75.0064C86.8294 75.8781 86.361 76.6611 85.6744 77.2144C85.3276 77.5039 84.925 77.7174 84.4923 77.8412C84.0595 77.965 83.6061 77.9965 83.1606 77.9337C82.2429 77.7761 81.4197 77.2691 80.8603 76.5168C80.5341 76.0949 80.3085 75.6027 80.2011 75.0783C80.0847 74.5572 80.1252 74.0129 80.3173 73.5152C80.4209 73.2665 80.5982 73.0562 80.8248 72.9135C81.0535 72.7685 81.3276 72.7155 81.5931 72.7648C81.7226 72.7955 81.844 72.8543 81.9488 72.9371C82.0537 73.0198 82.1394 73.1247 82.2002 73.2443C82.312 73.4717 82.3919 73.7138 82.4374 73.9635C82.6623 74.9325 82.6013 75.9469 82.2619 76.8812C81.9434 77.7808 81.3289 78.5426 80.5212 79.0389C79.7503 79.5109 78.8458 79.7099 77.9506 79.6047C77.1153 79.5098 76.3496 79.0892 75.8163 78.4323C75.3111 77.8125 75.0345 77.0346 75.0337 76.2315C75.0406 75.8533 75.1212 75.4802 75.2708 75.1335C75.3351 74.9619 75.4335 74.8055 75.5599 74.674C75.6864 74.5424 75.8382 74.4385 76.006 74.3687C76.176 74.3149 76.3574 74.3099 76.5301 74.3543C76.6939 74.4078 76.8432 74.4989 76.9664 74.6204C77.1943 74.8542 77.3656 75.1381 77.4668 75.4499C77.5697 75.7384 77.6235 76.0424 77.6257 76.349C77.6257 76.4976 77.6257 76.6415 77.6257 76.7853C77.6257 76.9291 77.6257 77.0682 77.5996 77.2049C77.5084 78.1462 77.2369 79.0606 76.8004 79.8971C76.5241 80.4241 76.1822 80.9131 75.7831 81.3524C75.6503 81.5034 75.5459 81.6089 75.4605 81.6808C75.3752 81.7527 75.3444 81.7863 75.3444 81.7863L75.4511 81.6712C75.5246 81.5969 75.6337 81.489 75.7665 81.3356C76.1538 80.8911 76.4867 80.4008 76.7577 79.8756C77.1843 79.0427 77.4469 78.1341 77.5308 77.2001C77.5451 77.0634 77.5522 76.9244 77.5545 76.7829C77.5569 76.6415 77.5545 76.4976 77.5545 76.3538C77.5503 76.0544 77.4966 75.7578 77.3957 75.4763C77.2997 75.1786 77.1374 74.9071 76.9214 74.6828C76.8073 74.5722 76.6692 74.4901 76.5182 74.443C76.3619 74.4029 76.1976 74.4079 76.0439 74.4574C75.8878 74.5237 75.7468 74.6218 75.6297 74.7455C75.5126 74.8692 75.4219 75.016 75.3633 75.1766C75.2239 75.5123 75.1506 75.8723 75.1475 76.2363C75.1513 77.0168 75.4229 77.7718 75.9159 78.3724C76.1645 78.6858 76.4684 78.95 76.8123 79.1516C77.1796 79.3544 77.5822 79.4839 77.998 79.5327C78.8685 79.6351 79.7478 79.4393 80.4951 78.9765C81.2817 78.4916 81.8789 77.7473 82.186 76.8692C82.5148 75.9566 82.5733 74.9668 82.3544 74.0211C82.3069 73.7818 82.2271 73.5503 82.1172 73.333C82.0649 73.2277 81.9905 73.1351 81.8991 73.0618C81.8078 72.9885 81.7017 72.9363 81.5884 72.9087C81.3536 72.8656 81.1115 72.9136 80.9101 73.0429C80.7048 73.174 80.5442 73.3656 80.4501 73.5919C80.2687 74.0656 80.2315 74.5832 80.3434 75.0783C80.4474 75.5845 80.6657 76.0596 80.9813 76.4664C81.5199 77.1923 82.3136 77.6815 83.1986 77.833C83.6283 77.8923 84.0655 77.8604 84.4824 77.7395C84.8992 77.6185 85.2866 77.4111 85.6198 77.1305C86.285 76.5966 86.7392 75.8398 86.9004 74.9968C86.9223 74.895 86.9358 74.7916 86.9407 74.6876C86.949 74.5846 86.949 74.4812 86.9407 74.3783C86.9446 74.1748 86.9141 73.9721 86.8506 73.7789C86.7945 73.5906 86.6838 73.4235 86.5328 73.2995C86.4591 73.2437 86.3725 73.2079 86.2812 73.1953C86.1899 73.1827 86.097 73.1938 86.0111 73.2275C85.8369 73.3001 85.6951 73.4349 85.6127 73.6063C85.5302 73.7774 85.5052 73.971 85.5416 74.1577C85.6284 74.5299 85.8283 74.8652 86.1131 75.1167C86.3843 75.3715 86.7032 75.5687 87.051 75.6968C87.3989 75.8249 87.7686 75.8811 88.1383 75.8623C88.4878 75.8436 88.8298 75.7521 89.1427 75.5937C89.4557 75.4353 89.733 75.2134 89.9572 74.9417C90.3908 74.438 90.6285 73.7921 90.626 73.1244V73.158C90.5866 73.0678 90.5185 72.9936 90.4326 72.9471C90.3466 72.9006 90.2477 72.8845 90.1517 72.9015C89.9583 72.9123 89.7765 72.9982 89.6442 73.1412C89.5826 73.2123 89.5395 73.2977 89.5188 73.3898C89.4981 73.4818 89.5005 73.5777 89.5256 73.6687C89.5696 73.8547 89.6699 74.0223 89.8126 74.1481C89.9488 74.2691 90.1088 74.3596 90.2821 74.4138C90.4554 74.4679 90.638 74.4844 90.8181 74.4622C91.1613 74.4146 91.4941 74.3084 91.8022 74.1481L94.9088 72.5491L96.8818 71.5397L97.3988 71.2784C97.5269 71.2113 97.5885 71.1849 97.5885 71.1849Z" fill="#263238"/>
<path d="M76.3451 12.0454C76.3451 12.079 71.3295 12.1078 65.1423 12.1078C58.9552 12.1078 53.9373 12.079 53.9373 12.0454C53.9373 12.0119 58.9529 11.9807 65.1423 11.9807C71.3318 11.9807 76.3451 12.0095 76.3451 12.0454Z" fill="#E0E0E0"/>
<path d="M80.0801 12.0454C79.5648 12.1285 79.0397 12.1285 78.5244 12.0454C79.0395 11.9591 79.565 11.9591 80.0801 12.0454V12.0454Z" fill="#E0E0E0"/>
<path d="M102.383 12.0454C102.383 12.079 97.8089 12.1078 92.1672 12.1078C86.5256 12.1078 81.9463 12.079 81.9463 12.0454C81.9463 12.0119 86.5208 11.9807 92.1672 11.9807C97.8137 11.9807 102.383 12.0095 102.383 12.0454Z" fill="#E0E0E0"/>
<path d="M76.3451 18.3458C76.3451 18.3817 71.3295 18.4081 65.1423 18.4081C58.9552 18.4081 53.9373 18.3817 53.9373 18.3458C53.9373 18.3098 58.9529 18.2834 65.1423 18.2834C71.3318 18.2834 76.3451 18.3122 76.3451 18.3458Z" fill="#E0E0E0"/>
<path d="M80.0801 18.3458C79.5648 18.4289 79.0397 18.4289 78.5244 18.3458C79.0397 18.2627 79.5648 18.2627 80.0801 18.3458V18.3458Z" fill="#E0E0E0"/>
<path d="M102.383 18.3458C102.383 18.3817 97.8089 18.4081 92.1672 18.4081C86.5256 18.4081 81.9463 18.3817 81.9463 18.3458C81.9463 18.3098 86.5208 18.2834 92.1672 18.2834C97.8137 18.2834 102.383 18.3122 102.383 18.3458Z" fill="#E0E0E0"/>
<path d="M147 41.879C147 41.879 144.173 53.5856 131.517 50.9053C131.517 50.9053 135.185 39.0501 147 41.879Z" fill="#263238"/>
<path d="M140.884 59.6078C140.884 59.6078 135.076 68.3656 125.47 62.3097C125.477 62.3097 132.022 53.6862 140.884 59.6078Z" fill="#263238"/>
<path d="M131.628 72.9686C131.628 72.9686 123.153 80.2543 115.028 71.2233C115.035 71.2233 124.227 64.2875 131.628 72.9686Z" fill="#263238"/>
<path d="M122.652 44.6432C122.652 44.6432 132.053 49.2103 127.49 59.6774C127.49 59.6774 118.116 54.3551 122.652 44.6432Z" fill="#263238"/>
<path d="M120.611 57.2633C120.611 57.2633 125.299 63.662 118.313 69.1593C118.313 69.1593 113.923 62.2571 120.611 57.2633Z" fill="#263238"/>
<path d="M142.357 28.1897C142.357 28.1897 143.433 37.6787 133.295 39.1986C133.295 39.1986 132.802 29.3644 142.357 28.1897Z" fill="#263238"/>
<path d="M127.815 18.588C127.815 18.588 136.016 22.0499 132.454 31.7738C132.454 31.7666 124.237 27.6191 127.815 18.588Z" fill="#263238"/>
<path d="M122.866 32.4523C122.866 32.4523 133.725 33.7037 132.769 45.6381C132.769 45.6501 121.68 43.641 122.866 32.4523Z" fill="#263238"/>
<path d="M107.416 74.1506L107.553 74.1074L107.961 73.9995C108.317 73.9036 108.848 73.779 109.517 73.556C111.406 72.9644 113.233 72.1855 114.971 71.2305C117.552 69.8062 119.934 68.0414 122.055 65.9826C123.309 64.7724 124.478 63.4746 125.553 62.0988C125.821 61.732 126.093 61.3652 126.366 60.9912L126.779 60.4326C126.911 60.2408 127.032 60.0418 127.16 59.8452L127.929 58.6465L128.64 57.395L128.994 56.7669C129.1 56.5511 129.205 56.3354 129.309 56.122C129.515 55.6929 129.729 55.2709 129.928 54.8442L130.471 53.5544C130.559 53.341 130.651 53.13 130.734 52.9167L130.971 52.2694L131.424 50.9939C131.548 50.5648 131.661 50.138 131.797 49.7185C131.858 49.5075 131.918 49.299 131.979 49.0904C132.041 48.8818 132.081 48.6708 132.133 48.4623L132.42 47.2252C133.04 44.3198 133.311 41.3497 133.229 38.3787C133.163 36.3768 132.942 34.3832 132.567 32.4163C132.42 31.7211 132.29 31.1865 132.209 30.8221C132.171 30.6423 132.14 30.5056 132.119 30.4073C132.098 30.309 132.091 30.2659 132.091 30.2659C132.091 30.2659 132.107 30.3114 132.131 30.4049L132.235 30.8173C132.321 31.1793 132.472 31.7139 132.615 32.4068C133.604 37.3067 133.575 42.3608 132.532 47.2492C132.437 47.6567 132.341 48.0707 132.245 48.491C132.193 48.6996 132.155 48.913 132.093 49.1215L131.901 49.7593C131.78 50.1812 131.664 50.6079 131.529 51.0371L131.078 52.3173L130.841 52.967C130.758 53.1828 130.665 53.3937 130.575 53.6095C130.397 54.0363 130.215 54.4678 130.035 54.9041C129.854 55.3404 129.62 55.7552 129.411 56.1843C129.307 56.4001 129.202 56.6159 129.096 56.8316C128.989 57.0474 128.858 57.2512 128.742 57.4622C128.505 57.8841 128.268 58.3037 128.031 58.7184L127.26 59.9171C127.132 60.1137 127.009 60.3127 126.876 60.5045L126.463 61.0679L125.645 62.1779C124.566 63.5569 123.391 64.8571 122.131 66.0689C120.001 68.1291 117.608 69.8924 115.016 71.312C113.266 72.2628 111.425 73.0315 109.522 73.6064C108.853 73.8197 108.319 73.9396 107.959 74.0259L107.551 74.1242L107.416 74.1506Z" fill="#263238"/>
<path d="M119.596 62.4224C119.606 62.5115 119.606 62.6017 119.596 62.6909C119.581 62.8611 119.555 63.1104 119.52 63.4101C119.446 64.0215 119.32 64.8629 119.143 65.7859C118.965 66.709 118.766 67.5385 118.607 68.1306C118.526 68.4279 118.457 68.6676 118.407 68.8331C118.385 68.916 118.354 68.9963 118.315 69.0728C118.318 68.9832 118.333 68.8944 118.36 68.8091C118.405 68.6149 118.457 68.3776 118.521 68.0899C118.659 67.4905 118.844 66.6514 119.022 65.7404C119.199 64.8294 119.337 63.9831 119.432 63.3765C119.477 63.0937 119.515 62.8539 119.548 62.6573C119.555 62.5775 119.571 62.4987 119.596 62.4224V62.4224Z" fill="#637B84"/>
<path d="M121.905 71.9256C121.815 71.9295 121.725 71.9215 121.637 71.9017L120.926 71.7938C120.316 71.7027 119.477 71.5828 118.554 71.4725C117.632 71.3623 116.778 71.2831 116.166 71.2328L115.441 71.1681C115.351 71.1649 115.262 71.152 115.175 71.1297C115.264 71.1179 115.354 71.1179 115.443 71.1297C115.616 71.1297 115.865 71.1297 116.171 71.1537C116.785 71.1849 117.634 71.2496 118.569 71.3599C119.503 71.4701 120.342 71.5996 120.94 71.7195C121.241 71.777 121.485 71.8274 121.651 71.8657C121.738 71.8748 121.823 71.8949 121.905 71.9256Z" fill="#637B84"/>
<path d="M133.324 60.3103C133.222 60.3454 133.117 60.3711 133.011 60.387L132.152 60.5572C131.427 60.7034 130.428 60.9144 129.333 61.1805C128.237 61.4466 127.253 61.7247 126.541 61.9309L125.7 62.1707C125.598 62.2063 125.493 62.232 125.386 62.2474C125.481 62.195 125.582 62.1532 125.685 62.1227C125.88 62.0508 126.16 61.9549 126.515 61.8398C127.227 61.6001 128.204 61.322 129.302 61.0535C130.4 60.785 131.405 60.586 132.136 60.4637C132.501 60.4014 132.797 60.3582 133.004 60.3318C133.109 60.3133 133.217 60.306 133.324 60.3103V60.3103Z" fill="#637B84"/>
<path d="M125.024 51.3417C125.097 51.4317 125.161 51.5289 125.216 51.6318C125.334 51.8236 125.493 52.1112 125.678 52.4661C126.631 54.3397 127.214 56.3826 127.395 58.4812C127.428 58.8816 127.443 59.2004 127.44 59.4402C127.45 59.5566 127.45 59.6737 127.44 59.7902C127.416 59.6758 127.404 59.5594 127.402 59.4425C127.388 59.2196 127.362 58.8959 127.317 58.4836C127.093 56.402 126.517 54.3747 125.614 52.49C125.441 52.128 125.294 51.8403 125.19 51.6414C125.125 51.5469 125.07 51.4465 125.024 51.3417V51.3417Z" fill="#637B84"/>
<path d="M137.626 45.8778C137.548 45.9455 137.464 46.0049 137.374 46.0552L136.68 46.5131C136.096 46.9063 135.304 47.4721 134.472 48.1482C133.639 48.8242 132.933 49.4955 132.432 49.9942L131.844 50.5863C131.777 50.6634 131.703 50.7333 131.621 50.7949C131.675 50.7082 131.738 50.6278 131.809 50.5552C131.937 50.4041 132.126 50.1908 132.371 49.9342C133.006 49.2656 133.683 48.6379 134.396 48.0547C135.108 47.4711 135.855 46.9323 136.632 46.4412C136.931 46.2542 137.178 46.1104 137.344 46.0145C137.432 45.9575 137.527 45.9116 137.626 45.8778V45.8778Z" fill="#637B84"/>
<path d="M125.771 37.2112C125.803 37.2306 125.832 37.254 125.859 37.2807L126.096 37.4965C126.302 37.6859 126.594 37.976 126.949 38.3188C127.661 39.0236 128.609 40.0281 129.594 41.1957C130.578 42.3632 131.412 43.4732 131.986 44.2932C132.276 44.7031 132.503 45.0388 132.655 45.2761C132.722 45.384 132.778 45.4727 132.826 45.547C132.849 45.5779 132.867 45.6118 132.88 45.6477C132.88 45.6477 132.852 45.6213 132.807 45.5614L132.615 45.3025L131.918 44.3435C131.325 43.538 130.483 42.44 129.501 41.2748C128.519 40.1097 127.58 39.0955 126.893 38.3763L126.067 37.5276L125.844 37.2879C125.792 37.2447 125.766 37.216 125.771 37.2112Z" fill="#637B84"/>
<path d="M138.847 31.2727C138.777 31.3786 138.697 31.4781 138.61 31.57L137.953 32.3563C137.4 33.0228 136.658 33.9602 135.895 35.0391C135.131 36.1179 134.493 37.132 134.047 37.8776L133.526 38.7599C133.468 38.872 133.4 38.9787 133.324 39.0787C133.368 38.9612 133.421 38.8473 133.483 38.7383C133.592 38.5201 133.758 38.2108 133.974 37.8321C134.401 37.0745 135.029 36.0508 135.795 34.9671C136.561 33.8835 137.317 32.9509 137.887 32.2988C138.171 31.9704 138.408 31.7114 138.574 31.5364C138.658 31.441 138.749 31.3528 138.847 31.2727Z" fill="#637B84"/>
<path d="M129.029 22.2656C129.097 22.3755 129.154 22.492 129.2 22.6133C129.304 22.8386 129.437 23.1695 129.62 23.5722C129.963 24.3945 130.419 25.5381 130.886 26.8159C131.353 28.0938 131.744 29.2613 132.012 30.1124C132.148 30.5367 132.249 30.8819 132.321 31.1217C132.362 31.2442 132.393 31.3702 132.413 31.4981C132.357 31.3814 132.31 31.2603 132.273 31.1361L131.929 30.1388C131.64 29.2973 131.237 28.1345 130.77 26.8591C130.303 25.5837 129.861 24.4353 129.537 23.6058L129.157 22.6205C129.105 22.5057 129.063 22.387 129.029 22.2656V22.2656Z" fill="#637B84"/>
<path d="M5 39.273C5 39.273 7.67262 50.3347 19.6318 47.8006C19.6318 47.8006 16.1743 36.5975 5 39.273Z" fill="#263238"/>
<path d="M10.7769 56.0261C10.7769 56.0261 16.2691 64.3019 25.3376 58.5793C25.3376 58.5793 19.1528 50.4305 10.7769 56.0261Z" fill="#263238"/>
<path d="M19.5251 68.651C19.5251 68.651 27.5359 75.5388 35.2075 67.004C35.2075 67.004 26.5209 60.4518 19.5251 68.651Z" fill="#263238"/>
<path d="M28.0077 41.8861C28.0077 41.8861 19.1242 46.2015 23.4355 56.0908C23.4355 56.0908 32.3 51.0634 28.0077 41.8861Z" fill="#263238"/>
<path d="M29.9286 53.8109C29.9286 53.8109 25.4987 59.8572 32.1009 65.0524C32.108 65.0524 36.2556 58.5338 29.9286 53.8109Z" fill="#263238"/>
<path d="M9.38718 26.3365C9.38718 26.3365 8.36982 35.3029 17.9505 36.7389C17.9505 36.7389 18.4153 27.4466 9.38718 26.3365Z" fill="#263238"/>
<path d="M23.1274 17.2622C23.1274 17.2622 15.3799 20.5347 18.745 29.7168C18.745 29.7168 26.5091 25.7994 23.1274 17.2622Z" fill="#263238"/>
<path d="M27.8062 30.3641C27.8062 30.3641 17.5449 31.5485 18.4484 42.8307C18.4484 42.8355 28.9255 40.9391 27.8062 30.3641Z" fill="#263238"/>
<path d="M44.6531 70.5353C44.6068 70.5292 44.5609 70.5204 44.5156 70.5089L44.1101 70.4178C43.7544 70.3339 43.2279 70.2212 42.5615 70.0222C39.3671 69.1169 36.3185 67.7507 33.5097 65.9658C32.1919 65.1332 30.9342 64.2071 29.7462 63.1944C28.4288 62.0795 27.199 60.8627 26.0681 59.5551L25.2049 58.5026C24.9251 58.1406 24.6571 57.7642 24.382 57.3926L23.967 56.8293L23.5852 56.2371C23.3314 55.8391 23.0658 55.4459 22.8216 55.0384C22.3473 54.2041 21.873 53.3938 21.4817 52.5451C21.0525 51.718 20.7181 50.8669 20.3671 50.0326C18.6664 45.6698 17.8355 41.0102 17.9222 36.3217C17.9761 34.3408 18.1951 32.3679 18.5767 30.4241C18.7213 29.7384 18.866 29.2134 18.949 28.8538C18.9941 28.6788 19.0273 28.5421 19.051 28.4462C19.0747 28.3503 19.0889 28.3096 19.0889 28.3096C19.0829 28.3572 19.0742 28.4044 19.0628 28.451C19.0415 28.5469 19.013 28.6908 18.9727 28.8586C18.8968 29.2206 18.7593 29.748 18.6241 30.4337C18.2611 32.3762 18.0556 34.3454 18.0099 36.3217C17.9397 40.9963 18.7784 45.6393 20.4786 49.987C20.8296 50.8141 21.1639 51.6652 21.5932 52.4899C21.9797 53.3338 22.4611 54.1417 22.9259 54.9737C23.1631 55.3812 23.4358 55.7744 23.6872 56.1724L24.069 56.7621L24.4745 57.3159C24.7519 57.6875 25.0175 58.0639 25.295 58.4235L26.1535 59.4712C28.3057 61.9543 30.7999 64.1117 33.5595 65.8771C34.6991 66.6081 35.8806 67.2701 37.0977 67.8598C38.859 68.7194 40.6892 69.4268 42.5686 69.9743C43.2326 70.1805 43.7544 70.3003 44.1101 70.3938L44.5132 70.4969L44.6531 70.5353Z" fill="#263238"/>
<path d="M30.8961 58.6848C30.9221 58.7627 30.9404 58.843 30.9506 58.9246C30.9791 59.1116 31.017 59.3369 31.0597 59.603C31.1498 60.176 31.2827 60.9672 31.4487 61.8374C31.6147 62.7077 31.7901 63.4892 31.9229 64.055C31.9822 64.3164 32.032 64.5345 32.0747 64.7263C32.0982 64.8042 32.1117 64.8847 32.115 64.966C32.0767 64.8899 32.0472 64.8094 32.0273 64.7263C31.9775 64.5729 31.9135 64.3451 31.8376 64.0646C31.6858 63.5036 31.4985 62.7221 31.3301 61.8494C31.1617 60.9767 31.0431 60.1712 30.9744 59.603C30.9412 59.3153 30.9174 59.0804 30.9056 58.9174C30.8921 58.8406 30.8889 58.7624 30.8961 58.6848V58.6848Z" fill="#637B84"/>
<path d="M28.7146 67.6655C28.791 67.634 28.8705 67.6107 28.9517 67.596C29.1106 67.56 29.343 67.5121 29.6276 67.4569C30.1991 67.349 30.9936 67.2172 31.8757 67.1165C32.7579 67.0158 33.5595 66.9511 34.1405 66.9247C34.4298 66.9103 34.6669 66.9007 34.8282 66.9007C34.9129 66.8935 34.9982 66.8975 35.0819 66.9127C34.9999 66.935 34.9155 66.9471 34.8306 66.9487L34.1452 67.011C33.569 67.0637 32.7698 67.1381 31.89 67.2507C31.0102 67.3634 30.2157 67.4689 29.6418 67.5552L28.9612 67.6535C28.8801 67.6698 28.7969 67.6738 28.7146 67.6655V67.6655Z" fill="#637B84"/>
<path d="M17.9172 56.6902C18.0191 56.6866 18.121 56.6955 18.2208 56.7166C18.4152 56.7406 18.6951 56.7813 19.0389 56.8389C19.729 56.9539 20.68 57.1409 21.7163 57.3951C22.7526 57.6492 23.6846 57.9249 24.351 58.1407C24.683 58.2485 24.951 58.342 25.1359 58.4092C25.2357 58.4402 25.3319 58.482 25.4229 58.5338C25.3216 58.5219 25.2221 58.4977 25.1264 58.4619L24.332 58.2222C23.6609 58.028 22.7313 57.7691 21.695 57.503C20.6586 57.2368 19.7077 57.0642 19.02 56.9276L18.2066 56.7646C18.1081 56.7487 18.0112 56.7238 17.9172 56.6902V56.6902Z" fill="#637B84"/>
<path d="M25.7572 48.2104C25.7202 48.3143 25.6725 48.4139 25.6149 48.5077C25.5153 48.6947 25.3778 48.968 25.2165 49.3109C24.3658 51.0907 23.8213 53.004 23.6063 54.9688C23.5636 55.3452 23.5375 55.652 23.5233 55.863C23.5231 55.9735 23.5112 56.0836 23.4877 56.1914C23.4727 56.0819 23.4687 55.971 23.4759 55.8606C23.4759 55.6496 23.4877 55.3404 23.5186 54.9616C23.6041 53.9707 23.7836 52.9905 24.0545 52.0343C24.326 51.0795 24.6889 50.1537 25.1383 49.2701C25.3114 48.9321 25.4608 48.6636 25.5746 48.4838C25.6269 48.3871 25.688 48.2956 25.7572 48.2104V48.2104Z" fill="#637B84"/>
<path d="M13.8574 43.0513C13.9487 43.0838 14.0362 43.1264 14.1183 43.1783C14.2819 43.267 14.5143 43.4037 14.7989 43.5811C15.5342 44.0459 16.2407 44.5559 16.9142 45.1083C17.587 45.66 18.2254 46.2532 18.8256 46.8847C19.0628 47.1245 19.2359 47.3283 19.3568 47.4721C19.4248 47.5445 19.4837 47.625 19.5323 47.7119C19.4555 47.6529 19.3848 47.5862 19.3212 47.5129L18.764 46.9543C18.2897 46.4748 17.6209 45.8563 16.836 45.2137C16.051 44.5712 15.3016 44.0246 14.7515 43.6554L14.0946 43.2191C14.0101 43.1714 13.9306 43.1152 13.8574 43.0513V43.0513Z" fill="#637B84"/>
<path d="M25.0623 34.8617C24.9769 34.9703 24.8833 35.0721 24.7824 35.1662L23.9999 35.9693C23.3453 36.6478 22.4608 37.6067 21.5312 38.7071C20.6016 39.8076 19.8095 40.8457 19.2475 41.608C18.9771 41.9748 18.7566 42.2817 18.5882 42.5118C18.5124 42.6265 18.4276 42.7347 18.3345 42.8355C18.3962 42.7125 18.4676 42.5946 18.5479 42.4831C18.6902 42.2601 18.906 41.9437 19.1763 41.5553C19.7218 40.7785 20.5067 39.7309 21.4387 38.6256C22.3707 37.5204 23.2671 36.571 23.9382 35.907C24.2726 35.5737 24.55 35.3076 24.7445 35.1302C24.8434 35.0326 24.9497 34.9428 25.0623 34.8617V34.8617Z" fill="#637B84"/>
<path d="M12.7051 29.2494C12.7959 29.3223 12.8808 29.4024 12.9588 29.4891C13.1177 29.6546 13.343 29.8991 13.611 30.2084C14.3123 31.0144 14.9724 31.8562 15.5888 32.7304C16.3121 33.7541 16.9073 34.7227 17.3104 35.4371C17.512 35.7943 17.6685 36.0892 17.7847 36.293C17.8434 36.3973 17.8934 36.5064 17.9341 36.6191C17.8615 36.5242 17.7972 36.4231 17.742 36.317C17.614 36.1012 17.4456 35.8207 17.2464 35.4827C16.8124 34.7994 16.2101 33.8405 15.4892 32.812C14.7682 31.7835 14.0663 30.894 13.5446 30.2755L12.9233 29.5251C12.8418 29.4406 12.7688 29.3482 12.7051 29.2494V29.2494Z" fill="#637B84"/>
<path d="M21.982 20.7385C21.9514 20.8565 21.9118 20.972 21.8635 21.0838C21.7686 21.3235 21.6477 21.6376 21.503 22.014C21.1971 22.7979 20.7916 23.8839 20.3386 25.0898C19.8857 26.2957 19.5157 27.3938 19.243 28.1897L18.9158 29.1319C18.8805 29.2487 18.836 29.3626 18.783 29.4723C18.8024 29.3518 18.8317 29.2331 18.8707 29.1175C18.9347 28.8897 19.0343 28.5637 19.16 28.1585C19.4114 27.3554 19.7813 26.2406 20.2224 25.0419C20.6635 23.8432 21.0975 22.7548 21.4224 21.978C21.586 21.5896 21.7212 21.278 21.8184 21.0622C21.8617 20.9489 21.9166 20.8404 21.982 20.7385V20.7385Z" fill="#637B84"/>
<path d="M44.6435 32.0231C46.3723 32.2629 46.6284 34.0418 47.2687 35.5449C47.909 37.0481 49.1374 38.3955 50.086 39.7308C50.584 40.4501 51.2717 41.0806 51.4448 41.9245C51.6322 42.8067 51.2338 43.7201 51.0464 44.6216C50.8591 45.523 50.9895 46.6186 51.8432 47.019C51.7474 47.1322 51.6267 47.2212 51.4909 47.2791C51.355 47.3369 51.2077 47.362 51.0606 47.3522C51.0606 47.767 50.667 48.1266 50.2354 48.2441C49.794 48.3328 49.339 48.3262 48.9003 48.2249C49.0165 48.5006 48.7675 48.8338 48.4639 48.9441C48.1534 49.03 47.8258 49.03 47.5153 48.9441C47.2072 48.8553 46.8841 48.8324 46.5668 48.877C45.8553 49.0304 45.4403 49.836 44.7289 49.9342C43.7518 50.0781 43.0475 48.8146 42.0847 49.0352C41.6318 49.1383 41.3282 49.5387 40.9583 49.812C40.5883 50.0853 39.9575 50.0158 39.7726 49.6226C39.2556 50.2819 38.454 50.922 37.6145 51.097C37.6741 50.9528 37.6903 50.794 37.6612 50.6406C37.6321 50.4871 37.559 50.3457 37.4509 50.2339C36.9886 50.6154 36.4332 50.8638 35.8431 50.9531C36.0206 50.7889 36.1607 50.5877 36.2536 50.3633C36.3466 50.139 36.3902 49.8968 36.3814 49.6538C36.183 49.8112 35.9518 49.9208 35.7053 49.9744C35.4587 50.028 35.2033 50.0241 34.9585 49.963C35.8265 49.462 35.9071 48.2968 35.6036 47.4218C35.3 46.5467 34.7071 45.7627 34.5909 44.8397C34.4676 43.8352 35.6344 42.5646 35.4067 41.5792C35.0534 40.0593 35.0818 39.1339 35.1435 37.7146C35.1838 36.7868 35.587 35.9621 35.9925 35.0966C36.4645 34.0246 37.273 33.1398 38.2928 32.5793C39.2105 32.0567 40.5314 31.5772 41.5843 31.5532C43.4554 31.5125 44.219 31.4525 45.7012 32.4547" fill="#263238"/>
<path d="M38.8691 44.401C38.2555 43.1929 37.7462 41.9336 37.3466 40.6371C36.9462 39.334 36.8729 37.9507 37.1332 36.6118C37.1782 36.4128 37.6075 35.0487 37.809 35.0415C37.9561 35.0415 37.745 36.2834 37.8351 36.3984C38.6865 37.506 39.0683 38.9277 39.1418 40.3278C39.2006 41.6924 39.1092 43.0593 38.8691 44.4034" fill="#263238"/>
<path d="M47.0601 55.8966C44.9922 56.1364 40.0122 53.9356 39.7324 51.8498L38.0557 39.2969C37.4984 35.9405 38.9687 32.8239 42.303 32.3444L42.6137 32.3181C44.1225 32.1954 45.6217 32.6518 46.8126 33.5963C48.0036 34.5409 48.7989 35.9042 49.0403 37.4149C49.5146 40.3278 49.9889 43.5499 50.0908 45.125C50.309 48.3831 47.1289 49.1503 47.1289 49.1503C47.1289 49.1503 47.2095 49.9031 47.3257 50.8549C47.589 52.9934 47.2522 55.338 47.0601 55.8894V55.8966Z" fill="#FFBE9D"/>
<path d="M47.1289 49.1383C45.6407 49.2549 44.1506 48.9388 42.8342 48.2273C42.8342 48.2273 44.0366 50.5935 47.2285 50.0397L47.1289 49.1383Z" fill="#EB996E"/>
<path d="M47.8401 40.2367C47.8508 40.3575 47.8144 40.4778 47.7386 40.5718C47.6629 40.6659 47.5538 40.7263 47.4346 40.7402C47.3764 40.75 47.3168 40.7479 47.2594 40.7339C47.202 40.7199 47.148 40.6944 47.1006 40.6588C47.0533 40.6232 47.0135 40.5783 46.9837 40.5268C46.9538 40.4753 46.9346 40.4182 46.9271 40.359C46.9164 40.2382 46.9529 40.118 47.0286 40.0239C47.1044 39.9299 47.2135 39.8695 47.3326 39.8556C47.3909 39.8457 47.4505 39.8479 47.5078 39.8618C47.5652 39.8758 47.6192 39.9014 47.6666 39.937C47.714 39.9726 47.7538 40.0175 47.7836 40.069C47.8134 40.1205 47.8326 40.1775 47.8401 40.2367V40.2367Z" fill="#263238"/>
<path d="M48.4686 38.8942C48.4164 38.9589 48.0489 38.7263 47.5532 38.7671C47.0576 38.8079 46.7161 39.0884 46.6568 39.0332C46.5975 38.9781 46.6782 38.8918 46.8252 38.7647C47.0272 38.5967 47.2757 38.4962 47.5366 38.477C47.7939 38.4547 48.0514 38.516 48.2718 38.652C48.4259 38.7575 48.4947 38.875 48.4686 38.8942Z" fill="#263238"/>
<path d="M43.1875 40.6035C43.1952 40.7239 43.1578 40.8429 43.0827 40.9366C43.0075 41.0304 42.9001 41.0921 42.7819 41.1093C42.7238 41.1188 42.6643 41.1164 42.607 41.1023C42.5498 41.0881 42.4959 41.0626 42.4486 41.027C42.4013 40.9915 42.3615 40.9467 42.3316 40.8954C42.3017 40.8441 42.2823 40.7872 42.2744 40.7281C42.2667 40.6077 42.3041 40.4887 42.3793 40.3949C42.4544 40.3012 42.5618 40.2395 42.68 40.2223C42.7381 40.2131 42.7975 40.2157 42.8546 40.23C42.9117 40.2443 42.9655 40.2699 43.0127 40.3054C43.0599 40.3409 43.0997 40.3855 43.1297 40.4367C43.1597 40.4878 43.1793 40.5445 43.1875 40.6035V40.6035Z" fill="#263238"/>
<path d="M43.6261 39.4024C43.5739 39.4695 43.204 39.237 42.7107 39.2777C42.2175 39.3185 41.8712 39.599 41.8143 39.5415C41.7574 39.4839 41.8333 39.4024 41.9827 39.2729C42.1855 39.1067 42.4338 39.0072 42.6941 38.9876C42.9514 38.965 43.2091 39.0263 43.4293 39.1627C43.5905 39.2681 43.6522 39.3736 43.6261 39.4024Z" fill="#263238"/>
<path d="M45.7061 43.1041C45.9609 42.9998 46.2279 42.9289 46.5005 42.8931C46.6238 42.8691 46.7376 42.8332 46.7566 42.7445C46.7577 42.6116 46.7179 42.4818 46.6428 42.3729C46.4981 42.0732 46.3487 41.7591 46.1922 41.4307C45.5614 40.0881 45.0966 38.9781 45.1488 38.9541C45.2009 38.9302 45.7582 39.997 46.3867 41.3396L46.8206 42.2985C46.9129 42.4461 46.9507 42.6218 46.9274 42.7948C46.9127 42.8413 46.8878 42.8838 46.8546 42.9191C46.8213 42.9544 46.7805 42.9816 46.7353 42.9986C46.6662 43.0228 46.5946 43.0389 46.5218 43.0465C46.2534 43.1003 45.9793 43.1196 45.7061 43.1041V43.1041Z" fill="#263238"/>
<path d="M43.4461 37.5373C43.3891 37.6692 42.8982 37.5733 42.3125 37.6093C41.7268 37.6452 41.2453 37.7747 41.1766 37.6476C41.1457 37.5877 41.2359 37.4654 41.4327 37.3432C41.6959 37.1983 41.9882 37.1155 42.2876 37.1009C42.587 37.0864 42.8857 37.1405 43.1615 37.2593C43.3583 37.3599 43.4579 37.4726 43.4461 37.5373Z" fill="#263238"/>
<path d="M48.2598 37.7338C48.1674 37.8561 47.7523 37.777 47.2686 37.8177C46.7848 37.8585 46.3817 37.9807 46.2773 37.8705C46.2299 37.8177 46.2773 37.6979 46.4528 37.5732C46.6882 37.4196 46.9582 37.3287 47.2376 37.309C47.5171 37.2893 47.797 37.3414 48.0512 37.4605C48.2314 37.5612 48.3002 37.6763 48.2598 37.7338Z" fill="#263238"/>
<path d="M38.5108 41.6752C38.4539 41.656 36.2437 41.1957 36.4927 43.4133C36.7417 45.631 38.8926 44.9261 38.8902 44.8518C38.8879 44.7775 38.5108 41.6752 38.5108 41.6752Z" fill="#FFBE9D"/>
<path d="M38.1246 44.0966C38.1246 44.0966 38.089 44.1278 38.0297 44.1661C37.9426 44.216 37.8397 44.2297 37.7428 44.2045C37.5056 44.1445 37.2685 43.7945 37.2092 43.3941C37.1826 43.2045 37.198 43.0113 37.2542 42.8284C37.2682 42.756 37.2995 42.6883 37.3454 42.631C37.3913 42.5737 37.4504 42.5287 37.5175 42.4999C37.56 42.4833 37.6068 42.4822 37.65 42.4966C37.6933 42.511 37.7302 42.5402 37.7546 42.579C37.7902 42.639 37.7831 42.6845 37.7949 42.6869C37.8068 42.6893 37.8376 42.6438 37.8092 42.5551C37.7915 42.501 37.7553 42.4551 37.7072 42.4256C37.6416 42.386 37.5633 42.3739 37.489 42.392C37.4007 42.4201 37.321 42.4709 37.2578 42.5394C37.1947 42.6079 37.1501 42.6917 37.1286 42.7828C37.0561 42.9853 37.0342 43.2026 37.0645 43.4157C37.1286 43.8616 37.4013 44.2548 37.7285 44.3124C37.7895 44.3233 37.8521 44.3201 37.9116 44.3031C37.9712 44.286 38.0261 44.2556 38.0724 44.2141C38.1269 44.1493 38.1341 44.099 38.1246 44.0966Z" fill="#EB996E"/>
<path d="M47.1786 33.9004C47.5106 33.6606 46.3059 32.625 45.3834 32.3325C43.9937 31.889 41.9329 31.7643 40.7591 32.2629C39.3362 32.8623 38.2169 33.7469 37.6454 35.1854C37.1015 36.6442 36.9517 38.223 37.2114 39.7597C37.25 40.2334 37.4138 40.688 37.6857 41.0758C38.0509 41.529 38.6746 41.7663 38.7315 42.4448C38.7374 42.5684 38.7677 42.6895 38.8207 42.8011C38.8736 42.9127 38.9481 43.0124 39.0398 43.0945C39.4927 43.4757 39.9362 43.0106 40.114 42.5766C40.4911 41.6488 40.4199 40.6036 40.3512 39.6038C40.3336 38.8892 40.2006 38.1822 39.9575 37.5109C39.8057 37.1537 39.5923 36.8276 39.4595 36.4632C39.3828 36.2848 39.3451 36.0917 39.3492 35.8972C39.3533 35.7027 39.399 35.5114 39.4832 35.3364C39.5288 35.2628 39.5812 35.1938 39.6397 35.1303C39.9131 34.8224 40.2624 34.5935 40.6521 34.4671C41.0417 34.3407 41.4576 34.3214 41.857 34.411C43.1447 34.7011 45.3336 35.1015 45.834 34.61C46.5454 33.8908 46.6972 33.4832 46.6972 33.4832L47.1786 33.9004Z" fill="#263238"/>
<path d="M44.3945 43.538C44.3661 43.538 44.3613 43.6699 44.4277 43.8569C44.5183 44.1035 44.6845 44.3143 44.902 44.4586C45.1103 44.5993 45.3427 44.6993 45.5874 44.7535C45.77 44.7967 45.8862 44.8014 45.898 44.7727C45.9099 44.7439 45.8056 44.6792 45.6419 44.5977C45.4313 44.5027 45.2284 44.3912 45.0348 44.2644C44.5843 43.9743 44.4538 43.514 44.3945 43.538Z" fill="#263238"/>
<path d="M38.582 41.9652L38.6366 42.0899C38.6366 42.0899 38.6153 42.0443 38.582 41.9652Z" fill="url(#paint6_linear_639_165)"/>
<path d="M37.8279 41.6248C37.8279 41.6248 38.1979 41.1333 38.5821 41.9652C38.1244 40.8768 35.0794 33.0061 43.4246 31.968C43.4246 31.968 40.4104 31.431 38.5915 32.9462C38.5915 32.9462 34.9087 35.1781 37.8279 41.6248Z" fill="#637B84"/>
<path d="M53.7829 81.3596L34.3916 81.6257C34.3916 81.6257 28.98 79.3314 27.4765 79.2691C25.973 79.2067 23.03 79.4009 21.6617 81.6257C20.2388 83.9273 20.0515 87.9861 24.4078 90.9373C28.6527 93.8142 48.0583 96.4634 50.7167 96.2116L55.6208 89.5588C55.6208 89.5588 55.673 84.1047 55.6208 83.8458C55.5687 83.5868 54.7481 81.2469 54.7481 81.2469L53.7829 81.3596Z" fill="#263238"/>
<path d="M42.1748 90.5657L32.127 94.3368L36.7062 107C37.8753 106.482 37.9085 99.0453 37.9085 99.0453L44.4443 96.8877L42.1748 90.5657Z" fill="url(#paint7_linear_639_165)"/>
<g opacity="0.6">
<path d="M37.043 94.9291C36.9622 94.8215 36.845 94.7476 36.7139 94.7215C36.5828 94.6955 36.4467 94.719 36.3316 94.7876C36.2198 94.8651 36.1422 94.9834 36.1152 95.1177C36.0882 95.2519 36.1139 95.3914 36.1869 95.5069C36.2723 95.6222 36.3972 95.7011 36.5371 95.7282C36.6771 95.7552 36.822 95.7284 36.9434 95.6531C37.0494 95.5602 37.1158 95.4295 37.1286 95.2883C37.1414 95.1471 37.0997 95.0063 37.0122 94.8955" fill="white"/>
</g>
<path d="M32.127 94.3368L33.1419 93.958L37.1734 106.264C37.1734 106.264 37.1331 106.918 36.7181 107L32.127 94.3368Z" fill="#263238"/>
<path d="M38.0461 99.2276C37.9845 99.2468 37.8446 98.9471 37.5386 98.7169C37.2327 98.4868 36.9173 98.4173 36.9197 98.3525C36.9221 98.2878 37.311 98.247 37.6762 98.5347C38.0414 98.8224 38.1078 99.2204 38.0461 99.2276Z" fill="#263238"/>
<path d="M37.9915 100.755C37.937 100.791 37.7354 100.563 37.401 100.448C37.0667 100.333 36.7702 100.374 36.7513 100.311C36.7323 100.249 37.0643 100.072 37.4769 100.232C37.8896 100.393 38.0413 100.728 37.9915 100.755Z" fill="#263238"/>
<path d="M36.6849 102.09C36.6517 102.04 36.922 101.85 37.3181 101.874C37.7141 101.898 37.9489 102.15 37.9062 102.196C37.8635 102.241 37.6216 102.129 37.2991 102.105C36.9766 102.081 36.7133 102.15 36.6849 102.09Z" fill="#263238"/>
<path d="M39.4833 98.5706C39.4169 98.5706 39.4003 98.2518 39.2462 97.9114C39.092 97.5709 38.8904 97.3384 38.9308 97.2856C38.9711 97.2329 39.2841 97.4151 39.4548 97.8203C39.6256 98.2254 39.5426 98.5826 39.4833 98.5706Z" fill="#263238"/>
<path d="M40.8587 97.7196C40.7255 97.5328 40.6437 97.3136 40.6216 97.0843C40.5787 96.8407 40.566 96.5927 40.5837 96.3459C40.5937 96.1993 40.6135 96.0535 40.6429 95.9096C40.657 95.8261 40.6834 95.7453 40.7212 95.6698C40.7494 95.6127 40.796 95.5669 40.8533 95.5399C40.9105 95.5129 40.9751 95.5063 41.0366 95.5212C41.0903 95.5362 41.1397 95.5638 41.1809 95.6017C41.2221 95.6396 41.2539 95.6867 41.2737 95.7393C41.3026 95.8164 41.321 95.897 41.3283 95.9791C41.3412 96.1274 41.3412 96.2767 41.3283 96.425C41.3095 96.6722 41.2527 96.9148 41.1599 97.1442C40.9987 97.5374 40.8066 97.722 40.7852 97.7052C40.7639 97.6885 40.8967 97.4655 41.0224 97.0891C41.1269 96.7374 41.1576 96.3675 41.1125 96.0031C41.0983 95.8568 41.0579 95.7418 40.9868 95.7298C40.9583 95.7298 40.9489 95.7298 40.9204 95.7681C40.8941 95.8263 40.875 95.8874 40.8635 95.9503C40.8339 96.0832 40.8117 96.2177 40.7971 96.3531C40.7762 96.586 40.7762 96.8203 40.7971 97.0531C40.8333 97.2735 40.8539 97.4962 40.8587 97.7196Z" fill="#263238"/>
<path d="M40.7425 97.6717C40.7259 97.6525 40.8991 97.4487 41.288 97.2785C41.5144 97.184 41.7548 97.1281 41.9994 97.1131C42.1459 97.1042 42.2929 97.1107 42.4381 97.1323C42.5353 97.1336 42.6303 97.161 42.7136 97.2115C42.7969 97.262 42.8655 97.3339 42.9124 97.42C42.9313 97.477 42.934 97.5382 42.9202 97.5967C42.9063 97.6552 42.8765 97.7086 42.8342 97.7508C42.7726 97.8099 42.7032 97.8599 42.6278 97.8994C42.4957 97.9726 42.3534 98.0252 42.2057 98.0553C41.958 98.108 41.7013 98.0973 41.4587 98.0241C41.0461 97.8971 40.8777 97.6669 40.8967 97.6549C41.093 97.7363 41.2932 97.8074 41.4967 97.8683C41.7159 97.9102 41.9414 97.9045 42.1583 97.8515C42.2838 97.8197 42.4043 97.7705 42.5164 97.7053C42.6444 97.6357 42.7322 97.5446 42.7014 97.4991C42.6705 97.4535 42.5401 97.3672 42.4144 97.3553C42.2837 97.3321 42.1511 97.3216 42.0184 97.3241C41.7906 97.3263 41.5645 97.3626 41.3473 97.432C40.9702 97.5494 40.7639 97.7005 40.7425 97.6717Z" fill="#263238"/>
<path d="M50.4631 89.0002L60.186 93.5553L54.6369 105.813C53.5104 105.207 54.0559 97.7892 54.0559 97.7892L47.7146 95.1304L50.4631 89.0002Z" fill="url(#paint8_linear_639_165)"/>
<g opacity="0.6">
<path d="M55.2463 93.7591C55.3357 93.658 55.4588 93.5935 55.5921 93.5781C55.7255 93.5626 55.8598 93.5971 55.9696 93.6751C56.0723 93.761 56.1387 93.8834 56.155 94.0171C56.1713 94.1509 56.1363 94.2859 56.0573 94.3944C55.9631 94.5017 55.8329 94.5699 55.6919 94.5858C55.5509 94.6017 55.409 94.5643 55.2937 94.4807C55.1939 94.3802 55.1368 94.2443 55.1346 94.1019C55.1324 93.9595 55.1852 93.8219 55.2819 93.7183" fill="white"/>
</g>
<path d="M60.186 93.56L59.2042 93.0997L54.2408 105.044C54.2408 105.044 54.2289 105.698 54.6368 105.811L60.186 93.56Z" fill="#263238"/>
<path d="M53.9041 97.964C53.9658 97.988 54.127 97.7027 54.4519 97.4846C54.7768 97.2664 55.0946 97.2448 55.097 97.1705C55.0993 97.0962 54.7151 97.0363 54.3262 97.2928C53.9373 97.5493 53.8448 97.9521 53.9041 97.964Z" fill="#263238"/>
<path d="M53.8495 99.4914C53.8993 99.5321 54.1174 99.3188 54.4613 99.2325C54.8052 99.1462 55.0945 99.2085 55.1182 99.1486C55.1419 99.0886 54.8241 98.8944 54.4068 99.0119C53.9894 99.1294 53.7926 99.465 53.8495 99.4914Z" fill="#263238"/>
<path d="M55.0398 100.927C55.0778 100.879 54.8193 100.659 54.4256 100.661C54.0319 100.664 53.7758 100.887 53.8138 100.935C53.8517 100.983 54.1031 100.889 54.4256 100.891C54.7481 100.894 55.0066 100.983 55.0398 100.927Z" fill="#263238"/>
<path d="M52.5238 97.1946C52.5902 97.1946 52.6329 96.8805 52.8084 96.5545C52.9838 96.2284 53.2091 96.0102 53.1712 95.9551C53.1332 95.9 52.8107 96.0582 52.6068 96.4466C52.4028 96.835 52.4574 97.2018 52.5238 97.1946Z" fill="#263238"/>
<path d="M51.2174 96.2356C51.2411 96.2356 51.3857 96.0294 51.4924 95.6218C51.5534 95.3821 51.5853 95.1358 51.5873 94.8882C51.5897 94.7416 51.5818 94.595 51.5636 94.4495C51.5548 94.3672 51.5349 94.2866 51.5043 94.2098C51.4791 94.1516 51.4359 94.1033 51.3811 94.0721C51.3263 94.041 51.263 94.0287 51.2008 94.0371C51.1461 94.0482 51.0948 94.072 51.0508 94.1065C51.0067 94.141 50.9712 94.1854 50.947 94.2362C50.9124 94.3125 50.8877 94.3931 50.8735 94.4759C50.8468 94.6214 50.8326 94.769 50.8308 94.917C50.8303 95.1667 50.8678 95.4149 50.9423 95.653C51.0751 96.0582 51.2506 96.2572 51.2719 96.2428C51.2932 96.2284 51.1818 96.003 51.0964 95.6099C51.0193 95.2504 51.0193 94.8785 51.0964 94.519C51.1225 94.3752 51.1699 94.2625 51.2435 94.2553C51.2695 94.2553 51.279 94.2553 51.3051 94.3009C51.3278 94.3601 51.3422 94.4222 51.3478 94.4855C51.3686 94.6212 51.3805 94.7581 51.3834 94.8954C51.3912 95.1288 51.3769 95.3624 51.3407 95.5931C51.2863 95.8044 51.2452 96.019 51.2174 96.2356V96.2356Z" fill="#263238"/>
<path d="M51.338 96.1972C51.357 96.1804 51.1981 95.9575 50.8234 95.7633C50.6005 95.6487 50.3599 95.5733 50.112 95.5403C49.9666 95.5209 49.8196 95.5161 49.6733 95.5259C49.5807 95.5227 49.4888 95.543 49.406 95.5848C49.3231 95.6267 49.252 95.6889 49.199 95.7657C49.1755 95.8209 49.1679 95.8817 49.1772 95.9411C49.1864 96.0005 49.212 96.056 49.2512 96.1013C49.3074 96.166 49.373 96.2218 49.4456 96.2667C49.5711 96.3508 49.7087 96.4147 49.8535 96.4561C50.0963 96.528 50.353 96.5379 50.6005 96.4849C51.0226 96.3914 51.2076 96.1732 51.1886 96.1588C50.9875 96.2269 50.7824 96.2821 50.5744 96.3243C50.3531 96.3502 50.1288 96.3265 49.9175 96.2547C49.7943 96.2149 49.6776 96.1567 49.5713 96.0821C49.4504 96.003 49.3697 95.9047 49.4029 95.864C49.4408 95.8232 49.4868 95.791 49.5379 95.7695C49.589 95.748 49.644 95.7377 49.6994 95.7393C49.8319 95.7273 49.9652 95.7273 50.0978 95.7393C50.3241 95.7602 50.5462 95.8143 50.757 95.8999C51.1222 96.0606 51.3143 96.226 51.338 96.1972Z" fill="#263238"/>
<path d="M54.7484 81.254C54.7484 81.254 63.1291 78.0918 66.2119 78.5018C67.936 78.7415 70.6299 80.0601 70.8363 82.2945C71.0426 84.5289 70.5019 87.5137 67.5162 88.9689C64.5306 90.4241 52.6425 95.8183 49.8181 96.6406C46.9937 97.4629 39.9458 99.4168 39.9458 99.4168L37.2803 91.7163C37.2803 91.7163 51.8837 86.605 52.6544 86.0321C53.4251 85.4591 55.3768 84.6823 55.3768 84.6823L54.7484 81.254Z" fill="#263238"/>
<path d="M25.6362 82.3042L25.6955 82.2875L25.8639 82.2371C26.0109 82.1916 26.2291 82.1268 26.5137 82.0573C26.8594 81.9722 27.2104 81.9105 27.5642 81.8727C28.0328 81.8295 28.5043 81.8295 28.9729 81.8727C29.5382 81.9231 30.0969 82.0323 30.64 82.1988C30.9434 82.2909 31.2392 82.4071 31.5245 82.5464L32.4447 82.9875C33.6968 83.5916 35.0959 84.2126 36.5876 84.8071C39.5709 86.0059 42.4356 86.5908 44.4774 87.0583C45.5019 87.2981 46.3295 87.4779 46.901 87.6145L47.5579 87.7704L47.731 87.8111C47.7507 87.8134 47.7706 87.8134 47.7903 87.8111L47.7334 87.7919L47.5626 87.744C47.4132 87.7032 47.1951 87.6409 46.9105 87.569C46.3413 87.4227 45.5137 87.2237 44.4916 86.9864C42.4522 86.5069 39.5946 85.9171 36.6208 84.7136C35.1315 84.1191 33.7347 83.5149 32.4802 82.9012L31.5672 82.4553C31.2785 82.3145 30.9786 82.1982 30.6708 82.1077C30.1193 81.948 29.5524 81.8484 28.98 81.8104C28.5067 81.7663 28.0304 81.7663 27.5571 81.8104C27.2019 81.8522 26.85 81.9195 26.5042 82.0117C26.2196 82.0861 26.0014 82.1556 25.8544 82.2059L25.6908 82.2683L25.6362 82.3042Z" fill="#637B84"/>
<path d="M26.0774 81.1869C26.0774 81.2013 26.3311 81.1558 26.7414 81.1102C27.2754 81.0532 27.8129 81.038 28.3492 81.0647C28.8859 81.0934 29.4196 81.1647 29.9452 81.278C30.3484 81.3644 30.5926 81.4363 30.5974 81.4219C30.5448 81.3931 30.4891 81.3706 30.4314 81.3548C30.3199 81.314 30.1587 81.2661 29.9571 81.2157C28.9029 80.9494 27.8076 80.8924 26.7319 81.0479C26.5256 81.0767 26.362 81.1102 26.2576 81.1366C26.1957 81.1459 26.1352 81.1628 26.0774 81.1869V81.1869Z" fill="#637B84"/>
<path d="M58.2698 83.4932C58.2816 83.5076 58.5069 83.3254 58.9148 83.0737C59.4382 82.7467 59.9947 82.4775 60.5748 82.2705C61.155 82.0647 61.7552 81.9216 62.3653 81.8438C62.8396 81.7862 63.1265 81.7791 63.1265 81.7623C63.0579 81.7552 62.9888 81.7552 62.9202 81.7623C62.7325 81.7614 62.5449 81.7702 62.3582 81.7887C61.1175 81.9096 59.9249 82.3351 58.884 83.0281C58.6872 83.1624 58.5306 83.2679 58.4287 83.3638C58.3721 83.4022 58.319 83.4455 58.2698 83.4932Z" fill="#637B84"/>
<path d="M54.0677 94.9937L54.0036 95.0201L53.8139 95.1016C53.6432 95.1687 53.4013 95.2862 53.074 95.4132C52.4219 95.6746 51.4567 96.0342 50.2283 96.4441C47.7549 97.2617 44.1977 98.3021 39.9433 99.3858L39.9907 99.4121L37.4035 92.148L37.3774 92.2055L40.5836 90.8749L58.3244 83.4933C59.0477 82.7213 59.7117 82.0405 60.3354 81.4891C60.8626 81.0176 61.4255 80.5888 62.0191 80.2064C62.3926 79.969 62.7781 79.7513 63.174 79.5543L63.4847 79.4081L63.589 79.3553L63.4823 79.4009L63.1669 79.54C62.7667 79.7308 62.3772 79.9437 62.0002 80.1777C61.4025 80.5579 60.8348 80.9843 60.3022 81.4531C59.6761 82.0021 59.0074 82.6806 58.2817 83.4501C53.9586 85.2434 47.6102 87.8758 40.5314 90.803L37.3252 92.136L37.2849 92.1528L37.2991 92.1935C38.2216 94.7755 39.1014 97.2281 39.9077 99.4553V99.4889H39.9433C44.2119 98.398 47.7525 97.3456 50.2235 96.5137C51.4591 96.0941 52.4219 95.7297 53.0693 95.4588C53.3942 95.3293 53.636 95.2191 53.8044 95.1352L53.9918 95.0489L54.0677 94.9937Z" fill="#637B84"/>
<path d="M33.3698 54.2737C33.3698 54.2737 30.958 55.6786 30.4695 57.3352C30.166 58.3301 27.9249 71.1443 27.5692 73.6712C27.2135 76.1981 27.9629 78.0705 29.03 78.9096C30.0972 79.7487 33.3271 80.8635 33.3271 80.8635L37.8732 82.3522L39.1751 78.9959L34.8472 72.717L35.2669 68.4832L33.3698 54.2737Z" fill="url(#paint9_linear_639_165)"/>
<path d="M38.1104 52.0608L39.6139 50.9388C39.6139 50.9388 41.5727 52.9646 43.8232 52.7273C46.0737 52.49 47.4065 50.7446 47.4065 50.7446L54.1177 52.1279C54.5659 52.219 55.3888 52.5067 56.1737 53.6407C57.0488 54.9065 61.2012 60.5165 61.2012 60.5165H64.111C64.504 60.5163 64.8896 60.6248 65.2261 60.8301C65.5626 61.0355 65.8371 61.3299 66.02 61.6816C66.518 62.6406 67.1132 63.916 67.0563 64.4459C66.9567 65.3401 67.1275 67.8023 65.9394 68.5646C65.5647 68.8044 64.2153 69.538 63.1695 69.49C61.6281 69.4157 59.8353 68.603 58.8037 67.8742C57.9286 67.2556 55.8963 65.1195 55.1137 64.2781L54.6133 82.0765L37.0172 81.5706L33.3699 54.2736C33.3699 54.2736 37.9325 52.0608 38.1104 52.0608Z" fill="url(#paint10_linear_639_165)"/>
<path d="M55.1753 56.8292C55.1516 56.8292 55.1042 59.0348 55.0734 61.7559C55.0425 64.477 55.0354 66.685 55.0663 66.685C55.0971 66.685 55.1374 64.4818 55.1682 61.7583C55.1991 59.0348 55.2014 56.8292 55.1753 56.8292Z" fill="#263238"/>
<path d="M31.2402 71.2162C31.2402 71.2162 31.3896 71.2402 31.6552 71.2929C32.0302 71.3669 32.3954 71.4843 32.7437 71.6429C33.2617 71.8777 33.7498 72.1747 34.1974 72.5276C34.745 72.9635 35.2558 73.4447 35.7246 73.966C36.2298 74.515 36.6875 75.0593 37.1214 75.5411C37.4986 75.9739 37.8984 76.3861 38.319 76.7758C38.6031 77.0358 38.9041 77.2761 39.2202 77.495C39.3293 77.5766 39.4217 77.6293 39.4834 77.6677C39.5123 77.6898 39.5443 77.7076 39.5783 77.7204C39.5524 77.6948 39.5238 77.6723 39.4929 77.6533C39.436 77.6077 39.3482 77.5502 39.2391 77.4663C38.9331 77.2336 38.6402 76.9839 38.3617 76.7183C38.006 76.385 37.6099 75.9607 37.176 75.4764C36.742 74.9921 36.2914 74.4455 35.7839 73.8941C35.3111 73.3708 34.7946 72.8895 34.2401 72.4557C33.7894 72.1044 33.2971 71.8112 32.7746 71.583C32.4191 71.429 32.0464 71.3195 31.6647 71.257C31.5619 71.2389 31.4582 71.2269 31.3541 71.221C31.3164 71.2148 31.2782 71.2132 31.2402 71.2162Z" fill="#263238"/>
<path d="M30.8416 70.0103C30.8416 70.0271 31.1072 70.0654 31.5269 70.1829C32.0726 70.3359 32.5958 70.5616 33.0826 70.8542C33.5685 71.149 34.0142 71.5069 34.4082 71.9186C34.7118 72.2351 34.8825 72.4556 34.8825 72.4461C34.8548 72.3879 34.8206 72.3332 34.7805 72.283C34.6804 72.1393 34.571 72.0024 34.4533 71.8731C33.6769 71.0087 32.6628 70.3985 31.5411 70.1206C31.3727 70.0769 31.2016 70.0448 31.0289 70.0247C30.9671 70.0136 30.9043 70.0088 30.8416 70.0103Z" fill="#263238"/>
<g opacity="0.3">
<path d="M63.5891 66.8865C62.6594 67.143 61.5401 65.7884 60.6935 64.9397C60.2548 64.4986 59.7971 64.0287 59.6335 63.4246C59.5194 62.9159 59.5709 62.3836 59.7805 61.907C59.9365 61.4776 60.1444 61.0694 60.3995 60.6915C60.3212 61.4108 60.1433 62.5423 60.3876 63.4605C60.5892 64.2277 61.0706 64.8367 61.5733 65.4144C62.0761 65.9922 62.759 66.6683 63.5819 66.8865" fill="black"/>
</g>
<path d="M59.6075 66.112C59.6265 66.112 59.5174 65.8004 59.4297 65.2897C59.3805 64.9908 59.352 64.6888 59.3443 64.3859C59.3397 64.0153 59.3643 63.6449 59.4178 63.2783C59.4793 62.913 59.5689 62.5531 59.6858 62.2018C59.7855 61.9155 59.9051 61.6367 60.0439 61.3675C60.281 60.9096 60.4779 60.6483 60.4613 60.6483C60.4075 60.7011 60.3598 60.7598 60.319 60.8233C60.2643 60.8931 60.2136 60.9659 60.1672 61.0415C60.1021 61.139 60.0419 61.2398 59.987 61.3436C59.8382 61.6107 59.7113 61.8898 59.6075 62.1779C59.354 62.8873 59.2365 63.6391 59.2613 64.3931C59.2716 64.7 59.3073 65.0056 59.368 65.3065C59.3894 65.436 59.4226 65.5462 59.4486 65.6517C59.4696 65.7377 59.495 65.8225 59.5245 65.9059C59.5457 65.9771 59.5735 66.0461 59.6075 66.112V66.112Z" fill="#263238"/>
<path d="M46.6733 51.4327C46.6615 51.4566 46.8678 51.5789 47.0812 51.7731C47.2947 51.9673 47.4417 52.1615 47.4654 52.1471C47.3897 51.9784 47.2803 51.8273 47.1439 51.7036C47.0076 51.5798 46.8474 51.4859 46.6733 51.4279V51.4327Z" fill="#263238"/>
<path d="M44.8426 52.5092C44.8212 52.5283 44.9991 52.7201 45.1414 53.003C45.2837 53.2859 45.3382 53.5424 45.3643 53.54C45.3776 53.3372 45.3278 53.1352 45.222 52.9623C45.1433 52.7762 45.0111 52.6183 44.8426 52.5092V52.5092Z" fill="#263238"/>
<path d="M41.7077 53.6239C41.791 53.454 41.8584 53.2766 41.9093 53.0941C41.9862 52.9208 42.0458 52.7401 42.0871 52.5547C41.9645 52.7032 41.8747 52.8765 41.8239 53.0629C41.7443 53.2388 41.7046 53.4305 41.7077 53.6239V53.6239Z" fill="#263238"/>
<path d="M39.6895 52.6601C39.7155 52.6601 39.7843 52.3556 39.9835 52.0272C40.1827 51.6987 40.4175 51.4925 40.4009 51.4709C40.1895 51.5881 40.0171 51.7657 39.9053 51.9816C39.7676 52.1807 39.6924 52.4171 39.6895 52.6601V52.6601Z" fill="#263238"/>
<path d="M33.8961 58.4235C33.87 58.4235 34.1688 60.8592 34.5601 63.8536C34.9514 66.848 35.2905 69.2742 35.3166 69.2718C35.3427 69.2694 35.0439 66.8384 34.6502 63.8416C34.2566 60.8449 33.9198 58.4211 33.8961 58.4235Z" fill="#263238"/>
<path d="M60.2643 62.3696C60.2563 62.4493 60.2563 62.5297 60.2643 62.6094C60.2698 62.7075 60.2817 62.8052 60.2999 62.9018C60.2999 62.9594 60.3212 63.0193 60.3307 63.0841C60.3402 63.1488 60.3639 63.2135 60.3805 63.2854C60.4672 63.6153 60.5839 63.9363 60.7291 64.2444C60.9095 64.6188 61.1256 64.9744 61.3742 65.3065C61.6274 65.6359 61.9161 65.9358 62.235 66.2007C62.4966 66.4151 62.7863 66.5918 63.0958 66.7257C63.1622 66.7545 63.2263 66.7833 63.2855 66.8049L63.4634 66.8552L63.6175 66.8984C63.665 66.8984 63.71 66.8984 63.748 66.9151C63.8303 66.9288 63.9135 66.936 63.997 66.9367C63.6972 66.8769 63.404 66.787 63.1219 66.6682C62.8223 66.5275 62.5418 66.3487 62.2872 66.136C61.9763 65.8713 61.6941 65.5739 61.4453 65.2489C61.2003 64.9225 60.9852 64.5742 60.8026 64.2084C60.6573 63.9065 60.5368 63.593 60.4422 63.2711C60.3669 62.974 60.3076 62.6731 60.2643 62.3696Z" fill="#263238"/>
<g opacity="0.3">
<path d="M34.4627 82.7046C33.7157 82.3402 33.5449 81.3621 33.4691 80.5277L32.8003 73.1941C32.696 72.0433 32.6438 70.7319 33.4477 69.9096C34.1781 69.1592 35.3449 69.1137 36.3859 69.116C42.8244 69.1352 48.5112 69.327 54.9496 69.3558L54.6224 80.7435L34.4627 82.7046Z" fill="black"/>
</g>
<path d="M57.7243 71.1083L57.039 84.3157C57.0256 84.5607 56.9198 84.7913 56.7433 84.9599C56.5669 85.1285 56.3332 85.2223 56.0904 85.2219L35.2809 85.2602C35.0373 85.2605 34.803 85.1661 34.6264 84.9965C34.4498 84.8269 34.3445 84.5952 34.3323 84.3492L33.5379 71.3672C33.5118 70.8278 33.8912 70.1086 34.4319 70.099H56.7639C56.8937 70.0971 57.0226 70.1223 57.1424 70.1729C57.2623 70.2235 57.3706 70.2984 57.4606 70.393C57.5507 70.4876 57.6206 70.5999 57.6659 70.723C57.7113 70.846 57.7311 70.9772 57.7243 71.1083Z" fill="#E0E0E0"/>
<path d="M57.7244 71.1082C57.7255 71.0923 57.7255 71.0763 57.7244 71.0603C57.7285 71.0108 57.7285 70.9611 57.7244 70.9117C57.6983 70.7204 57.6156 70.5416 57.4873 70.3986C57.3904 70.2933 57.2712 70.2113 57.1387 70.1589C56.978 70.0995 56.8067 70.075 56.6359 70.0869H55.3696L47.3067 70.0726H35.3475H34.4866C34.3356 70.0656 34.186 70.1049 34.0574 70.1852C33.9309 70.2663 33.8227 70.3733 33.7396 70.4993C33.5701 70.7501 33.4792 71.0467 33.4788 71.3504C33.4954 71.6453 33.512 71.9425 33.5309 72.2398C33.6021 73.4289 33.6756 74.6412 33.7515 75.8767C33.9032 78.3484 34.0598 80.9113 34.2258 83.5269L34.2566 84.0063C34.2609 84.1724 34.2743 84.3381 34.2969 84.5026C34.3299 84.6702 34.4048 84.8264 34.5144 84.9565C34.6239 85.0866 34.7646 85.1862 34.923 85.2458C35.0798 85.3008 35.2459 85.3236 35.4115 85.3129H36.8344H40.5718L47.6339 85.2962L54.0368 85.2818H55.5119H55.8723C55.9926 85.2849 56.113 85.2809 56.2328 85.2698C56.4743 85.2289 56.6922 85.0991 56.8446 84.9054C57.0005 84.7194 57.0848 84.4827 57.0818 84.2389L57.1174 83.558C57.1387 83.1073 57.1624 82.6686 57.1838 82.2395C57.3569 78.804 57.4944 76.0229 57.5916 74.0882C57.6391 73.1293 57.6746 72.3837 57.6984 71.8754C57.6984 71.6357 57.7173 71.4319 57.7244 71.3C57.7316 71.1682 57.7244 71.1034 57.7244 71.1034C57.7244 71.1034 57.7244 71.1706 57.7102 71.3C57.696 71.4295 57.6912 71.6237 57.6746 71.8754C57.6462 72.3837 57.6059 73.1293 57.5513 74.0882C57.4494 76.0062 57.3 78.792 57.115 82.2251C57.0936 82.6542 57.0699 83.0953 57.0462 83.5436C57.0462 83.769 57.0225 83.9968 57.0083 84.2269C57.0143 84.456 56.9363 84.6794 56.7892 84.8538C56.642 85.0282 56.4362 85.1414 56.2115 85.1715C56.0946 85.1788 55.9774 85.1788 55.8605 85.1715H54.025H47.6221H40.5599H36.8225H35.3996C35.2454 85.1824 35.0906 85.162 34.9443 85.1116C34.7999 85.0568 34.6717 84.9658 34.5717 84.8471C34.4717 84.7284 34.4032 84.5859 34.3728 84.4331C34.3467 84.2845 34.3467 84.1118 34.3349 83.9536L34.304 83.4741C34.1428 80.8538 33.9862 78.2957 33.8297 75.824C33.7538 74.5901 33.6795 73.3778 33.6068 72.1871C33.5902 71.8898 33.5712 71.5949 33.5546 71.3C33.5536 71.0153 33.6361 70.7366 33.7918 70.4993C33.8611 70.3794 33.9606 70.2803 34.0802 70.2121C34.1997 70.1438 34.3351 70.1089 34.4724 70.1109H35.3214H47.2782L55.3411 70.0965H56.6051C56.773 70.0823 56.942 70.1043 57.1008 70.1613C57.2316 70.2131 57.3485 70.2952 57.4422 70.401C57.5741 70.5396 57.6616 70.715 57.6936 70.9045C57.7075 70.9718 57.7178 71.0398 57.7244 71.1082V71.1082Z" fill="#263238"/>
<path d="M44.2427 77.5503C44.2427 77.7954 44.3146 78.035 44.4493 78.2389C44.584 78.4427 44.7755 78.6015 44.9995 78.6954C45.2236 78.7892 45.4701 78.8137 45.7079 78.7659C45.9457 78.7181 46.1642 78.6 46.3357 78.4267C46.5071 78.2533 46.6239 78.0325 46.6712 77.7921C46.7185 77.5516 46.6942 77.3024 46.6014 77.0759C46.5086 76.8495 46.3515 76.6559 46.1499 76.5197C45.9482 76.3835 45.7112 76.3108 45.4687 76.3108C45.1437 76.3114 44.8323 76.4422 44.6025 76.6745C44.3727 76.9068 44.2433 77.2217 44.2427 77.5503V77.5503Z" fill="white"/>
<path d="M44.243 77.5501C44.243 77.5501 44.243 77.4399 44.2975 77.2529C44.3706 76.9883 44.5282 76.7557 44.7457 76.5912C44.8944 76.4798 45.0664 76.4044 45.2485 76.3706C45.4686 76.3307 45.6954 76.3546 45.9027 76.4394C46.11 76.5242 46.2893 76.6666 46.4199 76.8501C46.573 77.0581 46.6561 77.3101 46.6571 77.5693C46.654 77.8238 46.571 78.0706 46.4199 78.2742C46.2832 78.4664 46.0923 78.6126 45.8721 78.6937C45.6729 78.7682 45.4575 78.7873 45.2485 78.7488C45.0664 78.7151 44.8944 78.6397 44.7457 78.5283C44.5282 78.3638 44.3706 78.1311 44.2975 77.8666C44.2477 77.6796 44.2524 77.5693 44.243 77.5693C44.2393 77.5956 44.2393 77.6222 44.243 77.6484C44.2412 77.7291 44.25 77.8098 44.269 77.8882C44.3236 78.124 44.4444 78.3388 44.6169 78.5068C44.7894 78.6748 45.0062 78.7888 45.2413 78.8352C45.4631 78.8788 45.6925 78.8614 45.9053 78.7848C46.1423 78.7 46.3481 78.5445 46.4958 78.3389C46.6573 78.1196 46.7446 77.8535 46.7446 77.5801C46.7446 77.3067 46.6573 77.0406 46.4958 76.8213C46.3954 76.6858 46.2692 76.5718 46.1246 76.4862C45.9801 76.4006 45.8201 76.345 45.654 76.3226C45.4879 76.3003 45.3191 76.3117 45.1574 76.3562C44.9958 76.4006 44.8445 76.4773 44.7125 76.5816C44.4882 76.7573 44.3314 77.0065 44.269 77.2864C44.25 77.3648 44.2412 77.4454 44.243 77.5262C44.2426 77.5341 44.2426 77.5422 44.243 77.5501V77.5501Z" fill="#263238"/>
<path d="M57.0249 72.5707C56.9988 72.5707 56.8968 74.7883 56.7877 77.5261C56.6786 80.264 56.6241 82.4864 56.6478 82.4864C56.6715 82.4864 56.7759 80.2688 56.885 77.5309C56.994 74.7931 57.0486 72.5707 57.0249 72.5707Z" fill="#263238"/>
<path d="M63.2785 55.3405C63.3994 55.235 62.8659 53.1612 62.8659 53.1612C62.8659 53.1612 64.2887 50.8333 64.3148 50.0829C64.3409 49.3325 63.7575 47.791 63.7575 47.791L59.7095 46.7385C59.7095 46.7385 58.4075 49.1839 58.1491 50.0446C57.8906 50.9052 58.5949 53.8373 58.5949 53.8373L59.2802 55.3405C59.2802 55.3405 61.3481 56.9923 63.2785 55.3405Z" fill="#FFBE9D"/>
<path d="M64.3147 50.5311C64.4736 50.2365 64.6161 49.9332 64.7416 49.6225C64.9977 49.0064 65.3131 48.4046 64.7416 48.0618C64.653 48.002 64.5526 47.9623 64.4474 47.9453C64.3423 47.9284 64.2347 47.9345 64.1321 47.9635C64.1321 47.9635 64.2198 47.4456 63.9139 47.2443C63.8253 47.1877 63.7246 47.1535 63.6203 47.1443C63.5159 47.1351 63.4109 47.1513 63.3139 47.1915C63.3139 47.1915 63.4088 46.4723 62.9701 46.1534C62.8045 46.0433 62.612 45.9819 62.4139 45.976C62.2159 45.9701 62.0201 46.0199 61.8484 46.1199C61.8484 46.1199 62.197 42.9265 62.2255 42.7635C62.3369 42.1425 62.1093 41.5935 61.4998 41.747C61.2745 41.8021 61.1512 42.0419 60.888 43.0823C60.6247 44.1228 60.2026 45.8969 60.2026 45.8969C60.2026 45.8969 59.4912 47.146 59.1568 47.8148C58.8224 48.4837 58.156 50.0348 58.1015 50.452C57.9568 51.5093 58.5758 52.9094 58.5758 52.9094L62.88 53.1611C62.88 53.1611 64.144 50.8332 64.3147 50.5311Z" fill="#FFBE9D"/>
<path d="M64.0396 48.1002C63.9161 48.2511 63.8043 48.4114 63.7052 48.5797C63.6056 48.7379 63.4894 48.9129 63.3661 49.1047C63.295 49.2076 63.2331 49.3168 63.1811 49.4308C63.1208 49.56 63.1026 49.7052 63.129 49.8455C63.1422 49.919 63.1744 49.9876 63.2223 50.0444C63.2702 50.1012 63.3321 50.1443 63.4017 50.1692C63.532 50.2018 63.6696 50.1848 63.7882 50.1212C63.8889 50.0699 63.9849 50.0098 64.0752 49.9414L64.3123 49.7664C64.4522 49.6561 64.5495 49.5602 64.6325 49.4931C64.7155 49.426 64.7439 49.3852 64.7392 49.3804C64.5749 49.4823 64.4166 49.5936 64.2649 49.7137C64.1019 49.8382 63.929 49.9489 63.7479 50.0445C63.6482 50.0953 63.534 50.1089 63.4254 50.0829C63.3706 50.0633 63.3221 50.0291 63.2849 49.984C63.2478 49.9388 63.2234 49.8844 63.2143 49.8264C63.1902 49.705 63.2052 49.5789 63.257 49.4668C63.3075 49.3569 63.3662 49.2511 63.4325 49.1503C63.5487 48.9537 63.6578 48.7739 63.755 48.6157C63.8629 48.4516 63.9581 48.2792 64.0396 48.1002V48.1002Z" fill="#EB996E"/>
<path d="M60.5202 48.4815C60.559 48.2526 60.5436 48.0176 60.4752 47.7958C60.4366 47.5679 60.3447 47.3526 60.2072 47.1677C60.1835 47.1677 60.302 47.4578 60.3874 47.8174C60.4728 48.177 60.4823 48.4815 60.5202 48.4815Z" fill="#EB996E"/>
<path d="M58.8035 49.4237C59.2001 49.0344 59.7003 48.7703 60.2429 48.6637C60.7829 48.5591 61.3354 48.5381 61.8816 48.6014C62.3203 48.6397 62.8302 48.7548 63.0199 49.1504C63.2096 49.5459 62.9772 50.0854 62.5907 50.3203C62.1816 50.524 61.7201 50.5944 61.2698 50.5217C60.8232 50.4472 60.3692 50.4287 59.9181 50.4665" fill="#FFBE9D"/>
<path d="M59.918 50.4569C59.918 50.4569 60.0389 50.4569 60.2571 50.4569C60.5659 50.4705 60.8738 50.5001 61.1796 50.5456C61.3943 50.5731 61.6109 50.582 61.827 50.572C62.0783 50.5645 62.325 50.5023 62.5503 50.3898C62.8046 50.2562 62.9983 50.0287 63.091 49.7545C63.141 49.6089 63.1509 49.4522 63.1195 49.3014C63.0842 49.1459 63.0012 49.0058 62.8823 48.901C62.6445 48.7118 62.3564 48.5983 62.0547 48.5749C61.7839 48.5433 61.5115 48.5265 61.2389 48.5246C60.7743 48.517 60.3118 48.5883 59.8706 48.7356C59.5726 48.8357 59.2942 48.9874 59.0477 49.1839C58.9822 49.2371 58.9197 49.294 58.8603 49.3541C58.82 49.3973 58.801 49.4212 58.8034 49.4236C58.8058 49.426 58.8935 49.3397 59.069 49.2103C59.3196 49.0298 59.5964 48.8899 59.8895 48.7955C60.3258 48.6608 60.7805 48.5977 61.2365 48.6085C61.506 48.6131 61.7752 48.6315 62.0428 48.6637C62.3267 48.6861 62.5979 48.7919 62.823 48.9681C62.9277 49.0613 63.0007 49.1854 63.0317 49.3229C63.0599 49.4579 63.0509 49.598 63.0056 49.7281C62.921 49.9801 62.7446 50.1901 62.5124 50.3155C62.2974 50.4241 62.0623 50.4862 61.8223 50.4977C61.6103 50.5081 61.3979 50.5025 61.1867 50.4809C60.8784 50.4409 60.5679 50.4209 60.2571 50.4209C60.1722 50.424 60.0874 50.432 60.0034 50.4449C59.9465 50.4481 59.918 50.4521 59.918 50.4569Z" fill="#EB996E"/>
<path d="M64.0088 48.1505C63.5558 48.8458 63.1551 49.6105 62.7733 50.3489C62.6816 50.5736 62.5327 50.7697 62.3417 50.9171C62.178 51.0178 61.7725 50.8332 61.5923 50.7709L62.8349 47.9108" fill="#FFBE9D"/>
<path d="M62.8348 47.9108C62.7909 47.978 62.7535 48.0495 62.7234 48.1241C62.6522 48.2776 62.5621 48.479 62.4483 48.7235C62.2111 49.2317 61.9028 49.9462 61.5495 50.7517L61.5305 50.7973L61.5779 50.814C61.7198 50.8715 61.8647 50.9211 62.0119 50.9627C62.0741 50.9786 62.1376 50.9883 62.2016 50.9914C62.2354 50.9972 62.2699 50.9972 62.3036 50.9914C62.3371 50.9827 62.3686 50.9672 62.3961 50.9459C62.4958 50.8721 62.581 50.7803 62.6475 50.675C62.7755 50.4712 62.8656 50.2698 62.9652 50.0804C63.1621 49.6992 63.3399 49.3612 63.4965 49.0759C63.653 48.7906 63.781 48.5653 63.8735 48.4094C63.9242 48.3329 63.9694 48.2528 64.0087 48.1697C63.9463 48.2401 63.8908 48.3164 63.8427 48.3974C63.7431 48.5485 63.6055 48.7714 63.4395 49.0495C63.2735 49.3276 63.0933 49.6681 62.8917 50.0469C62.7898 50.2339 62.6949 50.4424 62.574 50.6318C62.5105 50.7261 62.4301 50.8075 62.3368 50.8716C62.2888 50.8968 62.2359 50.9112 62.1819 50.9137C62.1278 50.9162 62.0739 50.9067 62.0238 50.886C61.8791 50.8448 61.7366 50.796 61.5969 50.7397L61.623 50.8021C61.9716 49.9917 62.2775 49.2749 62.4933 48.7594C62.5953 48.5197 62.6807 48.3063 62.7447 48.1481C62.7818 48.0719 62.812 47.9925 62.8348 47.9108Z" fill="#EB996E"/>
<path d="M63.1693 47.0598C62.7709 48.0747 62.3757 49.088 61.9836 50.0998C61.9101 50.3201 61.8012 50.5266 61.6611 50.7111C61.589 50.8015 61.4964 50.8729 61.3911 50.9193C61.2858 50.9656 61.1709 50.9855 61.0564 50.9772C60.9031 50.9366 60.7676 50.8455 60.6714 50.7183C60.5752 50.591 60.5237 50.4349 60.5252 50.2748C60.5347 49.9547 60.6106 49.6402 60.7481 49.3518C61.1081 48.4282 61.3959 47.4775 61.6089 46.5084" fill="#FFBE9D"/>
<path d="M61.5972 46.5084C61.5829 46.5372 61.5725 46.5679 61.5664 46.5995L61.4952 46.868C61.4336 47.1078 61.3434 47.4386 61.2154 47.851C61.0873 48.2633 60.9261 48.75 60.7198 49.2894C60.5924 49.5648 60.5076 49.8583 60.4684 50.1597C60.4562 50.3247 60.4873 50.4901 60.5585 50.6392C60.6314 50.7988 60.7597 50.9258 60.919 50.9964C61.0012 51.0263 61.0888 51.0381 61.1759 51.0311C61.263 51.0241 61.3476 50.9984 61.4241 50.9556C61.5683 50.8772 61.6901 50.7624 61.7774 50.6224C61.9217 50.3586 62.0431 50.0827 62.1403 49.7977C62.3466 49.2678 62.5315 48.7908 62.6881 48.3832C62.8446 47.9756 62.9584 47.664 63.0485 47.4242L63.1434 47.1629C63.1647 47.103 63.1742 47.0718 63.1695 47.0694C63.1528 47.0969 63.1385 47.1257 63.1268 47.1557C63.0983 47.2252 63.0604 47.3092 63.0177 47.4122C62.9205 47.652 62.7805 47.966 62.6288 48.3568C62.477 48.7476 62.2754 49.2367 62.0644 49.7641C61.9644 50.0422 61.8439 50.3122 61.7039 50.572C61.6246 50.7003 61.5134 50.8053 61.3814 50.8765C61.3168 50.9139 61.245 50.9367 61.1709 50.9433C61.0968 50.9499 61.0222 50.9402 60.9522 50.9149C60.8139 50.8536 60.7031 50.7425 60.6415 50.6032C60.5743 50.4675 60.5456 50.3157 60.5585 50.1645C60.594 49.8725 60.674 49.5878 60.7956 49.3206C60.9996 48.786 61.1561 48.2945 61.2699 47.8821C61.3838 47.4698 61.4715 47.1246 61.5237 46.8896C61.5474 46.7721 61.5664 46.6786 61.5782 46.6163C61.588 46.581 61.5943 46.5449 61.5972 46.5084V46.5084Z" fill="#EB996E"/>
<path d="M65.9271 62.7725C65.8204 62.3697 63.0814 54.1874 63.0814 54.1874L58.5566 53.6407L60.4064 60.6915C60.4064 60.6915 60.1171 62.48 60.4064 63.5397C60.6957 64.5993 63.015 67.4858 64.2007 66.7906C65.3864 66.0953 66.0362 63.1753 65.9271 62.7725Z" fill="#FFBE9D"/>
<path d="M60.3994 52.9166C60.487 52.9274 60.5759 52.9159 60.6579 52.8831C60.861 52.8193 61.0474 52.7104 61.2033 52.5642C61.3615 52.4202 61.4848 52.2414 61.5638 52.0416C61.6038 51.9622 61.6234 51.874 61.6207 51.785C61.5076 52.0522 61.3469 52.296 61.1464 52.5043C60.9249 52.6873 60.6716 52.8272 60.3994 52.9166V52.9166Z" fill="#EB996E"/>
<defs>
<linearGradient id="paint0_linear_639_165" x1="90.9935" y1="51.9696" x2="104.184" y2="51.9696" gradientUnits="userSpaceOnUse">
<stop stop-color="#E07AA4"/>
<stop offset="1" stop-color="#F6790B"/>
</linearGradient>
<linearGradient id="paint1_linear_639_165" x1="104.563" y1="51.9697" x2="115.538" y2="51.9697" gradientUnits="userSpaceOnUse">
<stop stop-color="#E07AA4"/>
<stop offset="1" stop-color="#F6790B"/>
</linearGradient>
<linearGradient id="paint2_linear_639_165" x1="89.4805" y1="33.1666" x2="120.222" y2="33.1666" gradientUnits="userSpaceOnUse">
<stop stop-color="#E07AA4"/>
<stop offset="1" stop-color="#F6790B"/>
</linearGradient>
<linearGradient id="paint3_linear_639_165" x1="99.2746" y1="32.7352" x2="110.629" y2="32.7352" gradientUnits="userSpaceOnUse">
<stop stop-color="#E07AA4"/>
<stop offset="1" stop-color="#F6790B"/>
</linearGradient>
<linearGradient id="paint4_linear_639_165" x1="82.0913" y1="74.7403" x2="94.8639" y2="74.7403" gradientUnits="userSpaceOnUse">
<stop stop-color="#E07AA4"/>
<stop offset="1" stop-color="#F6790B"/>
</linearGradient>
<linearGradient id="paint5_linear_639_165" x1="84.4099" y1="74.7303" x2="92.5796" y2="74.7303" gradientUnits="userSpaceOnUse">
<stop stop-color="#E07AA4"/>
<stop offset="1" stop-color="#F6790B"/>
</linearGradient>
<linearGradient id="paint6_linear_639_165" x1="38.582" y1="42.0275" x2="38.6366" y2="42.0275" gradientUnits="userSpaceOnUse">
<stop stop-color="#E07AA4"/>
<stop offset="1" stop-color="#F6790B"/>
</linearGradient>
<linearGradient id="paint7_linear_639_165" x1="32.127" y1="98.7816" x2="44.4443" y2="98.7816" gradientUnits="userSpaceOnUse">
<stop stop-color="#E07AA4"/>
<stop offset="1" stop-color="#F6790B"/>
</linearGradient>
<linearGradient id="paint8_linear_639_165" x1="47.7075" y1="97.4104" x2="60.186" y2="97.4104" gradientUnits="userSpaceOnUse">
<stop stop-color="#E07AA4"/>
<stop offset="1" stop-color="#F6790B"/>
</linearGradient>
<linearGradient id="paint9_linear_639_165" x1="27.4791" y1="68.313" x2="39.1751" y2="68.313" gradientUnits="userSpaceOnUse">
<stop stop-color="#E07AA4"/>
<stop offset="1" stop-color="#F6790B"/>
</linearGradient>
<linearGradient id="paint10_linear_639_165" x1="33.3699" y1="66.4213" x2="67.0587" y2="66.4213" gradientUnits="userSpaceOnUse">
<stop stop-color="#E07AA4"/>
<stop offset="1" stop-color="#F6790B"/>
</linearGradient>
</defs>
</svg>
