<svg width="150" height="112" viewBox="0 0 150 112" fill="none" xmlns="http://www.w3.org/2000/svg">
<rect width="150" height="112" fill="white"/>
<g clip-path="url(#clip0_639_162)">
<path d="M19.2539 102.839V109.428H20.7665C20.6872 108.734 20.6872 108.034 20.7665 107.341C20.9102 106.567 22.5534 104.567 22.5037 102.85L19.2539 102.839Z" fill="#EBEBEB"/>
<path d="M31.3545 102.839V109.428H32.8671C32.7878 108.734 32.7878 108.034 32.8671 107.341C33.0108 106.567 34.654 104.567 34.6043 102.85L31.3545 102.839Z" fill="#E0E0E0"/>
<path d="M43.1992 102.839V109.428H41.684C41.7619 108.734 41.7619 108.034 41.684 107.341C41.5377 106.567 39.8971 104.567 39.9441 102.85L43.1992 102.839Z" fill="#EBEBEB"/>
<path d="M53.6696 102.839V109.428H52.157C52.2349 108.734 52.2349 108.034 52.157 107.341C52.0134 106.567 50.3702 104.567 50.4198 102.85L53.6696 102.839Z" fill="#E0E0E0"/>
<path d="M54.4639 70.3523H18.2246V103.049H54.4639V70.3523Z" fill="#F5F5F5"/>
<path d="M44.7014 70.3523L44.9705 103.049H54.464V70.3523H44.7014Z" fill="#E0E0E0"/>
<path d="M43.1208 72.7566H19.8547V81.0772H43.1208V72.7566Z" fill="#EBEBEB"/>
<path d="M43.1208 82.7361H19.8547V91.0567H43.1208V82.7361Z" fill="#EBEBEB"/>
<path d="M43.1208 92.7157H19.8547V101.036H43.1208V92.7157Z" fill="#EBEBEB"/>
<path d="M28.7737 60.9583L27.7705 70.313H40.6288L41.6946 60.9583H28.7737Z" fill="#E0E0E0"/>
<path d="M29.3039 61.6301L28.3269 69.8169H39.9312L40.869 61.6301H29.3039Z" fill="white"/>
<path d="M31.2554 63.0055L30.6545 68.4388H37.9771L38.3533 63.0055H31.2554Z" fill="#EBEBEB"/>
<path d="M41.2347 64.9873L43.8916 70.3524L40.6287 70.313L41.2347 64.9873Z" fill="#EBEBEB"/>
<path d="M32.3395 77.3527C32.34 77.522 32.2905 77.6877 32.1973 77.8288C32.104 77.9699 31.9712 78.0799 31.8156 78.1451C31.66 78.2103 31.4887 78.2276 31.3233 78.1949C31.158 78.1622 31.006 78.0809 30.8866 77.9613C30.7672 77.8417 30.6859 77.6893 30.6528 77.5232C30.6197 77.3572 30.6364 77.185 30.7008 77.0285C30.7652 76.872 30.8743 76.7382 31.0145 76.644C31.1546 76.5499 31.3193 76.4996 31.4879 76.4996C31.7133 76.4996 31.9295 76.5894 32.0892 76.7493C32.2488 76.9092 32.3388 77.1262 32.3395 77.3527V77.3527Z" fill="#E0E0E0"/>
<path d="M32.3395 87.4319C32.3395 87.6011 32.2896 87.7665 32.196 87.9073C32.1024 88.048 31.9694 88.1576 31.8138 88.2224C31.6582 88.2872 31.4869 88.3041 31.3217 88.2711C31.1565 88.2381 31.0048 88.1566 30.8857 88.0369C30.7666 87.9172 30.6855 87.7648 30.6526 87.5988C30.6197 87.4328 30.6366 87.2608 30.7011 87.1044C30.7655 86.948 30.8747 86.8144 31.0147 86.7204C31.1548 86.6264 31.3194 86.5762 31.4879 86.5762C31.5998 86.5758 31.7107 86.5977 31.8142 86.6406C31.9177 86.6835 32.0117 86.7465 32.0908 86.826C32.17 86.9056 32.2327 87 32.2754 87.104C32.3181 87.208 32.3399 87.3194 32.3395 87.4319V87.4319Z" fill="#E0E0E0"/>
<path d="M32.3395 97.5085C32.3395 97.6778 32.2896 97.8432 32.196 97.9839C32.1024 98.1246 31.9694 98.2343 31.8138 98.2991C31.6582 98.3638 31.4869 98.3808 31.3217 98.3478C31.1565 98.3147 31.0048 98.2333 30.8857 98.1136C30.7666 97.9939 30.6855 97.8414 30.6526 97.6755C30.6197 97.5095 30.6366 97.3374 30.7011 97.1811C30.7655 97.0247 30.8747 96.8911 31.0147 96.797C31.1548 96.703 31.3194 96.6528 31.4879 96.6528C31.7137 96.6528 31.9304 96.743 32.0901 96.9035C32.2498 97.0639 32.3395 97.2816 32.3395 97.5085Z" fill="#E0E0E0"/>
<path d="M43.0844 17.2002L22.5378 16.998L23.1126 43.9049L43.6565 43.981L43.0844 17.2002Z" fill="#E0E0E0"/>
<path d="M41.7598 18.3998L23.7734 17.9299L24.2933 42.3327L42.2745 42.5532L41.7598 18.3998Z" fill="#FAFAFA"/>
<path d="M38.6903 22.0454L26.7568 21.8459L27.12 38.9019L39.043 38.6447L38.6903 22.0454Z" fill="#EBEBEB"/>
<path d="M27.12 38.9019L38.8575 29.8831L26.7568 21.8459L27.12 38.9019Z" fill="#F5F5F5"/>
<path d="M131.501 3.17586L113.475 3L113.977 26.6022L132 26.6705L131.501 3.17586Z" fill="#E0E0E0"/>
<path d="M130.336 4.2285L114.557 3.81641L115.014 25.2243L130.79 25.4185L130.336 4.2285Z" fill="#FAFAFA"/>
<path d="M127.642 7.42519L117.175 7.25195L117.493 22.2133L127.953 21.9876L127.642 7.42519Z" fill="#EBEBEB"/>
<path d="M117.493 22.2133L127.791 14.3022L117.175 7.25195L117.493 22.2133Z" fill="#F5F5F5"/>
<path d="M111.307 91.9203C111.231 92.1513 113.92 102.419 113.92 102.419L115.764 102.034L113.227 91.9203H111.307Z" fill="#EBEBEB"/>
<path d="M125.6 90.453L121.911 102.419H124.064L127.598 91.3008L125.6 90.453Z" fill="#F5F5F5"/>
<path d="M128.98 88.5999L124.753 102.419H126.906L130.979 89.4503L128.98 88.5999Z" fill="#EBEBEB"/>
<path d="M112.613 101.569L114.766 109.058H125.6L127.598 101.569H112.613Z" fill="#E0E0E0"/>
<path d="M118.201 101.572C118.192 101.546 118.184 101.52 118.178 101.493L118.12 101.265C118.071 101.055 118.003 100.758 117.914 100.38L117.169 97.1095L114.737 86.2034L114.803 86.2586H112.906L112.971 86.1746C113.935 90.4661 114.8 94.3114 115.419 97.0885C115.722 98.4718 115.968 99.5873 116.14 100.369C116.219 100.75 116.284 101.047 116.328 101.259C116.347 101.356 116.362 101.433 116.373 101.49C116.377 101.517 116.377 101.545 116.373 101.572C116.363 101.546 116.355 101.52 116.349 101.493C116.333 101.435 116.315 101.359 116.292 101.265C116.239 101.055 116.169 100.758 116.077 100.38C115.897 99.5925 115.639 98.4875 115.317 97.1095C114.682 94.3325 113.807 90.4924 112.83 86.2034L112.809 86.1221H114.847L114.86 86.1746C115.798 90.4661 116.642 94.3114 117.25 97.0885C117.546 98.4718 117.786 99.5873 117.953 100.369C118.032 100.75 118.092 101.047 118.136 101.259L118.18 101.49C118.192 101.516 118.199 101.544 118.201 101.572V101.572Z" fill="#E0E0E0"/>
<path d="M128.789 109.373C128.789 109.409 103.987 109.441 73.4064 109.441C42.8256 109.441 18.0234 109.409 18.0234 109.373C18.0234 109.336 42.8204 109.304 73.4194 109.304C104.018 109.304 128.789 109.336 128.789 109.373Z" fill="#263238"/>
<path d="M121.658 37.7313C121.598 37.706 121.536 37.6866 121.472 37.6736C121.285 37.6313 121.092 37.6313 120.905 37.6736C120.603 37.7517 120.322 37.897 120.082 38.0988C119.757 38.3818 119.475 38.7117 119.246 39.0778C118.711 39.902 118.29 41.0412 117.799 42.3693C117.231 43.8859 116.739 45.4304 116.326 46.9968V46.9968C116.249 47.1413 116.146 47.2704 116.023 47.3774C115.959 47.4357 115.883 47.4795 115.801 47.5057C115.719 47.532 115.633 47.5402 115.547 47.5297C115.379 47.4868 115.228 47.3955 115.111 47.2672C114.988 47.1543 114.873 47.0336 114.758 46.9102C114.531 46.6596 114.29 46.423 114.035 46.2015C113.788 45.9632 113.46 45.8288 113.118 45.8262C112.946 45.8555 112.783 45.9207 112.639 46.0174C112.494 46.1142 112.372 46.2404 112.279 46.3879C112.094 46.7068 111.994 47.0685 111.989 47.4378C111.945 48.1885 112.161 48.9471 112.292 49.7319C112.423 50.5167 112.587 51.3225 112.739 52.1441C112.817 52.5562 112.893 52.9709 112.971 53.3909L113.089 54.0261C113.125 54.137 113.137 54.2544 113.124 54.3703C113.11 54.4862 113.073 54.598 113.013 54.698C112.974 54.7507 112.92 54.7902 112.858 54.8112C112.796 54.8323 112.729 54.834 112.666 54.8161C112.553 54.7831 112.447 54.7288 112.355 54.656L111.832 54.257C111.477 53.9871 111.107 53.7365 110.725 53.5064C110.342 53.267 109.924 53.0899 109.486 52.9814C109.27 52.9302 109.045 52.9302 108.828 52.9814C108.612 53.0361 108.422 53.1641 108.29 53.3436C108.039 53.7332 107.915 54.1922 107.937 54.656C107.938 55.1336 107.984 55.61 108.076 56.0787C108.264 57.0421 108.531 57.9884 108.872 58.9082C108.972 59.1433 109.048 59.3877 109.1 59.6379C109.112 59.7087 109.11 59.7814 109.093 59.8514C109.077 59.9214 109.046 59.9872 109.003 60.0447C108.98 60.072 108.955 60.0975 108.927 60.1208C108.898 60.1476 108.863 60.1681 108.825 60.1812C108.746 60.1932 108.665 60.1744 108.598 60.1287C108.381 59.9888 108.179 59.827 107.995 59.6458L107.436 59.1208C107.07 58.7647 106.672 58.4431 106.247 58.1601C106.035 58.0204 105.804 57.9142 105.56 57.8451C105.444 57.8091 105.322 57.7981 105.202 57.813C105.082 57.828 104.966 57.8684 104.862 57.9318C104.661 58.0789 104.52 58.2958 104.468 58.5407C104.405 58.7913 104.373 59.0487 104.374 59.3072C104.376 59.8381 104.442 60.3668 104.57 60.882C104.828 61.9292 105.209 62.9416 105.706 63.8979C106.201 64.8784 106.766 65.8215 107.396 66.7196C107.712 67.1753 108.052 67.6134 108.415 68.032C108.765 68.4677 109.121 68.9008 109.476 69.3444V69.3602L109.413 69.3339L111.075 69.0924C111.625 69.0265 112.172 68.9319 112.713 68.8089C113.779 68.568 114.826 68.2514 115.848 67.8614C116.855 67.487 117.815 66.9945 118.708 66.3941C119.147 66.1025 119.547 65.7578 119.902 65.3678C120.077 65.1767 120.227 64.9642 120.349 64.7353C120.473 64.5187 120.514 64.2636 120.464 64.0187C120.43 63.9014 120.372 63.7927 120.293 63.6999C120.214 63.6071 120.117 63.5324 120.007 63.4806C119.779 63.3691 119.537 63.2913 119.288 63.2496C118.784 63.173 118.274 63.1423 117.765 63.1577H117.002C116.74 63.168 116.477 63.1513 116.219 63.1079C116.138 63.0975 116.065 63.0561 116.015 62.9924C115.996 62.9567 115.984 62.9173 115.981 62.8769C115.977 62.8411 115.977 62.805 115.981 62.7693C115.989 62.6981 116.011 62.6293 116.045 62.5667C116.08 62.5041 116.126 62.4489 116.182 62.4044C116.388 62.2548 116.607 62.1256 116.838 62.0186C117.707 61.5694 118.538 61.0488 119.322 60.4621C119.702 60.1778 120.052 59.856 120.367 59.5014C120.693 59.1736 120.909 58.7513 120.984 58.294C121.005 58.0713 120.95 57.8478 120.827 57.6614C120.702 57.4764 120.535 57.3236 120.341 57.2152C119.947 56.9975 119.521 56.8443 119.079 56.7611C118.642 56.6727 118.201 56.6087 117.757 56.5695L117.099 56.5065C116.981 56.4997 116.867 56.4685 116.762 56.4146C116.704 56.3844 116.656 56.3371 116.624 56.279C116.593 56.221 116.58 56.1548 116.587 56.0892C116.611 55.9755 116.658 55.8681 116.726 55.7741C116.794 55.68 116.881 55.6014 116.981 55.5432L117.504 55.1547L118.51 54.3857L120.453 52.9026C121.078 52.4118 121.744 51.9971 122.214 51.4091C122.455 51.1343 122.62 50.8015 122.695 50.4432C122.725 50.271 122.719 50.0943 122.677 49.9247C122.634 49.7551 122.557 49.5963 122.449 49.4589C122.335 49.3323 122.187 49.2412 122.023 49.1964C121.859 49.1475 121.69 49.1193 121.519 49.1124C121.183 49.1036 120.846 49.1158 120.511 49.1492C120.344 49.1492 120.176 49.1728 120.012 49.1754C119.84 49.1883 119.669 49.1509 119.518 49.0678C119.446 49.0188 119.385 48.9547 119.34 48.88C119.295 48.8052 119.267 48.7216 119.257 48.6347C119.237 48.4716 119.247 48.3062 119.286 48.1465C120.033 46.7232 120.709 45.2628 121.31 43.771C121.833 42.4586 122.285 41.3299 122.447 40.3587C122.526 39.9348 122.543 39.5016 122.499 39.0726C122.465 38.7607 122.36 38.4608 122.193 38.1959C122.092 38.0338 121.954 37.898 121.791 37.7995C121.735 37.7654 121.677 37.7364 121.616 37.7129C121.679 37.73 121.74 37.7556 121.796 37.789C121.964 37.8856 122.107 38.0204 122.214 38.1828C122.385 38.4498 122.493 38.7523 122.53 39.0673C122.581 39.5 122.568 39.9378 122.491 40.3666C122.334 41.3404 121.89 42.4664 121.37 43.7788C120.782 45.2878 120.117 46.7657 119.38 48.2069V48.2069C119.343 48.3545 119.335 48.5075 119.353 48.6583C119.361 48.7326 119.383 48.8045 119.42 48.8692C119.457 48.9339 119.507 48.99 119.568 49.0337C119.704 49.1062 119.858 49.138 120.012 49.1256C120.174 49.1256 120.338 49.1098 120.505 49.0967C120.845 49.0623 121.186 49.0492 121.527 49.0573C121.704 49.0644 121.879 49.0935 122.049 49.1439C122.229 49.192 122.392 49.2892 122.52 49.4248C122.634 49.5719 122.716 49.7412 122.761 49.922C122.806 50.1028 122.812 50.2911 122.781 50.4747C122.705 50.8508 122.532 51.2002 122.279 51.4879C121.796 52.0916 121.125 52.5116 120.505 53.005L118.564 54.4907L117.561 55.2571L117.052 55.6482C116.966 55.706 116.888 55.7748 116.819 55.8529C116.756 55.9279 116.715 56.0186 116.699 56.1154C116.695 56.159 116.703 56.203 116.724 56.2415C116.745 56.28 116.778 56.3111 116.817 56.3306C116.909 56.3756 117.01 56.4015 117.112 56.4068L117.77 56.4698C118.218 56.508 118.663 56.572 119.103 56.6614C119.56 56.746 120.001 56.9028 120.409 57.126C120.617 57.2463 120.796 57.4123 120.931 57.6115C121.067 57.8203 121.13 58.0689 121.109 58.3176C121.031 58.8015 120.806 59.2491 120.464 59.5985C120.139 59.9591 119.78 60.287 119.393 60.5776C118.603 61.1702 117.767 61.6969 116.893 62.1525C116.67 62.2537 116.459 62.3768 116.26 62.5199C116.217 62.5534 116.181 62.5952 116.154 62.643C116.127 62.6908 116.11 62.7436 116.104 62.7981C116.101 62.8243 116.101 62.8507 116.104 62.8769C116.104 62.8979 116.104 62.9478 116.122 62.9451C116.155 62.9753 116.197 62.9946 116.242 63.0003C116.487 63.0401 116.736 63.0559 116.984 63.0475H117.747C118.264 63.0286 118.782 63.0594 119.293 63.1394C119.557 63.1807 119.813 63.263 120.051 63.3835C120.177 63.444 120.289 63.5308 120.379 63.638C120.469 63.7453 120.535 63.8706 120.573 64.0056C120.633 64.2813 120.588 64.5694 120.448 64.814C120.322 65.0527 120.166 65.2742 119.983 65.4728C119.622 65.8716 119.213 66.2242 118.766 66.5227C117.865 67.1314 116.895 67.6293 115.876 68.0058C114.847 68.4003 113.79 68.7196 112.715 68.9612C112.173 69.0847 111.624 69.1794 111.072 69.2447L109.408 69.4888H109.369L109.345 69.4573H109.332L108.272 68.1449C107.909 67.7255 107.568 67.2874 107.25 66.8325C106.614 65.9277 106.045 64.9777 105.547 63.9898C105.048 63.023 104.664 62 104.405 60.9424C104.273 60.4199 104.206 59.883 104.204 59.3439C104.204 59.0731 104.238 58.8034 104.303 58.5407C104.365 58.2657 104.525 58.0229 104.753 57.8583C104.872 57.7844 105.005 57.7368 105.144 57.7187C105.282 57.7006 105.423 57.7124 105.557 57.7533C105.813 57.826 106.056 57.9376 106.278 58.084C106.71 58.3709 107.114 58.6978 107.485 59.0604L108.044 59.5854C108.222 59.7588 108.416 59.9144 108.624 60.05C108.662 60.077 108.706 60.0916 108.752 60.092C108.752 60.092 108.791 60.0684 108.81 60.0552L108.867 59.9975C108.899 59.9532 108.921 59.9029 108.933 59.8496C108.945 59.7964 108.945 59.7413 108.935 59.6878C108.886 59.4473 108.812 59.2126 108.716 58.9869C108.372 58.0603 108.105 57.1069 107.916 56.1364C107.824 55.66 107.777 55.1756 107.778 54.6901C107.757 54.1994 107.891 53.7146 108.159 53.3042C108.308 53.105 108.52 52.9625 108.76 52.9C108.995 52.845 109.239 52.845 109.473 52.9C109.922 53.0067 110.352 53.1839 110.746 53.425C111.133 53.6559 111.506 53.9092 111.864 54.1836L112.386 54.5825C112.464 54.6458 112.552 54.6947 112.647 54.7269C112.69 54.7393 112.734 54.7384 112.776 54.7243C112.818 54.7102 112.854 54.6836 112.88 54.6481C112.931 54.57 112.961 54.4793 112.966 54.3857C112.969 54.2814 112.957 54.1772 112.932 54.0759C112.893 53.8633 112.856 53.6533 112.817 53.4434C112.739 53.0234 112.663 52.606 112.587 52.1966C112.438 51.3724 112.289 50.5692 112.146 49.7844C112.002 48.9996 111.801 48.2384 111.845 47.4641C111.853 47.0803 111.959 46.7051 112.154 46.3748C112.254 46.2149 112.388 46.0784 112.545 45.9743C112.702 45.8703 112.879 45.801 113.065 45.7711C113.25 45.7558 113.436 45.7931 113.601 45.8787C113.761 45.9568 113.911 46.0547 114.048 46.17C114.306 46.3943 114.55 46.6345 114.779 46.8892C114.891 47.0117 115.006 47.1298 115.124 47.2436C115.23 47.3567 115.366 47.4377 115.516 47.4772C115.59 47.4855 115.665 47.4778 115.735 47.4548C115.806 47.4317 115.871 47.3937 115.926 47.3433C116.04 47.2442 116.136 47.125 116.208 46.9916V46.9916C116.627 45.4226 117.125 43.8762 117.702 42.3588C118.199 41.0333 118.627 39.8915 119.173 39.0673C119.407 38.6992 119.694 38.3682 120.025 38.0856C120.268 37.8828 120.555 37.739 120.863 37.6657C121.052 37.6209 121.249 37.6209 121.438 37.6657C121.514 37.6749 121.589 37.6971 121.658 37.7313V37.7313Z" fill="#263238"/>
<path d="M120.286 41.301C120.282 41.331 120.273 41.3602 120.26 41.3876L120.171 41.6344C120.085 41.8575 119.965 42.1751 119.813 42.5767C119.494 43.4035 119.043 44.5873 118.483 46.044L114.144 57.4987C112.457 61.9608 110.91 66.0214 109.766 68.9402C109.196 70.3996 108.721 71.5781 108.397 72.3918C108.235 72.7908 108.107 73.1031 108.016 73.3236C107.971 73.426 107.94 73.5047 107.914 73.5677L107.875 73.6464C107.879 73.6173 107.888 73.5891 107.901 73.5624C107.922 73.4994 107.953 73.4181 107.989 73.3157C108.076 73.09 108.196 72.775 108.347 72.3708C108.666 71.544 109.118 70.3628 109.677 68.906L114.016 57.4567C115.704 52.9814 117.248 48.9366 118.395 46.0178C118.964 44.5584 119.44 43.3772 119.764 42.5662C119.926 42.1672 120.054 41.8522 120.145 41.6318C120.189 41.532 120.221 41.4506 120.247 41.3903L120.286 41.301Z" fill="#263238"/>
<path d="M120.427 50.3698C120.221 50.5183 120.002 50.6491 119.774 50.7608L118.175 51.6533C117.548 52.0024 116.979 52.3147 116.558 52.5273C116.337 52.6534 116.103 52.7555 115.861 52.8318C116.069 52.6859 116.287 52.5552 116.514 52.4407L118.107 51.5352C118.734 51.1861 119.306 50.8816 119.73 50.6742C119.952 50.5506 120.185 50.4486 120.427 50.3698V50.3698Z" fill="#263238"/>
<path d="M115.649 52.6637C115.615 52.6795 114.993 51.4878 114.262 50.0022C113.53 48.5165 112.956 47.2986 112.995 47.2802C113.034 47.2619 113.651 48.4561 114.385 49.9418C115.119 51.4274 115.683 52.6453 115.649 52.6637Z" fill="#263238"/>
<path d="M113.366 59.6536C113.157 59.4986 112.965 59.3227 112.791 59.1286C112.451 58.7874 112.007 58.3018 111.524 57.7401C111.041 57.1784 110.649 56.6482 110.372 56.2545C110.209 56.0512 110.068 55.8313 109.951 55.5983C110.131 55.7856 110.297 55.9856 110.448 56.1967C110.746 56.5747 111.156 57.0918 111.629 57.6509C112.101 58.2099 112.54 58.7008 112.859 59.0604C113.043 59.245 113.212 59.4433 113.366 59.6536V59.6536Z" fill="#263238"/>
<path d="M118.144 58.525C117.921 58.6146 117.69 58.6832 117.454 58.7298C117.026 58.8374 116.43 58.9765 115.772 59.1235C115.113 59.2705 114.513 59.386 114.079 59.4804C113.846 59.5394 113.608 59.5754 113.368 59.5881C113.592 59.4992 113.822 59.4316 114.058 59.386C114.487 59.2783 115.082 59.1235 115.743 58.9896C116.404 58.8557 117 58.7271 117.433 58.6353C117.666 58.5766 117.904 58.5397 118.144 58.525V58.525Z" fill="#263238"/>
<path d="M116.908 64.9557C116.618 65.0565 116.321 65.1364 116.02 65.1945C115.466 65.3232 114.714 65.4938 113.857 65.6723C113 65.8507 112.24 66.0082 111.683 66.1132C111.385 66.1847 111.082 66.233 110.777 66.2576C111.067 66.1558 111.363 66.076 111.665 66.0187C112.216 65.8901 112.971 65.7195 113.828 65.541C114.685 65.3625 115.443 65.205 115.999 65.1C116.298 65.0284 116.602 64.9802 116.908 64.9557V64.9557Z" fill="#263238"/>
<path d="M110.913 66.1841C110.84 66.1334 110.774 66.0734 110.717 66.0056C110.597 65.8849 110.429 65.7064 110.223 65.4807C109.813 65.0292 109.262 64.3914 108.682 63.6643C108.102 62.9372 107.603 62.2548 107.255 61.7534C107.08 61.5041 106.944 61.2994 106.853 61.155C106.799 61.0838 106.755 61.0052 106.722 60.9214C106.788 60.9814 106.846 61.0493 106.895 61.1235L107.334 61.6983C107.699 62.1839 108.209 62.8532 108.789 63.5777C109.369 64.3021 109.904 64.9505 110.296 65.415C110.518 65.6575 110.724 65.9144 110.913 66.1841V66.1841Z" fill="#263238"/>
<path d="M108.3 83.7677C103.765 80.0929 103.107 73.8118 103.676 68.2446C103.773 67.3154 103.737 66.3259 104.233 65.5384C104.729 64.751 105.8 64.2654 106.602 64.7142C107.268 65.087 107.511 65.9138 107.851 66.6041C108.306 67.5269 109.01 68.302 109.883 68.8404C110.453 69.1895 111.171 69.4284 111.775 69.1449C112.606 68.7564 112.775 67.654 112.833 66.7275L113.154 61.5461C113.212 60.6169 113.274 59.672 113.622 58.8137C113.969 57.9554 114.667 57.1811 115.552 56.9921C116.438 56.8031 117.496 57.391 117.619 58.3045C117.627 58.6902 117.61 59.0761 117.567 59.4594C117.567 59.8452 117.715 60.2836 118.071 60.4148C118.426 60.5461 118.818 60.3125 119.116 60.0605C120.132 59.1917 120.858 58.0315 121.545 56.874C122.232 55.7164 122.898 54.53 123.834 53.5693C124.769 52.6087 126.015 51.8816 127.342 51.8973C128.669 51.9131 130.017 52.8291 130.263 54.1547C130.508 55.4802 129.659 56.7585 128.761 57.7585C127.426 59.2453 125.885 60.5299 124.184 61.5724C123.852 61.7228 123.577 61.9769 123.4 62.2968C123.157 62.9005 123.698 63.5541 124.291 63.8008C124.962 64.0764 125.715 64.0633 126.428 64.1919C127.141 64.3205 127.899 64.6985 128.123 65.3993C128.437 66.3731 127.58 67.3102 126.76 67.9086C125.125 69.1026 123.298 70.0063 121.36 70.5807C120.662 70.7828 119.933 70.9508 119.353 71.3917C118.774 71.8327 118.387 72.6438 118.674 73.3183C118.962 73.9929 119.795 74.2633 120.503 74.1793C121.211 74.0953 121.885 73.7514 122.58 73.5414C123.886 73.1477 125.511 73.3498 126.237 74.5048C126.72 75.2659 126.7 76.2765 126.37 77.1296C126.003 77.9579 125.475 78.704 124.816 79.3239C122.642 81.6098 119.904 83.2747 116.88 84.1483C113.87 84.9698 111.132 85.0591 108.279 83.7834" fill="url(#paint0_linear_639_162)"/>
<g opacity="0.1">
<path d="M108.3 83.7677C103.765 80.0929 103.107 73.8118 103.676 68.2446C103.773 67.3154 103.737 66.3259 104.233 65.5384C104.729 64.751 105.8 64.2654 106.602 64.7142C107.268 65.087 107.511 65.9138 107.851 66.6041C108.306 67.5269 109.01 68.302 109.883 68.8404C110.453 69.1895 111.171 69.4284 111.775 69.1449C112.606 68.7564 112.775 67.654 112.833 66.7275L113.154 61.5461C113.212 60.6169 113.274 59.672 113.622 58.8137C113.969 57.9554 114.667 57.1811 115.552 56.9921C116.438 56.8031 117.496 57.391 117.619 58.3045C117.627 58.6902 117.61 59.0761 117.567 59.4594C117.567 59.8452 117.715 60.2836 118.071 60.4148C118.426 60.5461 118.818 60.3125 119.116 60.0605C120.132 59.1917 120.858 58.0315 121.545 56.874C122.232 55.7164 122.898 54.53 123.834 53.5693C124.769 52.6087 126.015 51.8816 127.342 51.8973C128.669 51.9131 130.017 52.8291 130.263 54.1547C130.508 55.4802 129.659 56.7585 128.761 57.7585C127.426 59.2453 125.885 60.5299 124.184 61.5724C123.852 61.7228 123.577 61.9769 123.4 62.2968C123.157 62.9005 123.698 63.5541 124.291 63.8008C124.962 64.0764 125.715 64.0633 126.428 64.1919C127.141 64.3205 127.899 64.6985 128.123 65.3993C128.437 66.3731 127.58 67.3102 126.76 67.9086C125.125 69.1026 123.298 70.0063 121.36 70.5807C120.662 70.7828 119.933 70.9508 119.353 71.3917C118.774 71.8327 118.387 72.6438 118.674 73.3183C118.962 73.9929 119.795 74.2633 120.503 74.1793C121.211 74.0953 121.885 73.7514 122.58 73.5414C123.886 73.1477 125.511 73.3498 126.237 74.5048C126.72 75.2659 126.7 76.2765 126.37 77.1296C126.003 77.9579 125.475 78.704 124.816 79.3239C122.642 81.6098 119.904 83.2747 116.88 84.1483C113.87 84.9698 111.132 85.0591 108.279 83.7834" fill="black"/>
</g>
<path d="M107.945 87.9043C108.38 85.3349 109.059 82.8133 109.972 80.3738C111.102 77.3976 112.401 74.489 113.862 71.662L114.999 69.431C115.375 68.6986 115.746 67.9742 116.153 67.2865C116.938 65.9701 117.793 64.6978 118.716 63.4753C119.591 62.302 120.461 61.2206 121.284 60.2153C122.107 59.21 122.896 58.2913 123.648 57.4829C124.83 56.2013 126.11 55.0156 127.478 53.9368C127.961 53.5562 128.345 53.2727 128.609 53.0837L128.91 52.8711C128.943 52.8458 128.978 52.823 129.014 52.8029C128.987 52.8342 128.955 52.8616 128.92 52.8842L128.63 53.1126C128.369 53.3094 127.995 53.6008 127.52 53.9919C126.172 55.0867 124.907 56.2817 123.737 57.5669C122.993 58.3779 122.211 59.3019 121.386 60.3072C120.56 61.3125 119.701 62.407 118.834 63.5724C117.916 64.7908 117.066 66.0597 116.289 67.3731C115.884 68.0582 115.505 68.7774 115.142 69.5097L114.006 71.7408C112.549 74.5622 111.248 77.4627 110.111 80.4289C109.195 82.858 108.506 85.3677 108.055 87.9253" fill="#263238"/>
<path d="M116.203 67.2787C116.166 67.1477 116.144 67.013 116.137 66.8771C116.109 66.6146 116.075 66.2419 116.041 65.7746C115.975 64.8455 115.926 63.5541 115.876 62.1341C115.827 60.714 115.759 59.4253 115.678 58.4961C115.638 58.0341 115.605 57.6588 115.576 57.3989C115.552 57.2647 115.544 57.1281 115.552 56.9921C115.595 57.1209 115.625 57.2537 115.641 57.3884C115.688 57.6509 115.743 58.021 115.798 58.4856C115.91 59.4121 115.996 60.7009 116.059 62.1262C116.122 63.5514 116.145 64.7982 116.174 65.7694C116.192 66.2077 116.205 66.5752 116.218 66.8718C116.226 67.0076 116.221 67.1439 116.203 67.2787V67.2787Z" fill="#263238"/>
<path d="M128.209 65.8693C128.051 65.8941 127.891 65.9029 127.731 65.8955C127.426 65.8955 126.984 65.8955 126.425 65.9323C125.333 65.9769 123.813 66.0871 122.164 66.2866C120.516 66.4861 119.011 66.7302 117.935 66.9402C117.397 67.0399 116.963 67.1344 116.663 67.2027C116.509 67.2436 116.351 67.2708 116.192 67.284C116.339 67.2217 116.491 67.1725 116.647 67.137C116.942 67.0531 117.373 66.9428 117.911 66.8247C118.982 66.5858 120.479 66.3207 122.143 66.1186C123.564 65.9445 124.992 65.8437 126.423 65.8168C126.971 65.8168 127.415 65.8168 127.729 65.8325C127.89 65.8304 128.051 65.8427 128.209 65.8693Z" fill="#263238"/>
<path d="M110.134 80.1586C110.103 80.1126 110.079 80.0622 110.064 80.009L109.889 79.5627C109.74 79.1769 109.539 78.61 109.301 77.9091C108.823 76.5049 108.222 74.5441 107.587 72.3734C106.952 70.2027 106.372 68.2367 105.923 66.8246C105.704 66.1369 105.521 65.5726 105.387 65.1526L105.244 64.6985C105.223 64.6463 105.21 64.5915 105.205 64.5358C105.234 64.5824 105.258 64.6327 105.275 64.6854C105.322 64.8061 105.38 64.9479 105.448 65.1316C105.596 65.5174 105.798 66.0844 106.038 66.7852C106.516 68.1895 107.117 70.1502 107.749 72.3236C108.381 74.4969 108.966 76.4576 109.416 77.8697C109.635 78.5574 109.815 79.1218 109.938 79.5418L110.082 79.9958C110.107 80.0474 110.124 80.1022 110.134 80.1586V80.1586Z" fill="#263238"/>
<path d="M126.237 76.1426C126.187 76.1698 126.132 76.1884 126.075 76.1977L125.608 76.3211L123.883 76.7542C122.426 77.119 120.422 77.6466 118.207 78.2345C115.991 78.8225 113.98 79.3317 112.514 79.6677C111.783 79.8357 111.19 79.9669 110.777 80.0483L110.301 80.1402C110.247 80.1539 110.191 80.1601 110.134 80.1585C110.185 80.1342 110.238 80.1165 110.294 80.106L110.764 79.9827L112.488 79.5496C113.943 79.1847 115.949 78.6545 118.165 78.0666C120.38 77.4786 122.392 76.9694 123.855 76.6334C124.586 76.4654 125.182 76.3368 125.592 76.2554L126.067 76.1636C126.123 76.15 126.18 76.1429 126.237 76.1426V76.1426Z" fill="#263238"/>
<path d="M109.356 11.3101H46.0024V98.5322H109.356V11.3101Z" fill="#455A64"/>
<path d="M106.853 93.3456H95.118H51.2793V14.8352H106.853V83.5787V93.3456Z" fill="#E0E0E0"/>
<path d="M105.973 91.8887H94.3475H50.9006V13.7957H105.973V82.1717V91.8887Z" fill="#EBEBEB"/>
<path d="M100.056 85.8125L93.7127 91.0018H49.874V13.9954H105.448V81.4212L100.056 85.8125Z" fill="#FAFAFA"/>
<path d="M100.055 85.8045C100.055 85.8045 100.168 85.7074 100.395 85.521L101.411 84.6863L105.432 81.3974V81.4132C105.432 70.3365 105.411 45.7159 105.393 13.9873L105.453 14.0503H50.365H49.8817L49.9496 13.9821C49.9496 42.9336 49.9496 69.641 49.9339 90.9885L49.8817 90.9333L93.7204 90.9648H93.7047L98.4697 87.0828L99.6636 86.1142C99.9248 85.899 100.063 85.794 100.063 85.794L99.6714 86.1221L98.4776 87.1169L93.7282 91.0173L49.8738 91.0541H49.819V90.999C49.819 69.6515 49.819 42.9441 49.8059 13.9926V13.9243H50.3571H105.445H105.508V13.9847C105.489 45.7238 105.474 70.3339 105.468 81.4106L101.432 84.6837L100.411 85.542L100.055 85.8045Z" fill="#263238"/>
<path d="M89.0521 16.4469H66.3059V12.4861C66.3059 11.9774 66.4057 11.4738 66.5995 11.0039C66.7933 10.534 67.0773 10.1071 67.4354 9.74754C67.7935 9.38799 68.2186 9.10287 68.6864 8.90846C69.1542 8.71404 69.6556 8.61416 70.1618 8.6145H85.3529C85.8386 8.61416 86.3196 8.70997 86.7683 8.89647C87.2171 9.08296 87.6249 9.35649 87.9685 9.70141C88.312 10.0463 88.5845 10.4559 88.7705 10.9067C88.9564 11.3575 89.0521 11.8406 89.0521 12.3286V16.4469Z" fill="url(#paint1_linear_639_162)"/>
<path d="M71.8781 8.61173L71.0474 4.38843H84.1433L83.4145 8.61173H71.8781Z" fill="url(#paint2_linear_639_162)"/>
<path d="M65.0468 35.6708H55.6865V26.2635H65.0468V35.6708ZM55.9478 35.4084H64.7855V26.526H55.9478V35.4084Z" fill="url(#paint3_linear_639_162)"/>
<path d="M98.1329 28.5368C98.1329 28.5735 91.615 28.605 83.5793 28.605C75.5435 28.605 69.0229 28.5735 69.0229 28.5368C69.0229 28.5 75.5383 28.4685 83.5793 28.4685C91.6202 28.4685 98.1329 28.4974 98.1329 28.5368Z" fill="#263238"/>
<path d="M98.1329 30.4895C98.1329 30.5289 91.615 30.5578 83.5793 30.5578C75.5435 30.5578 69.0229 30.5289 69.0229 30.4895C69.0229 30.4501 75.5383 30.4213 83.5793 30.4213C91.6202 30.4213 98.1329 30.4528 98.1329 30.4895Z" fill="#263238"/>
<path d="M98.1329 32.445C98.1329 32.4817 91.615 32.5132 83.5793 32.5132C75.5435 32.5132 69.0229 32.4817 69.0229 32.445C69.0229 32.4082 75.5383 32.3767 83.5793 32.3767C91.6202 32.3767 98.1329 32.4082 98.1329 32.445Z" fill="#263238"/>
<path d="M98.1329 34.4004C98.1329 34.4371 91.615 34.4686 83.5793 34.4686C75.5435 34.4686 69.0229 34.4371 69.0229 34.4004C69.0229 34.3637 75.5383 34.3322 83.5793 34.3322C91.6202 34.3322 98.1329 34.3584 98.1329 34.4004Z" fill="#263238"/>
<path d="M65.0468 50.1675H55.6865V40.7603H65.0468V50.1675ZM55.9478 49.9051H64.7855V41.0227H55.9478V49.9051Z" fill="url(#paint4_linear_639_162)"/>
<path d="M57.5466 45.6582L58.7901 44.317L60.8618 45.9811L65.6033 41.3562L66.7397 42.7001L60.7703 48.619L57.5466 45.6582Z" fill="url(#paint5_linear_639_162)"/>
<path d="M98.1329 43.0335C98.1329 43.0702 91.615 43.1017 83.5793 43.1017C75.5435 43.1017 69.0229 43.0702 69.0229 43.0335C69.0229 42.9967 75.5383 42.9652 83.5793 42.9652C91.6202 42.9652 98.1329 42.9967 98.1329 43.0335Z" fill="#263238"/>
<path d="M98.1329 44.9889C98.1329 45.0256 91.615 45.0571 83.5793 45.0571C75.5435 45.0571 69.0229 45.0256 69.0229 44.9889C69.0229 44.9522 75.5383 44.9207 83.5793 44.9207C91.6202 44.9207 98.1329 44.9495 98.1329 44.9889Z" fill="#263238"/>
<path d="M98.1329 46.9418C98.1329 46.9812 91.615 47.01 83.5793 47.01C75.5435 47.01 69.0229 46.9812 69.0229 46.9418C69.0229 46.9024 75.5383 46.8735 83.5793 46.8735C91.6202 46.8735 98.1329 46.905 98.1329 46.9418Z" fill="#263238"/>
<path d="M98.1329 48.8972C98.1329 48.934 91.615 48.9655 83.5793 48.9655C75.5435 48.9655 69.0229 48.934 69.0229 48.8972C69.0229 48.8605 75.5383 48.829 83.5793 48.829C91.6202 48.829 98.1329 48.8605 98.1329 48.8972Z" fill="#263238"/>
<path d="M65.0468 64.1972H55.6865V54.7899H65.0468V64.1972ZM55.9478 63.9347H64.7855V55.0524H55.9478V63.9347Z" fill="url(#paint6_linear_639_162)"/>
<path d="M57.5466 59.6878L58.7901 58.3465L60.8618 60.0106L65.6033 55.3857L66.7397 56.7296L60.7703 62.6459L57.5466 59.6878Z" fill="url(#paint7_linear_639_162)"/>
<path d="M98.1329 57.0629C98.1329 57.0996 91.615 57.1311 83.5793 57.1311C75.5435 57.1311 69.0229 57.0996 69.0229 57.0629C69.0229 57.0261 75.5383 56.9946 83.5793 56.9946C91.6202 56.9946 98.1329 57.0235 98.1329 57.0629Z" fill="#263238"/>
<path d="M98.1329 59.0159C98.1329 59.0553 91.615 59.0841 83.5793 59.0841C75.5435 59.0841 69.0229 59.0553 69.0229 59.0159C69.0229 58.9765 75.5383 58.9476 83.5793 58.9476C91.6202 58.9476 98.1329 58.9791 98.1329 59.0159Z" fill="#263238"/>
<path d="M98.1329 60.9713C98.1329 61.0107 91.615 61.0396 83.5793 61.0396C75.5435 61.0396 69.0229 61.0107 69.0229 60.9713C69.0229 60.932 75.5383 60.9031 83.5793 60.9031C91.6202 60.9031 98.1329 60.9346 98.1329 60.9713Z" fill="#263238"/>
<path d="M98.1329 62.9268C98.1329 62.9635 91.615 62.995 83.5793 62.995C75.5435 62.995 69.0229 62.9635 69.0229 62.9268C69.0229 62.89 75.5383 62.8585 83.5793 62.8585C91.6202 62.8585 98.1329 62.89 98.1329 62.9268Z" fill="#263238"/>
<path d="M65.0468 77.7437H55.6865V68.3364H65.0468V77.7437ZM55.9478 77.4812H64.7855V68.5989H55.9478V77.4812Z" fill="url(#paint8_linear_639_162)"/>
<path d="M57.5466 73.2317L58.7901 71.8905L60.8618 73.5572L65.6033 68.9297L66.7397 70.2762L60.7703 76.1925L57.5466 73.2317Z" fill="url(#paint9_linear_639_162)"/>
<path d="M98.1329 70.6071C98.1329 70.6464 91.615 70.6753 83.5793 70.6753C75.5435 70.6753 69.0229 70.6464 69.0229 70.6071C69.0229 70.5677 75.5383 70.5388 83.5793 70.5388C91.6202 70.5388 98.1329 70.5808 98.1329 70.6071Z" fill="#263238"/>
<path d="M98.1329 72.5624C98.1329 72.5991 91.615 72.6306 83.5793 72.6306C75.5435 72.6306 69.0229 72.5991 69.0229 72.5624C69.0229 72.5256 75.5383 72.4941 83.5793 72.4941C91.6202 72.4941 98.1329 72.5256 98.1329 72.5624Z" fill="#263238"/>
<path d="M98.1329 74.518C98.1329 74.5547 91.615 74.5862 83.5793 74.5862C75.5435 74.5862 69.0229 74.5547 69.0229 74.518C69.0229 74.4812 75.5383 74.4497 83.5793 74.4497C91.6202 74.4497 98.1329 74.4786 98.1329 74.518Z" fill="#263238"/>
<path d="M98.1329 76.4707C98.1329 76.5101 91.615 76.539 83.5793 76.539C75.5435 76.539 69.0229 76.5101 69.0229 76.4707C69.0229 76.4313 75.5383 76.4025 83.5793 76.4025C91.6202 76.4025 98.1329 76.434 98.1329 76.4707Z" fill="#263238"/>
<path d="M95.4552 78.2504L89.363 90.9282H93.7127L95.4552 78.2504Z" fill="#E0E0E0"/>
<path d="M93.7126 91.0017L95.4551 78.3213L105.448 81.4212L93.7126 91.0017Z" fill="#FAFAFA"/>
<path d="M93.7126 91.0016L97.0722 88.222L105.403 81.3686L105.427 81.4841L101.568 80.2925L95.4473 78.3842L95.5283 78.3317C95.0058 82.0065 94.5591 85.1693 94.243 87.4109C93.9269 89.5921 93.7649 90.7182 93.7205 91.0016C93.7195 90.9824 93.7195 90.9631 93.7205 90.9439L93.744 90.7707C93.7649 90.6053 93.7936 90.3743 93.8328 90.0803C93.9138 89.4635 94.0288 88.579 94.175 87.4555C94.4781 85.1956 94.9013 82.017 95.395 78.3029V78.2294L95.4656 78.2504L101.602 80.1507L105.458 81.3476L105.578 81.3844L105.482 81.4631C102.109 84.1955 99.1595 86.5841 97.0487 88.2876L94.5852 90.2746L93.9269 90.7995L93.7597 90.9334L93.7126 91.0016Z" fill="#263238"/>
<g opacity="0.3">
<path d="M83.2369 4.38843L82.5159 8.61173H83.4145L84.1434 4.38843H82.9966" fill="black"/>
</g>
<path d="M44.8789 48.9576C45.1939 48.9815 45.5104 48.9413 45.8096 48.8396C46.1088 48.7378 46.3845 48.5766 46.6203 48.3654C46.8561 48.1542 47.0471 47.8975 47.1819 47.6105C47.3168 47.3235 47.3927 47.0122 47.4051 46.695C47.4548 45.4089 47.4992 44.1096 47.4992 44.1096C47.4992 44.1096 49.4376 43.9285 49.5891 42.0098C49.7406 40.091 49.6649 35.6341 49.6649 35.6341C48.6023 35.0955 47.4157 34.8519 46.228 34.9285C45.0403 35.0051 43.8945 35.3991 42.9092 36.0698L43.0267 42.8523V46.5034C43.0293 47.7161 43.6642 48.8657 44.8789 48.9576Z" fill="#FFBE9D"/>
<path d="M47.6665 39.6474C47.5249 39.443 47.3118 39.2997 47.0697 39.2461C46.8275 39.1926 46.5742 39.2328 46.3603 39.3587C46.1432 39.5103 45.9867 39.7344 45.9188 39.9911C45.8508 40.2478 45.8758 40.5204 45.9893 40.7603C46.0882 40.9384 46.2229 41.0938 46.3848 41.2167C46.5468 41.3396 46.7323 41.4273 46.9298 41.4743C47.1049 41.5126 47.2601 41.6136 47.3664 41.7586C47.4726 41.9035 47.5227 42.0824 47.5071 42.2617C47.4267 42.7684 47.1911 43.2372 46.8331 43.603C46.2414 44.208 45.4538 44.5804 44.6126 44.6529C43.7949 44.75 42.8597 44.5794 42.3842 43.9049C42.0368 43.414 42.0133 42.7709 42.0002 42.1699C41.9706 40.749 41.941 39.3281 41.9114 37.9072C41.8806 37.3951 41.9131 36.8811 42.008 36.3769C42.1081 35.8684 42.3954 35.4166 42.8127 35.1118C43.2803 34.802 43.8707 34.7758 44.401 34.6052C45.0672 34.3873 45.6314 33.9464 46.2532 33.6261C46.8749 33.3059 47.6352 33.1143 48.2595 33.4293C48.7089 33.655 49.0093 34.1039 49.4429 34.3532C50.0647 34.7076 50.9085 34.6157 51.2089 35.5449C51.3147 35.8626 51.3147 36.2062 51.2089 36.5239C50.7883 37.7707 49.2522 38.2747 48.1446 37.7366C48.1237 37.9466 48.3301 38.4164 48.108 39.0831C48.0375 39.2983 48.014 39.6212 47.6822 39.6291" fill="#263238"/>
<path d="M42.3712 35.6708C42.6756 35.0613 42.8836 34.4077 42.9877 33.7337C43.037 33.3962 43.0082 33.0517 42.9035 32.7272C42.7988 32.4026 42.6212 32.1067 42.3842 31.8623C42.0346 31.5572 41.5827 31.3968 41.1198 31.4134C40.6802 31.4386 40.259 31.5996 39.9139 31.8744C39.5688 32.1493 39.3166 32.5246 39.1919 32.9489C39.0843 33.3768 39.1009 33.8266 39.2398 34.2453C39.3787 34.6639 39.634 35.0338 39.9756 35.3112C40.3249 35.5808 40.7388 35.7528 41.1756 35.81C41.6123 35.8671 42.0563 35.8074 42.4626 35.6367" fill="#263238"/>
<path d="M42.7472 34.9753C42.7331 35.2109 42.6322 35.4328 42.4642 35.5978C42.2961 35.7628 42.0729 35.859 41.8381 35.8677C41.8381 35.8283 42.1203 35.7522 42.3606 35.5002C42.601 35.2482 42.7107 34.9648 42.7472 34.9753Z" fill="url(#paint10_linear_639_162)"/>
<path d="M42.1177 35.4477C41.9679 35.6054 41.7909 35.7343 41.5952 35.8283C41.386 35.9481 41.1513 36.0156 40.9107 36.0252C40.758 36.0334 40.6055 36.0049 40.466 35.9419C40.3264 35.8789 40.204 35.7832 40.1087 35.6629C40.0245 35.5363 39.9682 35.393 39.9439 35.2426C39.9196 35.0923 39.9277 34.9384 39.9677 34.7915C40.0283 34.5583 40.1378 34.3408 40.289 34.1537C40.4141 33.9763 40.5677 33.821 40.7435 33.6943C40.6273 33.8758 40.5017 34.051 40.3674 34.2193C40.2362 34.4021 40.1421 34.609 40.0904 34.8282C40.0579 34.9575 40.0524 35.0922 40.0744 35.2237C40.0965 35.3552 40.1455 35.4806 40.2185 35.5921C40.302 35.6945 40.4079 35.7763 40.5279 35.8309C40.648 35.8855 40.779 35.9116 40.9107 35.907C41.134 35.9034 41.3536 35.8496 41.5534 35.7496C41.893 35.5737 42.1046 35.4267 42.1177 35.4477Z" fill="#263238"/>
<path d="M38.8575 37.6237C38.8969 37.6904 38.9276 37.7618 38.949 37.8363C39.0167 38.033 39.1126 38.2187 39.2337 38.3875C39.3142 38.5096 39.4271 38.6067 39.5595 38.668C39.692 38.7292 39.8388 38.752 39.9835 38.734C40.1566 38.6849 40.3142 38.5916 40.441 38.4633C40.5678 38.335 40.6594 38.176 40.7071 38.0017C40.801 37.6346 40.8665 37.2608 40.903 36.8835C40.9399 36.56 41.0667 36.2535 41.2688 35.999C41.4135 35.8315 41.6107 35.7186 41.8278 35.6787C41.9064 35.6594 41.989 35.6668 42.0629 35.6997C42.0629 35.6997 41.9767 35.6997 41.8383 35.7312C41.6421 35.7857 41.4682 35.9016 41.3419 36.062C41.1639 36.3086 41.0548 36.5986 41.0258 36.9019C40.9957 37.2882 40.9319 37.6712 40.8351 38.0463C40.7812 38.2432 40.6761 38.4221 40.5305 38.5647C40.385 38.7072 40.2043 38.8083 40.007 38.8574C39.8266 38.8863 39.6418 38.851 39.4845 38.7576C39.354 38.6781 39.2418 38.5716 39.1553 38.4453C39.0356 38.2647 38.9472 38.065 38.8941 37.8547C38.8673 37.7808 38.8549 37.7024 38.8575 37.6237V37.6237Z" fill="#263238"/>
<path d="M37.9144 53.8162C37.9144 53.8162 36.9348 61.0134 37.9144 61.9268C38.8941 62.8402 39.8319 62.5358 39.8319 62.5358L41.6946 60.9609L42.0603 53.8057L37.9144 53.8162Z" fill="#FFBE9D"/>
<path d="M58.1475 33.613L59.391 32.2717L61.4626 33.9358L66.2041 29.3109L67.3405 30.6548L61.3712 36.5711L58.1475 33.613Z" fill="url(#paint11_linear_639_162)"/>
<path d="M63.9888 33.9779L62.1863 35.1407C62.1053 34.4241 61.5619 33.7154 61.588 34.075C61.6142 34.4346 61.588 36.3009 61.588 36.3009L58.3774 43.0965C57.9411 44.1726 57.0555 44.8498 56.3946 45.0099L53.3877 45.9076L54.5607 49.8947L58.7405 48.5036C59.274 48.3259 59.7587 48.0252 60.1556 47.6254C60.5526 47.2257 60.8508 46.738 61.0264 46.2016L63.9 37.4033C64.0908 36.8365 64.2444 36.2578 64.3598 35.6709C64.4852 34.9333 63.9888 33.9779 63.9888 33.9779Z" fill="#FFBE9D"/>
<path d="M49.2209 108.304L49.1739 106.291L45.4172 106.352L45.4512 109.299L45.6863 109.312C46.7313 109.352 50.966 109.446 51.6556 109.226C52.4237 108.976 49.2209 108.304 49.2209 108.304Z" fill="url(#paint12_linear_639_162)"/>
<g opacity="0.5">
<path d="M46.8147 109.249C46.7514 108.935 46.5758 108.655 46.321 108.462C46.0701 108.266 45.7547 108.172 45.438 108.199L45.4537 109.249H46.8147Z" fill="white"/>
</g>
<g opacity="0.4">
<path d="M50.7752 108.69C50.7752 108.69 51.8985 108.995 51.7627 109.184C51.6268 109.373 47.3373 109.446 45.4407 109.299V109.215L50.446 109.181C50.446 109.181 50.5688 108.703 50.7752 108.69Z" fill="white"/>
</g>
<path d="M45.3963 109.213H45.4616H45.6471L46.3315 109.231C46.9088 109.244 47.7056 109.249 48.586 109.231C49.4664 109.213 50.2658 109.189 50.8405 109.16L51.525 109.121L51.7104 109.108H51.7731H51.7078H51.5223L50.8405 109.134C50.2632 109.152 49.4664 109.178 48.586 109.192C47.7056 109.205 46.9088 109.192 46.3315 109.192H45.6497H45.3884L45.3963 109.213Z" fill="#263238"/>
<path d="M50.4617 109.239C50.4889 109.125 50.5302 109.014 50.5845 108.911C50.6503 108.815 50.7265 108.727 50.8118 108.648C50.7006 108.701 50.6078 108.786 50.5453 108.892C50.4829 108.998 50.4538 109.121 50.4617 109.244V109.239Z" fill="#263238"/>
<path d="M49.3436 108.69C49.3436 108.69 49.4063 108.633 49.4611 108.546C49.516 108.459 49.5473 108.381 49.5369 108.375C49.5264 108.37 49.4742 108.433 49.422 108.52C49.3697 108.606 49.3331 108.685 49.3436 108.69Z" fill="#263238"/>
<path d="M49.0378 108.535C49.0378 108.535 49.1031 108.504 49.1685 108.443C49.2338 108.383 49.2756 108.328 49.2677 108.32C49.2599 108.312 49.1998 108.351 49.1371 108.409C49.0744 108.467 49.0274 108.525 49.0378 108.535Z" fill="#263238"/>
<path d="M48.8394 108.181C48.902 108.204 48.9692 108.211 49.0353 108.202C49.1015 108.21 49.1687 108.202 49.2312 108.178C49.168 108.158 49.1013 108.151 49.0353 108.157C48.969 108.15 48.902 108.158 48.8394 108.181Z" fill="#263238"/>
<path d="M48.7688 107.932C48.8348 107.972 48.9109 107.993 48.9882 107.992C49.0657 108.003 49.1447 107.991 49.2155 107.958C49.1408 107.951 49.0656 107.951 48.9909 107.958C48.9178 107.942 48.8435 107.933 48.7688 107.932V107.932Z" fill="#263238"/>
<path d="M49.469 108.359C49.5484 108.374 49.6299 108.374 49.7093 108.359C49.7981 108.348 49.8856 108.327 49.9706 108.299C50.0213 108.283 50.0704 108.262 50.1169 108.236C50.1316 108.228 50.1445 108.217 50.1549 108.204C50.1652 108.191 50.1727 108.176 50.177 108.16C50.18 108.142 50.178 108.123 50.1711 108.106C50.1642 108.089 50.1526 108.074 50.1378 108.063C50.0447 108.019 49.9396 108.01 49.8402 108.035C49.7408 108.06 49.6531 108.119 49.5918 108.202C49.5566 108.251 49.5309 108.306 49.516 108.365C49.5114 108.386 49.5114 108.409 49.516 108.43C49.541 108.356 49.5771 108.286 49.6231 108.223C49.677 108.159 49.7475 108.11 49.8269 108.084C49.9219 108.051 50.026 108.056 50.1169 108.1C50.1534 108.128 50.1404 108.173 50.0986 108.199C50.0553 108.224 50.0098 108.244 49.9627 108.26C49.8776 108.289 49.7902 108.312 49.7015 108.328C49.5578 108.352 49.469 108.352 49.469 108.359Z" fill="#263238"/>
<path d="M49.5292 108.378C49.5586 108.327 49.5679 108.267 49.5553 108.21C49.5454 108.147 49.5213 108.086 49.4847 108.034C49.4641 107.998 49.4348 107.969 49.3996 107.948C49.3644 107.926 49.3245 107.915 49.2836 107.913C49.2714 107.916 49.2597 107.921 49.2494 107.928C49.2391 107.935 49.2303 107.944 49.2235 107.954C49.2167 107.965 49.212 107.977 49.2098 107.989C49.2075 108.001 49.2078 108.014 49.2104 108.026C49.2162 108.065 49.2305 108.101 49.2522 108.134C49.284 108.187 49.3236 108.236 49.3698 108.278C49.4071 108.322 49.4547 108.355 49.5083 108.375C49.5083 108.375 49.4612 108.333 49.3933 108.257C49.3542 108.212 49.3192 108.164 49.2888 108.113C49.2549 108.063 49.2313 107.971 49.2888 107.958C49.3463 107.945 49.4116 108.01 49.4482 108.058C49.4831 108.104 49.5081 108.158 49.5213 108.215C49.5285 108.269 49.5311 108.323 49.5292 108.378Z" fill="#263238"/>
<path d="M45.459 108.178C45.459 108.178 45.5661 108.178 45.7359 108.178C45.9574 108.199 46.1684 108.283 46.3446 108.42C46.5207 108.556 46.6548 108.74 46.7312 108.95C46.7913 109.11 46.7991 109.213 46.807 109.213C46.8121 109.187 46.8121 109.162 46.807 109.136C46.7985 109.068 46.7836 109 46.7626 108.934C46.6901 108.715 46.5537 108.523 46.3711 108.382C46.1885 108.242 45.9681 108.16 45.7385 108.147C45.6699 108.139 45.6007 108.139 45.5321 108.147C45.5059 108.152 45.481 108.163 45.459 108.178Z" fill="#263238"/>
<path d="M45.8248 106.603C45.8014 106.861 45.7944 107.119 45.8039 107.378C45.7955 107.64 45.8034 107.903 45.8274 108.165C45.8512 107.903 45.8581 107.64 45.8483 107.378C45.8546 107.119 45.8467 106.861 45.8248 106.603V106.603Z" fill="#263238"/>
<path d="M47.2798 108.874C47.461 108.911 47.6461 108.926 47.831 108.918C48.0154 108.926 48.2 108.909 48.3796 108.866C48.3796 108.853 48.1184 108.866 47.831 108.866C47.5436 108.866 47.2824 108.861 47.2798 108.874Z" fill="#263238"/>
<path d="M46.5457 108.882C46.5457 108.882 46.5666 108.934 46.5901 108.992C46.6136 109.05 46.6319 109.097 46.6449 109.097C46.658 109.097 46.6632 109.037 46.6319 108.971C46.6005 108.905 46.5535 108.874 46.5457 108.882Z" fill="#263238"/>
<path d="M46.261 108.541C46.261 108.541 46.2767 108.588 46.3185 108.627C46.3603 108.667 46.3968 108.69 46.4047 108.682C46.4125 108.674 46.389 108.632 46.3498 108.596C46.3106 108.559 46.2714 108.53 46.261 108.541Z" fill="#263238"/>
<path d="M45.8612 108.378C45.8612 108.378 45.916 108.378 45.9709 108.407C46.0258 108.436 46.0649 108.454 46.0754 108.446C46.0858 108.438 46.0545 108.386 45.984 108.365C45.9134 108.344 45.8586 108.378 45.8612 108.378Z" fill="#263238"/>
<path d="M45.5791 108.318C45.5791 108.318 45.5949 108.349 45.6265 108.36C45.6582 108.371 45.6871 108.373 45.6924 108.36C45.6977 108.347 45.674 108.328 45.6424 108.318C45.6107 108.307 45.5817 108.304 45.5791 108.318Z" fill="#263238"/>
<path d="M35.9603 107.661L37.2352 106.105L34.3459 103.687L32.4597 105.945L32.6269 106.107C33.3871 106.819 36.5455 109.669 37.2091 109.953C37.9536 110.27 35.9603 107.661 35.9603 107.661Z" fill="url(#paint13_linear_639_162)"/>
<g opacity="0.5">
<path d="M33.5332 106.803C33.6931 106.522 33.7442 106.192 33.6769 105.876C33.6129 105.564 33.4337 105.287 33.1753 105.102L32.4883 105.908L33.5332 106.803Z" fill="white"/>
</g>
<g opacity="0.4">
<path d="M36.8982 108.979C36.8982 108.979 37.5513 109.947 37.3266 110C37.102 110.052 33.7947 107.291 32.4597 105.945L32.5172 105.884L36.3339 109.139C36.3339 109.139 36.7232 108.845 36.8982 108.979Z" fill="white"/>
</g>
<path d="M32.4727 105.845L32.5171 105.892L32.6529 106.021L33.1597 106.483C33.5882 106.869 34.189 107.396 34.8656 107.963C35.5422 108.53 36.1718 109.031 36.6212 109.388L37.1645 109.806L37.3134 109.916L37.3683 109.953L37.3187 109.908L37.175 109.79L36.6525 109.362C36.2006 109 35.5814 108.496 34.9048 107.929C34.2282 107.362 33.6247 106.84 33.1911 106.459L32.6686 106.008L32.5275 105.884L32.4727 105.845Z" fill="#263238"/>
<path d="M36.2947 109.184C36.3899 109.114 36.4935 109.057 36.6029 109.013C36.7159 108.984 36.8314 108.967 36.9478 108.961C36.8314 108.918 36.7036 108.918 36.5873 108.961C36.4661 108.997 36.3621 109.076 36.2947 109.184Z" fill="#263238"/>
<path d="M35.8035 108.034C35.8035 108.047 35.8897 108.034 35.9863 108C36.083 107.966 36.1614 107.934 36.1561 107.921C36.1509 107.908 36.0699 107.921 35.9733 107.955C35.9117 107.969 35.8538 107.996 35.8035 108.034V108.034Z" fill="#263238"/>
<path d="M35.6729 107.714C35.6729 107.714 35.7434 107.735 35.8322 107.732C35.921 107.73 35.989 107.716 35.989 107.703C35.989 107.69 35.9158 107.682 35.8296 107.685C35.7758 107.682 35.7222 107.692 35.6729 107.714V107.714Z" fill="#263238"/>
<path d="M35.7512 107.328C35.7512 107.328 35.8035 107.401 35.8871 107.472C35.9342 107.52 35.9901 107.559 36.0516 107.585C36.0516 107.585 35.9994 107.509 35.9158 107.438C35.8322 107.367 35.7617 107.307 35.7512 107.328Z" fill="#263238"/>
<path d="M35.8611 107.081C35.8895 107.153 35.9329 107.218 35.9883 107.272C36.0437 107.326 36.1099 107.367 36.1824 107.394C36.1318 107.338 36.0777 107.287 36.0204 107.239C35.9342 107.155 35.8846 107.065 35.8611 107.081Z" fill="#263238"/>
<path d="M36.1119 107.853C36.1637 107.916 36.2266 107.968 36.2973 108.008C36.3715 108.056 36.4502 108.096 36.5325 108.129C36.581 108.151 36.6318 108.167 36.684 108.178C36.7169 108.184 36.7506 108.176 36.778 108.157C36.7924 108.146 36.8033 108.131 36.8093 108.114C36.8154 108.097 36.8163 108.078 36.812 108.06C36.7717 107.964 36.6992 107.885 36.6071 107.837C36.515 107.79 36.4091 107.776 36.3078 107.798C36.2481 107.81 36.1919 107.835 36.1432 107.871C36.1249 107.883 36.109 107.898 36.0962 107.916C36.1631 107.875 36.2364 107.846 36.313 107.829C36.3959 107.815 36.4812 107.825 36.5586 107.858C36.6517 107.894 36.7268 107.966 36.7676 108.058C36.7676 108.105 36.7388 108.131 36.6892 108.123C36.641 108.112 36.5938 108.097 36.5481 108.079C36.4676 108.049 36.3899 108.012 36.3156 107.968C36.1876 107.919 36.1171 107.853 36.1119 107.853Z" fill="#263238"/>
<path d="M36.1457 107.913C36.1457 107.913 36.2136 107.892 36.2763 107.803C36.31 107.749 36.3314 107.688 36.339 107.624C36.345 107.583 36.3412 107.542 36.3281 107.502C36.3149 107.463 36.2927 107.428 36.2632 107.399C36.2407 107.387 36.2143 107.384 36.1898 107.391C36.1654 107.399 36.1448 107.416 36.1326 107.438C36.1128 107.471 36.1003 107.508 36.096 107.546C36.0884 107.608 36.0884 107.67 36.096 107.732C36.096 107.79 36.1104 107.847 36.1378 107.897C36.1378 107.897 36.1378 107.832 36.1378 107.732C36.1371 107.672 36.1424 107.612 36.1535 107.554C36.1535 107.493 36.2005 107.409 36.2554 107.438C36.3103 107.467 36.3129 107.559 36.3129 107.619C36.3082 107.677 36.2913 107.734 36.2632 107.785C36.2289 107.832 36.1895 107.875 36.1457 107.913V107.913Z" fill="#263238"/>
<path d="M33.1912 105.102C33.1912 105.102 33.28 105.162 33.3975 105.286C33.5505 105.448 33.6563 105.65 33.7032 105.868C33.7465 106.088 33.7284 106.315 33.6509 106.525C33.5909 106.687 33.5255 106.774 33.5334 106.787C33.553 106.77 33.5698 106.749 33.583 106.727C33.622 106.67 33.6544 106.61 33.6797 106.546C33.77 106.332 33.7937 106.096 33.7476 105.868C33.7004 105.642 33.5867 105.434 33.4211 105.273C33.3717 105.224 33.3174 105.181 33.2591 105.144C33.2393 105.126 33.2163 105.112 33.1912 105.102Z" fill="#263238"/>
<path d="M34.492 104.144C34.3065 104.325 34.132 104.517 33.9695 104.719C33.7971 104.911 33.6349 105.113 33.4836 105.323C33.6704 105.144 33.8449 104.953 34.0061 104.75C34.1783 104.557 34.3405 104.354 34.492 104.144Z" fill="#263238"/>
<path d="M34.1211 106.821C34.2327 106.969 34.3627 107.101 34.5077 107.215C34.6434 107.342 34.7954 107.449 34.9597 107.535C34.9597 107.535 34.769 107.378 34.5391 107.181C34.3092 106.984 34.1315 106.803 34.1211 106.821Z" fill="#263238"/>
<path d="M33.5567 106.346C33.5567 106.346 33.5385 106.399 33.5228 106.459C33.5071 106.52 33.4836 106.564 33.494 106.572C33.5045 106.58 33.5463 106.541 33.5672 106.47C33.5881 106.399 33.5698 106.344 33.5567 106.346Z" fill="#263238"/>
<path d="M33.5646 105.9C33.5516 105.9 33.5463 105.947 33.5516 106.002C33.5568 106.058 33.5699 106.102 33.5829 106.102C33.596 106.102 33.6012 106.055 33.5829 106C33.5646 105.945 33.5777 105.9 33.5646 105.9Z" fill="#263238"/>
<path d="M33.3608 105.522C33.3608 105.535 33.3948 105.567 33.4235 105.617C33.4523 105.666 33.4653 105.716 33.4784 105.716C33.4915 105.716 33.4993 105.656 33.4627 105.593C33.4262 105.53 33.3661 105.512 33.3608 105.522Z" fill="#263238"/>
<path d="M33.1912 105.283C33.1912 105.283 33.1912 105.32 33.1912 105.349C33.1912 105.378 33.2307 105.397 33.2412 105.392C33.2518 105.386 33.2412 105.355 33.2412 105.325C33.2412 105.296 33.2017 105.278 33.1912 105.283Z" fill="#263238"/>
<path d="M43.7793 65.486C43.7793 65.486 42.528 70.8039 42.8833 71.8564C43.2385 72.909 45.5296 73.5153 45.5296 73.5153L45.4513 88.0803L32.7759 103.829L37.4521 107.672C37.4521 107.672 51.1776 91.8994 52.3872 89.0358C53.5967 86.1721 51.6035 65.2419 51.6035 65.2419L43.7793 65.486Z" fill="#263238"/>
<path d="M50.2527 63.3179L50.8718 107.551L44.427 107.59L41.1903 71.5571C40.5058 70.9009 39.5418 69.7775 39.6751 67.2708L39.8318 64.3599L50.2527 63.3179Z" fill="#263238"/>
<path d="M43.4604 90.5423C43.4699 90.519 43.4822 90.4969 43.497 90.4767C43.531 90.4294 43.5702 90.3691 43.6198 90.2956L44.0979 89.6157L45.8482 87.1799V87.214C45.7071 85.6785 45.5373 83.8176 45.3544 81.8096C45.1193 79.1848 44.9312 76.7962 44.8189 75.0665C44.7614 74.2029 44.7249 73.5047 44.704 73.0217C44.704 72.7908 44.6883 72.6044 44.6857 72.4627C44.6777 72.3982 44.6777 72.3329 44.6857 72.2684C44.6983 72.3325 44.7062 72.3974 44.7092 72.4627C44.7092 72.6018 44.7353 72.7881 44.7536 73.0191C44.7928 73.5152 44.845 74.2082 44.9129 75.0612C45.0488 76.7857 45.2526 79.1664 45.4877 81.7965C45.6627 83.8123 45.8403 85.6707 45.9579 87.214V87.2324V87.2482L44.1684 89.6525L43.6642 90.3166L43.5284 90.4872C43.4735 90.5292 43.4604 90.5449 43.4604 90.5423Z" fill="#455A64"/>
<path d="M45.4355 72.2685C44.8588 72.2377 44.2865 72.1498 43.727 72.006C43.1578 71.9093 42.5995 71.7563 42.0603 71.5493C42.6314 71.6228 43.1975 71.7307 43.7558 71.8722C44.3227 71.972 44.8836 72.1043 45.4355 72.2685Z" fill="#455A64"/>
<path d="M49.8503 87.3794C49.294 87.1475 48.7086 86.9938 48.1105 86.9227C47.5079 86.8984 46.9049 86.9576 46.3184 87.0986C46.4715 87.0014 46.6418 86.9346 46.8199 86.9017C47.2458 86.7901 47.6874 86.751 48.1261 86.7862C48.5621 86.8214 48.9893 86.9288 49.3905 87.1038C49.559 87.1673 49.7147 87.2606 49.8503 87.3794V87.3794Z" fill="#455A64"/>
<path d="M52.1259 89.4214C52.1546 89.4451 50.3416 91.8914 48.0741 94.8836C45.8065 97.8759 43.9439 100.288 43.9151 100.267C43.8864 100.246 45.6994 97.7972 47.967 94.8023C50.2345 91.8074 52.0972 89.3978 52.1259 89.4214Z" fill="#455A64"/>
<path d="M51.2532 66.6015C51.1789 66.7931 51.0532 66.9603 50.89 67.0845C50.7034 67.2488 50.4849 67.3725 50.2483 67.4479C50.0118 67.5233 49.7623 67.5487 49.5155 67.5226C49.2687 67.4965 49.0299 67.4194 48.8142 67.2961C48.5985 67.1728 48.4105 67.006 48.262 66.8063C48.1237 66.6528 48.0329 66.4622 48.0007 66.2577C48.1013 66.4256 48.2112 66.5878 48.3299 66.7433C48.6285 67.1069 49.0573 67.3382 49.5239 67.3873C49.9905 67.4364 50.4577 67.2994 50.8247 67.0058C50.9745 66.8786 51.1175 66.7437 51.2532 66.6015V66.6015Z" fill="#455A64"/>
<path d="M42.4417 43.8419C41.3797 42.8281 40.7535 41.4379 40.6964 39.9671C40.6393 38.4964 41.1558 37.0614 42.136 35.9675" fill="#263238"/>
<path d="M38.8182 47.968C38.8182 47.968 37.4179 49.5586 37.1279 55.6403C37.1279 55.6403 41.1171 56.4015 41.1902 56.1836C41.2634 55.9658 38.8182 47.968 38.8182 47.968Z" fill="url(#paint14_linear_639_162)"/>
<g opacity="0.3">
<path d="M38.8182 47.968C38.8182 47.968 37.4179 49.5586 37.1279 55.6403C37.1279 55.6403 41.1171 56.4015 41.1902 56.1836C41.2634 55.9658 38.8182 47.968 38.8182 47.968Z" fill="black"/>
</g>
<path d="M39.4661 65.6829H51.7156L51.5171 63.7589C51.5171 63.7589 50.1168 56.4462 50.1273 56.3491L50.3467 55.8845C50.6329 55.2812 50.786 54.623 50.7955 53.9547C50.8049 53.2865 50.6706 52.6241 50.4016 52.0129L56.4101 49.9525L54.9419 44.9811C52.2198 45.4404 48.1053 45.9575 48.1053 45.9575L47.494 46.0074C47.494 46.0074 43.2462 46.2305 43.1548 46.241C41.3783 46.4588 39.3119 46.5953 38.5569 48.5062C38.152 49.5272 38.536 51.0601 39.197 52.6402L40.7644 57.4961C41.3914 60.1655 40.3908 60.0369 39.8396 62.7247C39.7508 63.129 39.4582 65.3102 39.4661 65.6829Z" fill="url(#paint15_linear_639_162)"/>
<g opacity="0.3">
<path d="M39.4661 65.6829H51.7156L51.5171 63.7589C51.5171 63.7589 50.1168 56.4462 50.1273 56.3491L50.3467 55.8845C50.6329 55.2812 50.786 54.623 50.7955 53.9547C50.8049 53.2865 50.6706 52.6241 50.4016 52.0129L56.4101 49.9525L54.9419 44.9811C52.2198 45.4404 48.1053 45.9575 48.1053 45.9575L47.494 46.0074C47.494 46.0074 43.2462 46.2305 43.1548 46.241C41.3783 46.4588 39.3119 46.5953 38.5569 48.5062C38.152 49.5272 38.536 51.0601 39.197 52.6402L40.7644 57.4961C41.3914 60.1655 40.3908 60.0369 39.8396 62.7247C39.7508 63.129 39.4582 65.3102 39.4661 65.6829Z" fill="black"/>
</g>
<path d="M56.3422 50.0337C56.2594 50.0805 56.1718 50.1184 56.081 50.1466C55.9086 50.2096 55.6552 50.2962 55.3417 50.409C54.7147 50.6216 53.8422 50.9025 52.8808 51.2122C51.9194 51.522 51.0521 51.8291 50.4513 52.081C50.143 52.207 49.9 52.3173 49.7302 52.3908C49.6479 52.4366 49.5601 52.4719 49.469 52.4958C49.5449 52.4351 49.6272 52.3832 49.7146 52.3409C49.8791 52.2543 50.1169 52.1283 50.4199 51.9918C51.2119 51.645 52.022 51.3418 52.8468 51.0836C53.8108 50.7739 54.6755 50.5062 55.3208 50.3172C55.6369 50.2227 55.8955 50.1492 56.0731 50.0993C56.1598 50.0663 56.2502 50.0442 56.3422 50.0337V50.0337Z" fill="#263238"/>
<path d="M55.6317 47.3854C55.6317 47.4221 52.0083 47.4536 47.5333 47.4536C43.0582 47.4536 39.4348 47.4221 39.4348 47.3854C39.4348 47.3486 43.0556 47.3171 47.5333 47.3171C52.0109 47.3171 55.6317 47.3486 55.6317 47.3854Z" fill="#FAFAFA"/>
<path d="M56.0001 49.8027C56.0001 49.8395 51.9692 49.871 46.9978 49.871C42.0264 49.871 37.998 49.8395 37.998 49.8027C37.998 49.766 42.0264 49.7345 46.9978 49.7345C51.9692 49.7345 56.0001 49.766 56.0001 49.8027Z" fill="#FAFAFA"/>
<path d="M39.0195 52.5536C38.7746 52.6204 38.5199 52.6435 38.2671 52.6219C38.0151 52.6434 37.7614 52.6203 37.5173 52.5536C37.7614 52.487 38.0151 52.4639 38.2671 52.4854C38.5199 52.4638 38.7746 52.4869 39.0195 52.5536V52.5536Z" fill="#FAFAFA"/>
<path d="M50.7751 52.6376C50.7751 52.6743 48.1392 52.7058 44.8894 52.7058C41.6396 52.7058 39.0037 52.6743 39.0037 52.6376C39.0037 52.6008 41.637 52.5693 44.8894 52.5693C48.1418 52.5693 50.7751 52.5982 50.7751 52.6376Z" fill="#FAFAFA"/>
<path d="M50.5139 55.4697C50.5139 55.5091 48.1471 55.538 45.2317 55.538C42.3162 55.538 39.9468 55.5091 39.9468 55.4697C39.9468 55.4304 42.311 55.4015 45.2317 55.4015C48.1523 55.4015 50.5139 55.433 50.5139 55.4697Z" fill="#FAFAFA"/>
<path d="M50.4408 58.0971C50.4408 58.1338 48.2987 58.1653 45.6549 58.1653C43.0112 58.1653 40.8638 58.1338 40.8638 58.0971C40.8638 58.0603 43.0086 58.0288 45.6549 58.0288C48.3013 58.0288 50.4408 58.0577 50.4408 58.0971Z" fill="#FAFAFA"/>
<path d="M50.8613 60.2207C50.8613 60.2601 48.5676 60.289 45.7384 60.289C42.9092 60.289 40.6155 60.2601 40.6155 60.2207C40.6155 60.1813 42.9092 60.1525 45.7384 60.1525C48.5676 60.1525 50.8613 60.184 50.8613 60.2207Z" fill="#FAFAFA"/>
<path d="M51.5249 62.9293C51.5249 62.9687 48.9125 62.9976 45.6967 62.9976C42.4808 62.9976 39.8684 62.9687 39.8684 62.9293C39.8684 62.89 42.4808 62.8611 45.6967 62.8611C48.9125 62.8611 51.5249 62.8926 51.5249 62.9293Z" fill="#FAFAFA"/>
<path d="M40.6836 57.2677C40.6343 57.1937 40.5972 57.1122 40.5739 57.0262L40.3126 56.3543C40.0958 55.7873 39.7902 55.0051 39.4767 54.1311C39.1632 53.257 38.8993 52.4591 38.7348 51.8738C38.6538 51.5798 38.5911 51.3488 38.5571 51.1756C38.532 51.0902 38.5171 51.002 38.5127 50.9131C38.6336 51.2179 38.7382 51.5289 38.8262 51.8449C39.0143 52.4223 39.2886 53.215 39.6099 54.0865C39.9312 54.9579 40.2134 55.7453 40.3936 56.3228C40.4903 56.6115 40.5634 56.8478 40.6105 57.0105C40.6457 57.0928 40.6702 57.1792 40.6836 57.2677V57.2677Z" fill="#263238"/>
</g>
<defs>
<linearGradient id="paint0_linear_639_162" x1="103.503" y1="68.3264" x2="130.306" y2="68.3264" gradientUnits="userSpaceOnUse">
<stop stop-color="#E07AA4"/>
<stop offset="1" stop-color="#F6790B"/>
</linearGradient>
<linearGradient id="paint1_linear_639_162" x1="66.3059" y1="12.5307" x2="89.0521" y2="12.5307" gradientUnits="userSpaceOnUse">
<stop stop-color="#E07AA4"/>
<stop offset="1" stop-color="#F6790B"/>
</linearGradient>
<linearGradient id="paint2_linear_639_162" x1="71.0474" y1="6.50008" x2="84.1433" y2="6.50008" gradientUnits="userSpaceOnUse">
<stop stop-color="#E07AA4"/>
<stop offset="1" stop-color="#F6790B"/>
</linearGradient>
<linearGradient id="paint3_linear_639_162" x1="55.6865" y1="30.9672" x2="65.0468" y2="30.9672" gradientUnits="userSpaceOnUse">
<stop stop-color="#E07AA4"/>
<stop offset="1" stop-color="#F6790B"/>
</linearGradient>
<linearGradient id="paint4_linear_639_162" x1="55.6865" y1="45.4639" x2="65.0468" y2="45.4639" gradientUnits="userSpaceOnUse">
<stop stop-color="#E07AA4"/>
<stop offset="1" stop-color="#F6790B"/>
</linearGradient>
<linearGradient id="paint5_linear_639_162" x1="57.5466" y1="44.9876" x2="66.7397" y2="44.9876" gradientUnits="userSpaceOnUse">
<stop stop-color="#E07AA4"/>
<stop offset="1" stop-color="#F6790B"/>
</linearGradient>
<linearGradient id="paint6_linear_639_162" x1="55.6865" y1="59.4936" x2="65.0468" y2="59.4936" gradientUnits="userSpaceOnUse">
<stop stop-color="#E07AA4"/>
<stop offset="1" stop-color="#F6790B"/>
</linearGradient>
<linearGradient id="paint7_linear_639_162" x1="57.5466" y1="59.0158" x2="66.7397" y2="59.0158" gradientUnits="userSpaceOnUse">
<stop stop-color="#E07AA4"/>
<stop offset="1" stop-color="#F6790B"/>
</linearGradient>
<linearGradient id="paint8_linear_639_162" x1="55.6865" y1="73.0401" x2="65.0468" y2="73.0401" gradientUnits="userSpaceOnUse">
<stop stop-color="#E07AA4"/>
<stop offset="1" stop-color="#F6790B"/>
</linearGradient>
<linearGradient id="paint9_linear_639_162" x1="57.5466" y1="72.5611" x2="66.7397" y2="72.5611" gradientUnits="userSpaceOnUse">
<stop stop-color="#E07AA4"/>
<stop offset="1" stop-color="#F6790B"/>
</linearGradient>
<linearGradient id="paint10_linear_639_162" x1="41.8381" y1="35.4213" x2="42.7472" y2="35.4213" gradientUnits="userSpaceOnUse">
<stop stop-color="#E07AA4"/>
<stop offset="1" stop-color="#F6790B"/>
</linearGradient>
<linearGradient id="paint11_linear_639_162" x1="58.1475" y1="32.941" x2="67.3405" y2="32.941" gradientUnits="userSpaceOnUse">
<stop stop-color="#E07AA4"/>
<stop offset="1" stop-color="#F6790B"/>
</linearGradient>
<linearGradient id="paint12_linear_639_162" x1="45.4172" y1="107.829" x2="51.7746" y2="107.829" gradientUnits="userSpaceOnUse">
<stop stop-color="#E07AA4"/>
<stop offset="1" stop-color="#F6790B"/>
</linearGradient>
<linearGradient id="paint13_linear_639_162" x1="32.4597" y1="106.833" x2="37.3756" y2="106.833" gradientUnits="userSpaceOnUse">
<stop stop-color="#E07AA4"/>
<stop offset="1" stop-color="#F6790B"/>
</linearGradient>
<linearGradient id="paint14_linear_639_162" x1="37.1279" y1="52.0954" x2="41.1918" y2="52.0954" gradientUnits="userSpaceOnUse">
<stop stop-color="#E07AA4"/>
<stop offset="1" stop-color="#F6790B"/>
</linearGradient>
<linearGradient id="paint15_linear_639_162" x1="38.3911" y1="55.332" x2="56.4101" y2="55.332" gradientUnits="userSpaceOnUse">
<stop stop-color="#E07AA4"/>
<stop offset="1" stop-color="#F6790B"/>
</linearGradient>
<clipPath id="clip0_639_162">
<rect width="114" height="107" fill="white" transform="translate(18 3)"/>
</clipPath>
</defs>
</svg>
