<svg width="150" height="112" viewBox="0 0 150 112" fill="none" xmlns="http://www.w3.org/2000/svg">
<rect width="150" height="112" fill="white"/>
<path d="M19.6057 51.7091L9.69189 79.9177L52.0475 94.4508L61.9613 66.2421L19.6057 51.7091Z" fill="#EBEBEB"/>
<path d="M61.9586 66.2381C61.7915 66.3349 61.6156 66.4159 61.4331 66.48L59.8954 67.0943L54.2066 69.2933L35.341 76.4283L35.1842 76.4853L35.0961 76.3467L34.8788 76.0097L24.0073 58.8693L20.7503 53.6506L19.8837 52.2209C19.7765 52.0582 19.6844 51.8863 19.6086 51.7072C19.7386 51.8524 19.8537 52.0099 19.9525 52.1774L20.8851 53.5663L24.2494 58.728L35.2254 75.8058C35.297 75.9227 35.3712 76.0369 35.44 76.1429L35.1952 76.0613L54.1048 69.0405L59.8404 66.9503L61.4056 66.4066C61.5839 66.3328 61.7691 66.2763 61.9586 66.2381V66.2381Z" fill="#E0E0E0"/>
<path d="M9.69171 79.9292C9.63394 79.8341 14.1784 77.0616 19.8397 73.7347C25.5011 70.4077 30.1391 67.7902 30.1968 67.8853C30.2546 67.9805 25.7101 70.7529 20.0461 74.0799C14.382 77.4068 9.74948 80.0108 9.69171 79.9292Z" fill="#E0E0E0"/>
<path d="M44.3995 72.3485C44.5041 72.3131 46.3032 77.241 48.4158 83.3323C50.5285 89.4236 52.1543 94.4113 52.047 94.4466C51.9397 94.4819 50.1434 89.554 48.0307 83.4628C45.918 77.3715 44.2923 72.3838 44.3995 72.3485Z" fill="#E0E0E0"/>
<path d="M144.594 44.3696L102.682 51.3888L107.47 79.3024L149.382 72.2832L144.594 44.3696Z" fill="#E0E0E0"/>
<path d="M144.593 44.382C144.498 44.5375 144.39 44.684 144.268 44.8196L143.275 46.0237L139.561 50.4161C136.373 54.1318 132.01 59.2173 127.182 64.8492L127.08 64.9688L126.943 64.8927L126.607 64.7106L109.656 55.3658L104.542 52.4955L103.167 51.6991C103.001 51.6147 102.844 51.5136 102.699 51.3974C102.874 51.4608 103.044 51.539 103.205 51.6311L104.622 52.3677L109.797 55.1293L126.802 64.3709L127.138 64.553L126.899 64.5965L139.371 50.2367L143.176 45.9231C143.613 45.442 143.96 45.056 144.224 44.7625C144.336 44.6262 144.46 44.4989 144.593 44.382V44.382Z" fill="#EBEBEB"/>
<path d="M107.469 79.3122C107.378 79.2578 109.873 74.9034 113.042 69.5868C116.212 64.2702 118.858 60.0028 118.949 60.0572C119.039 60.1115 116.544 64.4632 113.375 69.7825C110.206 75.1018 107.56 79.3638 107.469 79.3122Z" fill="#EBEBEB"/>
<path d="M132.821 57.369C132.893 57.2929 136.673 60.5682 141.231 64.6888C145.789 68.8095 149.453 72.2125 149.379 72.2995C149.305 72.3865 145.544 69.0949 140.97 64.9797C136.395 60.8645 132.739 57.4532 132.821 57.369Z" fill="#EBEBEB"/>
<path d="M102.703 0.000106859L95.1521 18.9688L123.635 30.0376L131.185 11.069L102.703 0.000106859Z" fill="#EBEBEB"/>
<path d="M131.177 11.3217C131.061 11.3855 130.938 11.4356 130.811 11.4712L129.746 11.8518L125.804 13.1972L112.735 17.5462L112.627 17.5815L112.572 17.4837L112.435 17.2499L105.505 5.26037C104.639 3.74095 103.934 2.5015 103.431 1.61268L102.881 0.615137C102.811 0.50124 102.752 0.381118 102.705 0.256348C102.79 0.358892 102.866 0.468988 102.93 0.585238C103.079 0.832585 103.277 1.15604 103.527 1.55832L105.679 5.16524C107.483 8.24485 109.956 12.4579 112.685 17.1249L112.823 17.3614L112.66 17.2988L125.752 13.026L129.713 11.7512L130.794 11.4332C130.918 11.3861 131.046 11.3488 131.177 11.3217V11.3217Z" fill="#E0E0E0"/>
<path d="M95.1454 19.2259C95.1069 19.1607 98.2841 17.3912 102.24 15.2765C106.196 13.1618 109.431 11.5038 109.466 11.569C109.502 11.6342 106.33 13.4037 102.372 15.5102C98.4134 17.6168 95.1811 19.2938 95.1454 19.2259Z" fill="#E0E0E0"/>
<path d="M119.029 15.0101C119.103 14.9884 120.192 18.3941 121.46 22.6208C122.729 26.8474 123.702 30.2804 123.628 30.3021C123.554 30.3239 122.465 26.9208 121.196 22.6915C119.928 18.4621 118.954 15.0319 119.029 15.0101Z" fill="#E0E0E0"/>
<path d="M3.91506 37.3801L7.84883 36.002L6.15703 33.7705C6.07315 33.2774 6.03266 32.7782 6.03599 32.2782C6.03689 32.0208 6.08153 31.7654 6.16803 31.5226C6.26353 31.2171 6.40147 30.9262 6.57792 30.6583C6.62168 30.6127 6.64965 30.5546 6.65779 30.4922C6.66593 30.4299 6.65382 30.3667 6.6232 30.3116C6.59259 30.2566 6.54506 30.2126 6.48747 30.186C6.42988 30.1593 6.36522 30.1515 6.30283 30.1636C6.02774 30.2315 5.51057 30.8512 5.27675 31.77C5.04292 32.6887 4.40472 31.3351 4.17639 30.8485C3.94807 30.362 3.1173 28.8833 2.90548 28.8371C2.59738 28.7692 2.46809 29.0845 2.72117 29.5656C2.97425 30.0467 3.62621 31.5471 3.35663 31.6612C3.08704 31.7754 1.90141 29.2693 1.90141 29.2693C1.90141 29.2693 1.73635 28.6931 1.42275 28.8154C0.85607 29.0328 2.32229 31.6014 2.46809 31.8406C2.56987 32.0091 2.28378 32.1423 2.193 31.9575C2.10222 31.7727 1.06239 29.4324 0.484701 29.6498C0.0418082 29.8156 1.67033 31.7727 1.61257 32.3679C1.5548 32.9632 0.531465 30.7615 0.11333 30.9355C-0.0407201 31.0007 -0.161759 31.0714 0.624995 32.2565C1.01031 32.8109 1.42442 33.3453 1.86565 33.8575V33.8575L3.92056 37.3747" fill="#FFBE9D"/>
<path d="M39.3217 42.1314C39.3217 42.1314 37.3796 37.652 36.0399 35.4748C34.7772 33.4253 33.1047 33.0937 32.2134 33.0285C31.8439 32.9162 31.4644 32.8388 31.08 32.7974L23.8039 32.7404C22.2136 32.7546 20.6772 33.3116 19.4548 34.3169C19.1164 34.5887 16.5994 37.4753 13.257 41.585L7.4114 35.3334L3.92603 37.372C3.92603 37.372 7.71125 50.2857 12.4538 49.3996C15.2762 48.8804 17.4769 46.9451 17.4769 46.9451L21.1768 43.9987L21.2621 44.488C21.3364 45.0832 21.5235 46.0454 21.6665 46.6271C22.1121 48.4727 22.3625 50.9027 21.3914 52.5118C21.3914 52.5118 20.0737 53.5093 21.1163 54.6047H34.8295C34.8295 54.6047 36.7716 53.3028 34.9973 51.8567L33.897 49.1087L34.6149 45.7546L34.89 44.4119L36.0977 46.4559C36.0977 46.4559 38.4854 49.424 40.9695 49.0598C43.9542 48.6195 45.6845 43.2458 42.9914 36.1407L39.7453 37.1165L39.3217 42.1314Z" fill="url(#paint0_linear_639_164)"/>
<g opacity="0.4">
<path d="M3.91504 37.3801L4.2589 38.4565L8.1294 36.1216L7.40041 35.3416L3.91504 37.3801Z" fill="black"/>
</g>
<g opacity="0.2">
<path d="M21.3887 52.5118C21.9651 52.4266 22.518 52.2271 23.0144 51.9253C23.5108 51.6236 23.9403 51.2258 24.2771 50.7559C24.6301 50.2826 24.8847 49.745 25.0263 49.174C25.168 48.603 25.1938 48.0099 25.1024 47.429C25.0874 47.2226 25.0288 47.0215 24.9302 46.8389C24.8316 46.6563 24.6954 46.4962 24.5302 46.3689C24.0983 46.0971 23.5069 46.2384 23.0585 46.002C22.6899 45.809 22.4946 45.4121 22.2332 45.086C21.9719 44.7598 21.6225 44.2542 21.2429 44.4173C21.2429 44.4173 21.7023 46.8093 21.9031 47.8747C22.1039 48.9402 22.1782 50.4705 21.7903 51.5877C21.6909 51.9092 21.5562 52.2191 21.3887 52.5118V52.5118Z" fill="black"/>
</g>
<path d="M12.6958 43.7785C12.6997 43.3957 12.7685 43.0163 12.8994 42.656C12.9835 42.2845 13.0994 41.9208 13.246 41.5687C13.2454 41.9518 13.1765 42.3318 13.0424 42.6913C12.9583 43.0628 12.8423 43.4265 12.6958 43.7785Z" fill="#263238"/>
<path d="M13.5652 43.1941C13.357 42.6811 13.2452 42.1349 13.2351 41.5823C13.3609 41.8299 13.441 42.0978 13.4717 42.3732C13.5497 42.6396 13.5814 42.9172 13.5652 43.1941V43.1941Z" fill="#263238"/>
<path d="M39.7124 27.3721L34.7361 35.3415L38.6533 36.4179L42.9998 29.7966L39.7124 27.3721Z" fill="#455A64"/>
<path d="M39.4043 34.162L39.5721 35.328L40.2681 36.2114L40.3369 36.9344L42.8347 36.1842L41.8251 32.6507C41.906 32.1749 41.9391 31.6924 41.9242 31.2101L41.2364 32.1098L41.0466 30.642L39.6409 29.5249C39.6045 29.4984 39.5631 29.4793 39.5191 29.4686C39.4752 29.458 39.4295 29.456 39.3848 29.4628C39.3401 29.4697 39.2972 29.4851 39.2585 29.5084C39.2198 29.5316 39.1862 29.5622 39.1595 29.5983C39.1121 29.6636 39.0897 29.7434 39.0962 29.8236C39.1028 29.9037 39.1379 29.9789 39.1953 30.0359L40.3259 31.0198L40.4002 32.2348L39.5749 31.4846C39.4943 31.4102 39.3943 31.3593 39.2861 31.3379L38.1499 31.1123C38.1094 31.1045 38.0678 31.1052 38.0275 31.1142C37.9873 31.1232 37.9494 31.1404 37.9163 31.1647C37.8832 31.189 37.8555 31.2198 37.8351 31.2553C37.8147 31.2907 37.802 31.3299 37.7978 31.3705V31.3705C37.7909 31.4377 37.8076 31.5052 37.8452 31.5617C37.8828 31.6181 37.9389 31.66 38.0041 31.6803L39.0385 31.9929L40.0838 33.0367L39.0605 32.6507L37.6713 32.8437C37.6062 32.8541 37.547 32.8873 37.5046 32.9372C37.4622 32.9871 37.4394 33.0503 37.4402 33.1155V33.1155C37.4402 33.1876 37.4692 33.2567 37.5208 33.3077C37.5724 33.3587 37.6423 33.3873 37.7153 33.3873L38.5983 33.3384L39.1182 33.4987L37.9244 33.8113C37.8706 33.8246 37.8233 33.8561 37.7906 33.9003C37.7579 33.9445 37.742 33.9986 37.7456 34.0532V34.0532C37.7469 34.085 37.7548 34.1162 37.7687 34.145C37.7825 34.1737 37.8021 34.1993 37.8263 34.2204C37.8504 34.2415 37.8786 34.2575 37.9092 34.2676C37.9397 34.2776 37.972 34.2814 38.0041 34.2788L39.4043 34.162Z" fill="#FFBE9D"/>
<g opacity="0.4">
<path d="M39.7288 37.1165L39.6243 38.4212L43.4095 37.3911L42.9749 36.1407L39.7288 37.1165Z" fill="black"/>
</g>
<path d="M34.736 35.3525C34.736 35.3525 34.4004 34.904 34.4279 34.8279C34.4554 34.7518 39.1649 27.0895 39.1649 27.0895L39.7151 27.383L34.736 35.3525Z" fill="#263238"/>
<path d="M40.9612 29.3726C40.9824 29.3515 41.0089 29.3363 41.0379 29.3284C41.0669 29.3205 41.0975 29.3202 41.1267 29.3276C41.1559 29.3349 41.1826 29.3497 41.2043 29.3703C41.2259 29.391 41.2418 29.4169 41.2502 29.4454C41.2587 29.474 41.2594 29.5042 41.2525 29.5332C41.2455 29.5621 41.231 29.5888 41.2104 29.6105C41.1899 29.6322 41.1639 29.6483 41.1352 29.6571C41.1064 29.6659 41.0758 29.6671 41.0464 29.6607C41.0194 29.6524 40.9947 29.6379 40.9743 29.6185C40.954 29.599 40.9385 29.5751 40.9291 29.5487C40.9198 29.5223 40.9168 29.4941 40.9205 29.4663C40.9241 29.4386 40.9343 29.4121 40.9502 29.3889" fill="#263238"/>
<path d="M37.8335 39.2094C37.7984 39.282 37.7499 39.3474 37.6904 39.4024C37.5189 39.5608 37.3068 39.6698 37.077 39.7177C36.714 39.7909 36.3397 39.7909 35.9766 39.7177C35.5144 39.6094 35.0356 39.5881 34.5654 39.6552C34.014 39.8139 33.5055 40.0926 33.0772 40.4706C32.5848 40.843 32.0649 41.3051 31.3662 41.5225C31.0087 41.6229 30.6346 41.6515 30.2658 41.6068C29.8882 41.5496 29.5189 41.4483 29.1654 41.3051C28.4447 41.0333 27.7542 40.631 26.995 40.3592C26.2633 40.0773 25.4621 40.0223 24.698 40.2015C23.9525 40.3537 23.2538 40.6092 22.5578 40.7451C21.314 41.01 20.0155 40.8329 18.8909 40.245C18.1292 39.857 17.4698 39.2985 16.9653 38.6142C16.7815 38.3671 16.6274 38.0998 16.5059 37.8177C16.5251 37.8177 16.6572 38.1113 17.012 38.5815C17.5275 39.2389 18.1855 39.7739 18.9376 40.1472C20.0465 40.7119 21.3205 40.8754 22.5386 40.6092C23.2235 40.4625 23.914 40.2042 24.6787 40.0466C25.469 39.8594 26.2983 39.9154 27.0555 40.207C27.8313 40.4788 28.5245 40.881 29.2315 41.1583C29.5744 41.2977 29.9326 41.3972 30.2988 41.4546C30.649 41.4967 31.004 41.4708 31.3442 41.3785C32.0044 41.1773 32.5215 40.7315 33.0167 40.3592C33.4625 39.9761 33.99 39.6973 34.5599 39.5437C35.0431 39.4786 35.5344 39.5063 36.0069 39.6253C36.3574 39.7038 36.7201 39.7131 37.0743 39.6525C37.2964 39.6151 37.5049 39.5214 37.6794 39.3807C37.734 39.3265 37.7854 39.2693 37.8335 39.2094V39.2094Z" fill="#FAFAFA"/>
<path d="M39.4016 44.3874C39.3153 43.992 39.2774 43.5877 39.2888 43.1833C39.2507 42.7802 39.2627 42.374 39.3246 41.9738C39.4109 42.3692 39.4488 42.7735 39.4374 43.1779C39.4754 43.581 39.4633 43.9872 39.4016 44.3874Z" fill="#263238"/>
<path d="M30.8215 94.3651C30.9398 94.8381 33.7457 110.383 33.7457 110.383L38.0454 110.065L37.2586 94.1912L30.8215 94.3651Z" fill="#FFBE9D"/>
<path d="M38.1746 110.312L38.1608 109.864L33.5806 109.959L33.6081 111.432H33.8832C35.1431 111.473 40.2927 111.557 41.1263 111.31C42.0671 111.041 38.1746 110.312 38.1746 110.312Z" fill="url(#paint1_linear_639_164)"/>
<g opacity="0.3">
<path d="M35.2615 111.367C35.1801 111.009 34.9649 110.694 34.659 110.486C34.3463 110.27 33.9666 110.169 33.5862 110.201L33.6109 111.372L35.2615 111.367Z" fill="black"/>
</g>
<g opacity="0.3">
<path d="M40.0782 110.731C40.0782 110.731 41.4537 111.065 41.2804 111.274C41.1071 111.484 35.9079 111.579 33.6082 111.435V111.34L39.6821 111.28C39.6821 111.28 39.8142 110.744 40.0782 110.731Z" fill="black"/>
</g>
<path d="M33.5422 111.337H33.6193H33.8448L34.6701 111.356C35.3716 111.356 36.3371 111.37 37.4072 111.356C38.4773 111.342 39.4429 111.302 40.1444 111.266L40.9696 111.22L41.1925 111.204H41.2722H41.1925H40.9669L40.1416 111.234C39.4429 111.258 38.4746 111.291 37.4072 111.307C36.3399 111.323 35.3716 111.329 34.6701 111.329H33.5422V111.337Z" fill="#263238"/>
<path d="M39.6876 111.342C39.72 111.214 39.769 111.091 39.8334 110.975C39.9124 110.866 40.0048 110.766 40.1085 110.679C39.9695 110.726 39.8536 110.823 39.7839 110.951C39.7022 111.064 39.6678 111.204 39.6876 111.342Z" fill="#263238"/>
<path d="M38.3287 110.739C38.3287 110.739 38.403 110.674 38.469 110.576C38.535 110.478 38.5735 110.394 38.5598 110.386C38.546 110.377 38.4855 110.451 38.4222 110.549C38.359 110.647 38.3149 110.731 38.3287 110.739Z" fill="#263238"/>
<path d="M37.9545 110.565C37.9545 110.565 38.0371 110.53 38.1141 110.464C38.1911 110.399 38.2434 110.337 38.2351 110.326C38.2269 110.315 38.1526 110.361 38.0756 110.426C37.9985 110.492 37.9435 110.557 37.9545 110.565Z" fill="#263238"/>
<path d="M37.7124 110.174C37.7894 110.199 37.8711 110.207 37.9517 110.198C38.0316 110.206 38.1124 110.197 38.1883 110.171C38.111 110.147 38.0296 110.138 37.949 110.146C37.8691 110.14 37.7888 110.149 37.7124 110.174V110.174Z" fill="#263238"/>
<path d="M37.6272 109.896C37.7095 109.947 37.8057 109.971 37.9023 109.964C37.996 109.978 38.0918 109.964 38.1774 109.924C38.0858 109.917 37.9938 109.917 37.9023 109.924C37.8116 109.906 37.7195 109.897 37.6272 109.896V109.896Z" fill="#263238"/>
<path d="M38.4744 110.372C38.5719 110.387 38.6712 110.387 38.7687 110.372C38.8736 110.359 38.9768 110.335 39.0768 110.301C39.1393 110.286 39.1994 110.262 39.2556 110.231C39.2723 110.222 39.287 110.21 39.2989 110.196C39.3107 110.181 39.3194 110.164 39.3244 110.146C39.3295 110.126 39.3276 110.105 39.3192 110.086C39.3107 110.066 39.2961 110.051 39.2776 110.04C39.1659 109.99 39.0401 109.977 38.9205 110.005C38.8008 110.033 38.6941 110.1 38.6174 110.195C38.5744 110.249 38.5434 110.311 38.5266 110.377C38.5266 110.424 38.5266 110.451 38.5266 110.451C38.5529 110.366 38.5959 110.288 38.6532 110.22C38.7193 110.146 38.8051 110.092 38.9008 110.065C39.0151 110.027 39.1399 110.032 39.2501 110.081C39.2969 110.111 39.2804 110.163 39.2309 110.19C39.1784 110.218 39.123 110.241 39.0658 110.258C38.968 110.292 38.8678 110.318 38.766 110.337C38.5872 110.372 38.4744 110.372 38.4744 110.372Z" fill="#263238"/>
<path d="M38.5516 110.372C38.5832 110.315 38.593 110.248 38.5791 110.184C38.5687 110.113 38.5403 110.046 38.4966 109.989C38.4697 109.948 38.433 109.914 38.3898 109.891C38.3466 109.868 38.2982 109.856 38.249 109.855C38.2348 109.858 38.2212 109.863 38.209 109.87C38.1969 109.878 38.1864 109.888 38.1781 109.9C38.1699 109.911 38.1642 109.924 38.1612 109.938C38.1583 109.952 38.1582 109.967 38.1609 109.98C38.1683 110.024 38.1862 110.065 38.2132 110.1C38.2538 110.159 38.3019 110.213 38.3563 110.26C38.4034 110.309 38.462 110.346 38.5268 110.366C38.5268 110.366 38.4663 110.32 38.3838 110.236C38.3357 110.187 38.2932 110.134 38.2572 110.076C38.216 110.021 38.1857 109.918 38.2572 109.904C38.2959 109.908 38.3333 109.92 38.367 109.939C38.4006 109.959 38.4298 109.985 38.4525 110.016C38.4946 110.066 38.5238 110.126 38.5378 110.19C38.5486 110.25 38.5532 110.311 38.5516 110.372V110.372Z" fill="#263238"/>
<path d="M33.6082 110.19C33.6082 110.19 33.7402 110.176 33.9465 110.19C34.2127 110.216 34.4676 110.31 34.6865 110.462C34.8969 110.61 35.0608 110.813 35.1597 111.049C35.2339 111.228 35.2422 111.348 35.2532 111.348C35.2592 111.32 35.2592 111.291 35.2532 111.264C35.2435 111.187 35.226 111.111 35.2009 111.038C35.1082 110.789 34.9413 110.574 34.7223 110.421C34.4962 110.261 34.2294 110.167 33.952 110.149C33.8688 110.141 33.7849 110.141 33.7017 110.149C33.6384 110.176 33.6082 110.184 33.6082 110.19Z" fill="#263238"/>
<path d="M35.8254 110.948C36.0453 110.992 36.2699 111.009 36.4939 110.997C36.7174 111.004 36.9409 110.983 37.1596 110.937C37.1596 110.921 36.8598 110.937 36.4912 110.937C36.1225 110.937 35.8282 110.935 35.8254 110.948Z" fill="#263238"/>
<path d="M34.9314 110.964C34.9314 110.964 34.9562 111.022 34.9892 111.084C35.0222 111.147 35.0387 111.201 35.0552 111.201C35.0717 111.201 35.0772 111.133 35.0387 111.062C35.0002 110.992 34.9424 110.954 34.9314 110.964Z" fill="#263238"/>
<path d="M34.5874 110.584C34.5874 110.584 34.6067 110.638 34.6534 110.682C34.7002 110.725 34.7497 110.752 34.7607 110.742C34.7717 110.731 34.7415 110.687 34.6919 110.644C34.6424 110.6 34.5957 110.576 34.5874 110.584Z" fill="#263238"/>
<path d="M34.1006 110.418C34.1006 110.432 34.1639 110.432 34.2327 110.451C34.3015 110.47 34.3482 110.502 34.3592 110.494C34.3702 110.486 34.3317 110.426 34.2492 110.402C34.1667 110.377 34.0951 110.405 34.1006 110.418Z" fill="#263238"/>
<path d="M33.7539 110.342C33.7539 110.342 33.7759 110.375 33.8144 110.388C33.8529 110.402 33.8887 110.402 33.8942 110.388C33.8997 110.375 33.8722 110.353 33.8337 110.339C33.7952 110.326 33.7594 110.329 33.7539 110.342Z" fill="#263238"/>
<path d="M19.884 93.0686C19.862 93.5551 18.0767 108.692 18.0767 108.692L22.2828 109.614L26.1643 94.1912L19.884 93.0686Z" fill="#FFBE9D"/>
<path d="M22.4726 110.016L22.5689 109.581L18.0959 108.594L17.7686 110.032L18.0436 110.108C19.2568 110.445 24.2386 111.739 25.1107 111.693C26.079 111.641 22.4726 110.016 22.4726 110.016Z" fill="url(#paint2_linear_639_164)"/>
<g opacity="0.3">
<path d="M19.4026 110.372C19.4112 110.005 19.2785 109.648 19.0312 109.374C18.7797 109.09 18.435 108.902 18.0574 108.844L17.7988 109.989L19.4026 110.372Z" fill="black"/>
</g>
<g opacity="0.3">
<path d="M24.2221 110.872C24.2221 110.872 25.4683 111.519 25.2592 111.688C25.0502 111.856 19.9693 110.717 17.7686 110.038L17.7961 109.948L23.7105 111.307C23.7105 111.307 23.9608 110.823 24.2221 110.872Z" fill="black"/>
</g>
<path d="M17.7273 109.923L17.8016 109.948L18.0189 110.01L18.8194 110.222C19.4989 110.396 20.4369 110.627 21.4795 110.861C22.5221 111.095 23.4711 111.288 24.1589 111.418L24.9841 111.568L25.207 111.603H25.2867L25.2097 111.584L24.9896 111.538L24.1644 111.372C23.4767 111.231 22.5303 111.035 21.4878 110.801C20.4452 110.568 19.5071 110.342 18.8249 110.176L18.0271 109.991L17.8071 109.94C17.7814 109.93 17.7546 109.925 17.7273 109.923Z" fill="#263238"/>
<path d="M23.6938 111.375C23.7573 111.258 23.8349 111.15 23.9249 111.051C24.0298 110.965 24.1442 110.89 24.266 110.829C24.1209 110.845 23.9863 110.911 23.8864 111.016C23.7777 111.107 23.7087 111.235 23.6938 111.375V111.375Z" fill="#263238"/>
<path d="M22.5193 110.47C22.5193 110.47 22.6101 110.424 22.6954 110.342C22.7806 110.261 22.8412 110.19 22.8302 110.182C22.8192 110.174 22.7421 110.228 22.6569 110.307C22.5716 110.386 22.5083 110.459 22.5193 110.47Z" fill="#263238"/>
<path d="M22.1973 110.214C22.2613 110.209 22.3228 110.187 22.3761 110.152C22.4669 110.106 22.5357 110.057 22.5274 110.046C22.5192 110.035 22.4394 110.059 22.3486 110.106C22.2579 110.152 22.1918 110.201 22.1973 110.214Z" fill="#263238"/>
<path d="M22.0571 109.777C21.7693 109.772 21.4903 109.876 21.2777 110.067C21.0651 110.259 20.935 110.524 20.9143 110.808C20.8936 111.092 20.9837 111.373 21.1662 111.593C21.3487 111.813 21.6097 111.956 21.8954 111.991C22.181 112.027 22.4697 111.953 22.7019 111.785C22.9341 111.617 23.0921 111.367 23.1435 111.087C23.1949 110.807 23.1358 110.518 22.9782 110.28C22.8206 110.042 22.5766 109.872 22.2965 109.807C22.2196 109.781 22.1382 109.77 22.0571 109.777V109.777Z" fill="#263238"/>
<path d="M22.0408 109.486C22.1069 109.551 22.1912 109.596 22.2829 109.614C22.3702 109.648 22.4655 109.657 22.5579 109.641C22.4744 109.607 22.3878 109.582 22.2994 109.565C22.2152 109.532 22.1288 109.506 22.0408 109.486V109.486Z" fill="#263238"/>
<path d="M22.7505 110.146C22.8385 110.18 22.9313 110.201 23.0256 110.206C23.1317 110.216 23.2386 110.216 23.3447 110.206C23.4078 110.203 23.4705 110.194 23.5317 110.179C23.5692 110.169 23.6016 110.146 23.6225 110.114C23.6311 110.095 23.6338 110.073 23.6304 110.053C23.627 110.032 23.6176 110.012 23.6033 109.997C23.5064 109.922 23.3867 109.881 23.2635 109.881C23.1403 109.881 23.0207 109.922 22.9238 109.997C22.8677 110.038 22.8216 110.091 22.789 110.152C22.767 110.193 22.7642 110.22 22.767 110.22C22.8136 110.145 22.8743 110.079 22.9458 110.027C23.0268 109.971 23.1222 109.939 23.2209 109.934C23.3413 109.924 23.4613 109.959 23.5565 110.032C23.595 110.073 23.5565 110.116 23.5097 110.133C23.4531 110.148 23.395 110.158 23.3364 110.163C23.2329 110.169 23.1291 110.169 23.0256 110.163C22.8605 110.16 22.7532 110.138 22.7505 110.146Z" fill="#263238"/>
<path d="M22.8219 110.174C22.8219 110.174 22.8824 110.122 22.8962 110C22.9019 109.928 22.8896 109.856 22.8604 109.79C22.8438 109.745 22.8161 109.703 22.7796 109.671C22.7432 109.638 22.6991 109.615 22.6513 109.603C22.637 109.602 22.6227 109.604 22.6092 109.609C22.5958 109.614 22.5834 109.621 22.5729 109.631C22.5624 109.641 22.5539 109.652 22.548 109.665C22.5421 109.678 22.5389 109.692 22.5386 109.706C22.5354 109.75 22.5429 109.794 22.5606 109.834C22.5852 109.9 22.6185 109.963 22.6596 110.021C22.6946 110.079 22.7426 110.129 22.7999 110.165C22.7999 110.165 22.7531 110.106 22.6926 110.005C22.6583 109.946 22.6298 109.884 22.6073 109.82C22.5798 109.755 22.5771 109.649 22.6513 109.654C22.7256 109.66 22.7834 109.744 22.8136 109.807C22.8424 109.866 22.8575 109.931 22.8577 109.997C22.8524 110.057 22.8404 110.116 22.8219 110.174Z" fill="#263238"/>
<path d="M18.0684 108.825C18.0684 108.825 18.1977 108.842 18.3957 108.91C18.648 108.994 18.8736 109.142 19.0504 109.339C19.2192 109.534 19.3297 109.771 19.3695 110.024C19.3808 110.127 19.3863 110.23 19.386 110.334C19.386 110.334 19.3998 110.304 19.4053 110.252C19.414 110.175 19.414 110.096 19.4053 110.019C19.3751 109.756 19.2659 109.509 19.0917 109.309C18.9075 109.104 18.6695 108.954 18.404 108.874C18.3233 108.85 18.2403 108.834 18.1564 108.825C18.1273 108.82 18.0975 108.82 18.0684 108.825V108.825Z" fill="#263238"/>
<path d="M20.0381 110.084C20.2402 110.178 20.4537 110.247 20.6735 110.288C20.8897 110.347 21.1123 110.38 21.3365 110.386C21.3365 110.372 21.0422 110.323 20.6873 110.239C20.3324 110.155 20.0436 110.07 20.0381 110.084Z" fill="#263238"/>
<path d="M19.166 109.888C19.166 109.888 19.166 109.951 19.1935 110.019C19.221 110.087 19.2128 110.144 19.2293 110.146C19.2458 110.149 19.2678 110.087 19.2485 110.011C19.2293 109.934 19.177 109.88 19.166 109.888Z" fill="#263238"/>
<path d="M18.9211 109.44C18.9211 109.44 18.9211 109.497 18.9652 109.548C19.0092 109.6 19.0422 109.638 19.0532 109.633C19.0642 109.627 19.0532 109.576 19.0119 109.524C18.9707 109.472 18.9349 109.432 18.9211 109.44Z" fill="#263238"/>
<path d="M18.4893 109.162C18.4893 109.179 18.5498 109.19 18.6103 109.225C18.6708 109.26 18.7121 109.304 18.7258 109.298C18.7396 109.293 18.7258 109.225 18.6378 109.181C18.5498 109.138 18.4893 109.149 18.4893 109.162Z" fill="#263238"/>
<path d="M18.1729 109.013C18.1729 109.013 18.1866 109.051 18.2196 109.073C18.2526 109.095 18.2884 109.103 18.2966 109.089C18.3049 109.075 18.2966 109.051 18.2499 109.029C18.2031 109.008 18.1811 108.997 18.1729 109.013Z" fill="#263238"/>
<path d="M35.674 25.6543C35.5612 25.3308 35.2834 25.0889 35.1486 24.7736C34.9478 24.3007 35.0963 23.7652 35.1486 23.2569C35.2009 22.7486 35.0936 22.1289 34.6232 21.9196C34.4173 21.8666 34.2151 21.8003 34.018 21.7212C33.6494 21.4929 33.6686 20.9764 33.6356 20.5497C33.6134 20.2675 33.5407 19.9914 33.4211 19.7343L33.4981 19.7098C33.7768 19.6431 34.0704 19.6755 34.3274 19.8012C34.5844 19.9269 34.7885 20.138 34.9038 20.3975C34.9546 20.506 34.9768 20.6256 34.9681 20.7449C34.9595 20.8642 34.9203 20.9794 34.8543 21.0797C34.7976 21.1632 34.7142 21.2255 34.6174 21.2566C34.5206 21.2876 34.4161 21.2857 34.3206 21.251C34.2466 21.2129 34.1874 21.1518 34.1521 21.0771C34.1168 21.0024 34.1074 20.9183 34.1253 20.8378C34.1484 20.7796 34.1911 20.7311 34.2463 20.7004C34.3014 20.6697 34.3655 20.6587 34.4279 20.6693C34.4696 20.6728 34.51 20.685 34.5465 20.7052C34.5831 20.7253 34.6148 20.7529 34.6397 20.7862C34.6727 20.8351 34.6755 20.8704 34.681 20.8677C34.6865 20.865 34.681 20.8324 34.681 20.7726C34.6577 20.7289 34.6244 20.6912 34.5839 20.6624C34.5433 20.6336 34.4965 20.6146 34.4471 20.6068C34.3763 20.5937 34.3032 20.5993 34.2353 20.6231C34.1928 20.6387 34.1543 20.6634 34.1224 20.6953C34.0906 20.7272 34.0662 20.7657 34.051 20.8079C34.0192 20.9106 34.0246 21.0211 34.0662 21.1203C34.1079 21.2195 34.1833 21.3013 34.2793 21.3515C34.3994 21.4035 34.5339 21.4129 34.6602 21.3783C34.7865 21.3436 34.8968 21.267 34.9726 21.1613C35.0561 21.0438 35.1077 20.9071 35.1221 20.7642C35.1366 20.6214 35.1135 20.4773 35.0551 20.3458C34.9397 20.0705 34.7348 19.841 34.4729 19.6934C34.2109 19.5457 33.9067 19.4884 33.6081 19.5304C33.6728 19.4225 33.7139 19.3024 33.7286 19.1779C33.7433 19.0533 33.7313 18.9271 33.6934 18.8074C33.6428 18.6615 33.5593 18.529 33.4492 18.4197C33.3391 18.3105 33.2053 18.2274 33.0579 18.1768C32.7997 18.083 32.519 18.0678 32.2519 18.1333C32.026 18.1875 31.8111 18.2795 31.6165 18.4051C31.4377 18.5193 31.3001 18.6443 31.1681 18.7286C31.0587 18.8066 30.9308 18.8553 30.7967 18.8699C30.6814 18.8804 30.5655 18.8568 30.4639 18.802C30.4639 18.802 30.5491 18.9324 30.7995 18.9324C30.9472 18.9284 31.0909 18.8842 31.2148 18.8047C31.3606 18.7231 31.5064 18.6008 31.677 18.5002C31.8681 18.3694 32.0871 18.2839 32.3171 18.2505C32.5471 18.217 32.7818 18.2364 33.0029 18.3073C33.1305 18.3505 33.2463 18.422 33.3417 18.5162C33.437 18.6104 33.5093 18.7249 33.5531 18.8509C33.5939 18.9772 33.5977 19.1124 33.5641 19.2408C33.5305 19.3692 33.4609 19.4856 33.3633 19.5766C33.2239 19.3262 33.0186 19.1177 32.7691 18.9732C32.2189 18.666 31.3936 18.8155 31.1186 19.3755L26.6044 17.8425C26.3213 17.6074 25.983 17.4466 25.6204 17.3749C25.2579 17.3031 24.883 17.3228 24.5302 17.432L24.4367 17.4157C24.176 17.3916 23.9134 17.4346 23.6747 17.5408C23.375 17.7068 23.1137 17.9327 22.9072 18.204C22.7834 18.3447 22.6376 18.4649 22.4753 18.56C22.4466 18.5726 22.4172 18.5834 22.3872 18.5927C22.1873 18.615 21.9859 18.6222 21.7848 18.6144C21.4052 18.5274 21.0118 18.3127 20.5441 18.2665C20.2827 18.2315 20.0168 18.25 19.7629 18.3208C19.4932 18.3994 19.2511 18.551 19.0642 18.7585C18.8676 18.976 18.7598 19.2578 18.7616 19.5494C18.7652 19.7587 18.7985 19.9664 18.8606 20.1664C18.7591 20.4355 18.7142 20.7222 18.7286 21.009C18.7478 21.3869 18.8579 21.7837 18.8634 22.1534C18.7528 22.2387 18.6267 22.3024 18.492 22.3409C18.2554 22.4143 17.9996 22.4496 17.7575 22.5421C17.5309 22.6333 17.3266 22.7714 17.1586 22.9473C16.9907 23.1231 16.8628 23.3325 16.7837 23.5613C16.708 23.7442 16.6795 23.9427 16.7006 24.1391C16.7217 24.3355 16.7919 24.5236 16.9047 24.6866C16.847 24.9347 16.8456 25.1924 16.9008 25.441C16.956 25.6896 17.0663 25.9231 17.2238 26.1245C17.4743 26.3596 17.7103 26.6092 17.9308 26.872C18.2279 27.3259 18.1839 27.9103 18.2609 28.4458C18.3379 28.9812 18.6488 29.5901 19.1962 29.6254C19.6364 29.6526 20.0215 29.2884 20.4726 29.3237C21.0888 29.3726 21.3419 30.1038 21.6995 30.6039C21.9304 30.9182 22.2423 31.1656 22.6027 31.3204C22.9631 31.4753 23.3589 31.532 23.7489 31.4846C24.2991 31.4085 24.8658 31.1177 25.4132 31.2536C26.1037 31.4275 26.5136 32.2266 27.2261 32.3272C27.7487 32.4006 28.2356 32.0554 28.6263 31.7021C29.0169 31.3487 29.4103 30.941 29.9329 30.8486C30.5601 30.7371 31.1653 31.1204 31.798 31.1965C32.2087 31.2451 32.6248 31.1734 32.9945 30.9902C33.3643 30.807 33.6714 30.5205 33.8777 30.1663C34.2243 29.5439 34.2216 28.7801 34.5489 28.1468C34.7994 27.7434 35.075 27.3557 35.3742 26.9862C35.6328 26.6029 35.8336 26.1109 35.674 25.6543ZM17.5732 23.6483C17.5224 23.6376 17.4699 23.6376 17.4191 23.6483C17.4191 23.6483 17.4659 23.6483 17.5429 23.6782L17.4577 23.7407C17.2001 23.9527 17.0139 24.2371 16.924 24.5562C16.8558 24.4117 16.8182 24.2549 16.8135 24.0955C16.8087 23.9362 16.837 23.7775 16.8965 23.6293C16.9721 23.4209 17.0916 23.2307 17.2471 23.0714C17.4027 22.9121 17.5907 22.7873 17.7988 22.7051C18.0188 22.6236 18.2692 22.5883 18.525 22.5122C18.6358 22.4813 18.7415 22.4346 18.8386 22.3735C18.8269 22.5216 18.7828 22.6653 18.7093 22.7948C18.4727 23.1998 17.9721 23.3711 17.5732 23.6483V23.6483ZM20.6542 18.647C20.2885 18.7153 19.9442 18.8674 19.6489 19.0912C19.3536 19.315 19.1156 19.6041 18.9541 19.9354C18.9261 19.8132 18.9113 19.6883 18.9101 19.563C18.9088 19.3091 19.0018 19.0634 19.1715 18.8726C19.3414 18.6957 19.5526 18.5623 19.7865 18.4842C20.0204 18.406 20.2701 18.3854 20.5139 18.4241C20.7673 18.457 21.0157 18.52 21.2539 18.6117C21.0534 18.6085 20.8529 18.6203 20.6542 18.647V18.647ZM22.9182 18.4595C22.8631 18.4839 22.8054 18.5002 22.7504 18.5193C22.8306 18.4473 22.9068 18.3711 22.9787 18.2909C23.1735 18.0276 23.4183 17.8042 23.6994 17.6332C23.9071 17.5324 24.1367 17.4839 24.3679 17.4918C24.2485 17.5349 24.1342 17.5905 24.0268 17.6576C23.6416 17.9023 23.3363 18.2692 22.9182 18.4595Z" fill="#263238"/>
<path d="M32.703 27.7962C32.9176 26.4589 32.8516 24.2626 32.736 22.466C32.7118 22.0831 32.6095 21.7089 32.4351 21.3662C32.2607 21.0234 32.0178 20.719 31.7212 20.4714C31.4246 20.2238 31.0804 20.0381 30.7092 19.9254C30.3381 19.8127 29.9477 19.7755 29.5615 19.8158L24.8327 20.3105C24.5942 20.335 24.3738 20.4474 24.2153 20.6251C24.0568 20.8029 23.9718 21.0331 23.9772 21.27L24.4641 32.7485H23.3638V34.8279C23.3638 35.9698 23.8229 37.0649 24.64 37.8723C25.4572 38.6797 26.5655 39.1334 27.7212 39.1334C28.8768 39.1334 29.9852 38.6797 30.8023 37.8723C31.6195 37.0649 32.0786 35.9698 32.0786 34.8279V33.0285C32.0786 33.0285 30.9452 32.6616 30.2575 32.6996H30.0897C30.0897 31.6477 30.1777 30.8241 30.1777 30.8241C30.1777 30.8241 32.2711 30.4898 32.703 27.7962Z" fill="#FFBE9D"/>
<path d="M32.029 24.2082C32.0291 24.2981 31.9939 24.3846 31.9308 24.4495C31.8677 24.5144 31.7817 24.5526 31.6907 24.5561C31.6461 24.5598 31.6012 24.5546 31.5587 24.5407C31.5161 24.5269 31.4769 24.5047 31.4432 24.4755C31.4096 24.4463 31.3822 24.4107 31.3628 24.3709C31.3434 24.331 31.3324 24.2877 31.3303 24.2435C31.3303 24.1535 31.3655 24.067 31.4285 24.0022C31.4916 23.9373 31.5777 23.8991 31.6687 23.8956C31.7132 23.8923 31.758 23.8978 31.8003 23.9118C31.8427 23.9257 31.8818 23.9479 31.9153 23.9771C31.9489 24.0062 31.9763 24.0416 31.9958 24.0813C32.0153 24.121 32.0266 24.1641 32.029 24.2082Z" fill="#263238"/>
<path d="M32.2548 23.6102C32.2107 23.6537 31.9467 23.4607 31.5698 23.4607C31.1929 23.4607 30.9178 23.6483 30.8766 23.6021C30.8353 23.5559 30.9013 23.5015 31.0224 23.4145C31.1844 23.305 31.3762 23.2462 31.5725 23.246C31.77 23.2446 31.9628 23.3055 32.1227 23.42C32.2355 23.5069 32.2768 23.5885 32.2548 23.6102Z" fill="#263238"/>
<path d="M28.3513 24.2082C28.3521 24.2979 28.3175 24.3844 28.2548 24.4493C28.1922 24.5143 28.1064 24.5526 28.0157 24.5561C27.9711 24.5598 27.9262 24.5546 27.8836 24.5407C27.8411 24.5269 27.8019 24.5047 27.7682 24.4755C27.7346 24.4463 27.7072 24.4107 27.6878 24.3709C27.6684 24.331 27.6574 24.2877 27.6553 24.2435C27.6538 24.1536 27.6882 24.0667 27.751 24.0016C27.8138 23.9365 27.9 23.8984 27.9909 23.8956C28.0355 23.8923 28.0802 23.8978 28.1226 23.9118C28.1649 23.9257 28.204 23.9479 28.2376 23.9771C28.2712 24.0062 28.2985 24.0416 28.318 24.0813C28.3375 24.121 28.3489 24.1641 28.3513 24.2082V24.2082Z" fill="#263238"/>
<path d="M28.5575 23.6782C28.5135 23.7245 28.2494 23.5315 27.8725 23.5315C27.4956 23.5315 27.2206 23.719 27.1793 23.6728C27.138 23.6266 27.2041 23.5722 27.3251 23.4853C27.486 23.3733 27.6785 23.3143 27.8753 23.3167C28.0729 23.314 28.2661 23.3751 28.4254 23.4907C28.5382 23.5777 28.5795 23.6647 28.5575 23.6782Z" fill="#263238"/>
<path d="M29.9218 26.4344C30.12 26.3732 30.3252 26.3367 30.5325 26.3257C30.6288 26.3257 30.7196 26.2985 30.7361 26.2333C30.742 26.1385 30.72 26.0441 30.6728 25.9615C30.582 25.7331 30.4885 25.4912 30.3977 25.2384C30.0044 24.211 29.7183 23.3657 29.7623 23.3494C30.0732 23.9398 30.3371 24.5532 30.5518 25.1841C30.6453 25.4396 30.7361 25.6788 30.8269 25.9125C30.8876 26.0269 30.9052 26.1589 30.8764 26.2849C30.862 26.3184 30.8403 26.3482 30.8126 26.3722C30.785 26.3962 30.7523 26.4138 30.7168 26.4235C30.664 26.4379 30.6094 26.4452 30.5545 26.4453C30.344 26.4684 30.1314 26.4648 29.9218 26.4344V26.4344Z" fill="#263238"/>
<path d="M30.1834 30.8322C28.8999 30.8516 27.6361 30.5185 26.533 29.87C26.533 29.87 27.4187 31.721 30.1449 31.4682L30.1834 30.8322Z" fill="#EB996E"/>
<path d="M29.7624 27.3314C29.6908 27.2422 29.5975 27.1725 29.4911 27.1287C29.3848 27.085 29.2689 27.0687 29.1545 27.0813C29.0715 27.089 28.991 27.1133 28.9177 27.1525C28.8444 27.1917 28.7799 27.2452 28.7281 27.3096C28.6775 27.3714 28.6474 27.4471 28.642 27.5264C28.6366 27.6057 28.6561 27.6847 28.6978 27.7527C28.7593 27.8186 28.8389 27.8652 28.9269 27.887C29.0149 27.9087 29.1074 27.9046 29.193 27.875C29.3685 27.8151 29.5309 27.7229 29.6716 27.6032C29.7141 27.573 29.7505 27.5352 29.7789 27.4917C29.7924 27.4711 29.7996 27.447 29.7996 27.4224C29.7996 27.3978 29.7924 27.3738 29.7789 27.3531" fill="#EB996E"/>
<path d="M28.816 26.6926C28.8765 26.6926 28.8765 27.0921 29.2259 27.3775C29.5753 27.6629 30.0099 27.6194 30.0126 27.6765C30.0154 27.7336 29.9164 27.7553 29.7376 27.7608C29.4988 27.7638 29.2668 27.6829 29.0828 27.5325C28.9043 27.3902 28.7896 27.1841 28.7637 26.9589C28.7555 26.7904 28.7885 26.6898 28.816 26.6926Z" fill="#263238"/>
<path d="M28.7253 23.0286C28.6896 23.1291 28.3127 23.0802 27.8726 23.1346C27.4324 23.1889 27.0748 23.3058 27.017 23.2134C26.9895 23.1726 27.0528 23.0775 27.1958 22.9796C27.3864 22.8563 27.6045 22.7807 27.8313 22.7595C28.0571 22.7327 28.2861 22.7588 28.4998 22.8356C28.6621 22.9008 28.7556 22.9796 28.7253 23.0286Z" fill="#263238"/>
<path d="M32.1171 22.8492C32.0511 22.9334 31.7897 22.8492 31.4789 22.8492C31.168 22.8492 30.9039 22.9063 30.8434 22.8166C30.8159 22.7731 30.8434 22.6888 30.9727 22.61C31.1268 22.5128 31.3072 22.4644 31.4899 22.4714C31.6731 22.4742 31.8509 22.5331 31.9988 22.6399C32.1088 22.7214 32.1446 22.8084 32.1171 22.8492Z" fill="#263238"/>
<path d="M33.7512 20.0631C33.5642 19.3456 33.014 18.6823 32.2768 18.5464C31.7954 18.4595 31.303 18.5981 30.816 18.5682C30.4117 18.5437 30.2659 18.2257 29.8835 18.1007C29.2453 17.8941 28.7556 17.1928 27.3774 17.3396C27.0088 17.3804 26.5357 17.8017 26.1973 18.2801C25.6691 18.0545 24.9732 18.2964 24.5935 18.4622C23.804 18.8019 23.3116 19.6799 23.1548 20.5714C22.998 21.463 23.1273 22.379 23.2538 23.2759C23.3116 23.6837 23.3694 24.0914 23.4299 24.5045C23.4524 24.7766 23.5261 25.042 23.6472 25.2873L23.02 31.0497C23.334 31.1489 23.6651 31.1839 23.9932 31.1525C24.3213 31.121 24.6394 31.0239 24.9283 30.867C25.2171 30.71 25.4705 30.4966 25.6731 30.2397C25.8757 29.9827 26.0231 29.6877 26.1065 29.3726C26.3486 28.2392 25.7104 27.0867 25.8122 25.9315C25.8727 25.2438 26.2661 24.6051 26.2633 23.9147C26.2588 23.6877 26.2255 23.4621 26.1643 23.2433V23.2433C27.2646 22.3545 27.5562 21.6396 27.5095 20.797C27.849 21.0316 28.2507 21.163 28.6648 21.1748C29.248 21.1748 29.856 20.9574 30.4007 21.1748C30.7756 21.3644 31.1063 21.6292 31.3717 21.9522C31.6716 22.2458 32.0594 22.5149 32.4721 22.4578C32.6693 22.4117 32.8611 22.3452 33.0443 22.2594C33.1363 22.2163 33.2368 22.194 33.3386 22.194C33.4404 22.194 33.5409 22.2163 33.633 22.2594C33.8557 21.5482 33.8963 20.7936 33.7512 20.0631V20.0631Z" fill="#263238"/>
<path d="M17.4548 25.9642C17.7369 26.1664 18.0404 26.3377 18.3599 26.4752C18.7347 26.6312 19.1361 26.7152 19.5428 26.7226C20.0818 26.7368 20.6112 26.5796 21.053 26.2741C21.318 26.0933 21.5416 25.8596 21.7093 25.588C21.8771 25.3165 21.9852 25.0131 22.0268 24.6976C22.0696 24.3474 21.9972 23.9929 21.8205 23.6865C21.7291 23.5294 21.5994 23.3975 21.4433 23.3025C21.2872 23.2076 21.1095 23.1527 20.9265 23.1429C20.7395 23.138 20.5567 23.1976 20.4093 23.3114C20.2598 23.4349 20.1491 23.598 20.0902 23.7816C20.0253 23.9708 20.0104 24.1733 20.047 24.3698C20.0836 24.5662 20.1704 24.7502 20.2993 24.9042C20.5795 25.226 20.9579 25.4492 21.3776 25.5402C21.811 25.6413 22.2614 25.6487 22.698 25.562C23.1361 25.4758 23.5478 25.2896 23.9002 25.0183C24.2412 24.7574 24.4999 24.4057 24.6457 24.0045C24.7888 23.6185 24.823 23.2014 24.7447 22.7977C24.7073 22.6067 24.6385 22.4231 24.5411 22.254C24.4521 22.0848 24.3251 21.9379 24.1698 21.8246C24.0258 21.7118 23.8498 21.6463 23.6663 21.637C23.5812 21.6342 23.497 21.6545 23.4228 21.6957C23.3486 21.7369 23.2872 21.7975 23.2455 21.8708C23.1654 22.0203 23.1466 22.1945 23.1932 22.3573C23.2462 22.519 23.341 22.6643 23.4683 22.7786C23.921 23.1571 24.5007 23.3544 25.0933 23.3318C25.6859 23.3092 26.2485 23.0682 26.6703 22.6563C26.9535 22.3679 27.1604 22.015 27.2728 21.6289C27.3655 21.2983 27.3944 20.9534 27.358 20.6123C27.3834 20.7009 27.3982 20.7921 27.402 20.8841C27.4216 21.1427 27.3974 21.4026 27.3305 21.6533C27.2215 22.0523 27.0156 22.4189 26.7308 22.7216C26.3432 23.1215 25.8247 23.3728 25.2674 23.431C24.9313 23.4746 24.5896 23.4475 24.2649 23.3515C23.9401 23.2554 23.6396 23.0926 23.383 22.8738C23.2405 22.7452 23.1359 22.5808 23.0804 22.3981C23.0245 22.2025 23.0471 21.9932 23.1437 21.8137C23.1968 21.7205 23.2744 21.6432 23.3684 21.5901C23.4624 21.537 23.5691 21.51 23.6773 21.512C23.8902 21.5207 24.0951 21.5948 24.2633 21.724C24.4343 21.8479 24.5745 22.0087 24.6732 22.1942C24.7793 22.3796 24.8545 22.5806 24.896 22.7895C24.9816 23.2183 24.9464 23.6621 24.7942 24.0724C24.6401 24.5012 24.3664 24.8781 24.0047 25.1597C23.633 25.4425 23.1997 25.6361 22.7393 25.7251C22.2844 25.8147 21.8152 25.8063 21.3638 25.7006C20.9132 25.6015 20.507 25.3612 20.2057 25.0156C20.0636 24.8398 19.9689 24.6313 19.9306 24.4095C19.8967 24.191 19.9146 23.9677 19.9829 23.7571C20.0494 23.545 20.1765 23.3562 20.3488 23.2135C20.5233 23.0804 20.7391 23.0112 20.9595 23.0178C21.1659 23.0287 21.3661 23.0913 21.5412 23.1998C21.7164 23.3082 21.8608 23.4588 21.9608 23.6375C22.1479 23.9681 22.224 24.3488 22.1781 24.7248C22.1326 25.0561 22.0167 25.3741 21.8379 25.658C21.6592 25.9419 21.4217 26.1852 21.141 26.372C20.6815 26.6855 20.1309 26.842 19.573 26.8177C19.1572 26.8061 18.7478 26.7137 18.3681 26.5459C18.1275 26.4439 17.9002 26.3134 17.6914 26.1572C17.6199 26.1056 17.5704 26.0594 17.5346 26.0322L17.4548 25.9642Z" fill="#455A64"/>
<path d="M33.9107 21.2809C33.8717 21.3174 33.8272 21.3477 33.7787 21.3706C33.6439 21.4449 33.4982 21.4981 33.3468 21.5282C33.1054 21.5767 32.8565 21.5767 32.6151 21.5282C32.2958 21.4537 32 21.3024 31.754 21.0879C31.4577 20.8273 31.2261 20.5027 31.0773 20.1393C31.0279 20.0347 31.0005 19.9212 30.9967 19.8058C30.9929 19.6904 31.0128 19.5755 31.0553 19.4679C31.1079 19.3519 31.1979 19.2564 31.3112 19.1961C31.3723 19.1647 31.4403 19.1482 31.5092 19.1482C31.5782 19.1482 31.6461 19.1647 31.7073 19.1961C31.8251 19.2638 31.9164 19.3688 31.9663 19.4941C32.0162 19.6194 32.0219 19.7576 31.9824 19.8865C31.9345 20.0128 31.861 20.1281 31.7664 20.2254C31.6718 20.3226 31.5581 20.3997 31.4322 20.4519C30.9255 20.668 30.3527 20.6768 29.8394 20.4763C29.583 20.3849 29.3368 20.2674 29.1049 20.1257C28.8733 19.9932 28.6629 19.8274 28.4805 19.6337C28.3828 19.5313 28.3233 19.399 28.3118 19.2587C28.3003 19.1184 28.3375 18.9784 28.4172 18.8618C28.4643 18.8053 28.526 18.7625 28.5958 18.7381C28.6656 18.7136 28.7408 18.7085 28.8134 18.7232C28.9465 18.7522 29.0651 18.8262 29.149 18.9325C29.2326 19.0369 29.2712 19.1697 29.2562 19.3021C29.239 19.426 29.1854 19.5422 29.1022 19.6364C28.9493 19.8109 28.7327 19.9184 28.4998 19.9354C28.2902 19.9503 28.0797 19.9235 27.8808 19.8566C27.7016 19.8004 27.5261 19.7332 27.3554 19.6555C27.0528 19.5306 26.7883 19.3302 26.5879 19.0738C26.4416 18.8718 26.3715 18.6257 26.3898 18.378C26.3994 18.2233 26.4549 18.0749 26.5494 17.9512C26.5823 17.9084 26.6234 17.8724 26.6704 17.8452C26.5318 17.9937 26.4526 18.1869 26.4476 18.3888C26.4404 18.6196 26.5132 18.8459 26.6539 19.0303C26.8503 19.2725 27.1073 19.4599 27.3994 19.5739C27.7405 19.7442 28.1176 19.8318 28.4998 19.8294C28.5998 19.8201 28.6971 19.7912 28.7858 19.7446C28.8746 19.6979 28.9531 19.6344 29.0169 19.5576C29.088 19.4865 29.1309 19.3926 29.138 19.2928C29.145 19.1931 29.1157 19.0942 29.0554 19.014C28.9316 18.8536 28.6676 18.783 28.5438 18.9488C28.5121 18.9903 28.4893 19.0377 28.4765 19.0881C28.4638 19.1385 28.4614 19.191 28.4695 19.2423C28.4856 19.3529 28.5333 19.4566 28.607 19.5413C28.7802 19.7206 28.9784 19.8743 29.1957 19.998C29.4185 20.1343 29.6555 20.2464 29.9027 20.3323C30.1372 20.4287 30.3887 20.4784 30.6427 20.4784C30.8967 20.4784 31.1482 20.4287 31.3827 20.3323C31.4888 20.2883 31.5847 20.2235 31.6647 20.1417C31.7446 20.0599 31.8068 19.9629 31.8476 19.8566C31.8813 19.7558 31.8786 19.6465 31.84 19.5474C31.8014 19.4483 31.7292 19.3654 31.6358 19.313C31.592 19.2934 31.5445 19.2831 31.4965 19.2828C31.4484 19.2824 31.4008 19.2921 31.3568 19.311C31.3127 19.33 31.2731 19.3578 31.2406 19.3928C31.2082 19.4278 31.1834 19.4691 31.1681 19.5141C31.1332 19.6058 31.1169 19.7035 31.1202 19.8014C31.1235 19.8994 31.1463 19.9957 31.1874 20.0849C31.3256 20.4328 31.5419 20.745 31.8201 20.9982C32.0495 21.2076 32.3271 21.3588 32.6288 21.4385C32.858 21.4961 33.0964 21.5081 33.3303 21.4739C33.5316 21.4353 33.7268 21.3704 33.9107 21.2809V21.2809Z" fill="#455A64"/>
<path d="M25.9662 27.6032C25.9335 27.6404 25.8944 27.6717 25.8507 27.6956C25.7287 27.7739 25.5922 27.8275 25.4491 27.8533C25.2228 27.8994 24.988 27.8844 24.7696 27.8098C24.619 27.7666 24.4795 27.6921 24.3604 27.5913C24.2414 27.4905 24.1454 27.3658 24.0791 27.2254C24.0344 27.1359 24.0204 27.0344 24.0393 26.9363C24.0581 26.8382 24.1088 26.7488 24.1837 26.6818C24.2684 26.6172 24.3724 26.5822 24.4794 26.5822C24.5864 26.5822 24.6904 26.6172 24.7751 26.6818C24.9456 26.8191 25.075 26.9996 25.1497 27.2041C25.2243 27.4085 25.2413 27.6292 25.1988 27.8424C25.1707 28.0785 25.0832 28.304 24.9444 28.4982C24.8055 28.6923 24.6196 28.8491 24.4037 28.9541C24.166 29.0533 23.9078 29.0952 23.6505 29.0763C23.3931 29.0574 23.144 28.9782 22.9238 28.8454C22.696 28.7191 22.5017 28.5411 22.3571 28.3262C22.2836 28.2186 22.2336 28.097 22.2104 27.9692C22.1872 27.8415 22.1912 27.7103 22.2223 27.5842C22.2553 27.458 22.3229 27.3433 22.4176 27.2526C22.4658 27.2061 22.5232 27.1698 22.5861 27.146C22.649 27.1221 22.7161 27.1112 22.7835 27.1139C22.9071 27.1232 23.0263 27.1638 23.1294 27.2319C23.2326 27.3 23.3162 27.3933 23.3722 27.5026C23.4741 27.6998 23.5296 27.9173 23.5345 28.1387C23.5426 28.3425 23.5222 28.5465 23.4739 28.7448C23.3874 29.1054 23.1962 29.4332 22.9238 29.688C22.7288 29.8743 22.4825 29.9995 22.2157 30.0479C21.949 30.0962 21.6737 30.0656 21.4245 29.9598C21.2915 29.9025 21.1702 29.8214 21.0669 29.7206C21.0296 29.6879 20.998 29.6493 20.9734 29.6064C21.1136 29.7309 21.2734 29.8318 21.4465 29.9054C21.6513 29.9836 21.8724 30.0107 22.0902 29.9842C22.3768 29.9499 22.6438 29.8228 22.8495 29.6227C23.0981 29.3779 23.27 29.0674 23.3447 28.7285C23.3891 28.5407 23.4058 28.3475 23.3942 28.155C23.3883 27.955 23.3365 27.7589 23.2429 27.5814C23.1985 27.4926 23.1316 27.4166 23.0487 27.3608C22.9658 27.3051 22.8697 27.2715 22.7697 27.2634C22.6687 27.2696 22.5728 27.3095 22.4978 27.3767C22.4228 27.4439 22.3731 27.5343 22.3571 27.6331C22.3309 27.7396 22.3279 27.8505 22.3483 27.9582C22.3687 28.066 22.412 28.1683 22.4754 28.2583C22.6751 28.5516 22.9706 28.7683 23.3126 28.8722C23.6545 28.976 24.0222 28.9608 24.3542 28.8291C24.5495 28.7343 24.7179 28.593 24.8442 28.4179C24.9705 28.2428 25.0507 28.0394 25.0777 27.8261C25.1166 27.6372 25.104 27.4415 25.0411 27.2591C24.9783 27.0767 24.8675 26.914 24.7201 26.7878C24.6561 26.7382 24.5772 26.7112 24.4959 26.7112C24.4146 26.7112 24.3357 26.7382 24.2717 26.7878C24.2162 26.8385 24.1785 26.9054 24.1642 26.9787C24.1498 27.052 24.1595 27.128 24.1919 27.1955C24.2497 27.3232 24.3339 27.4375 24.4391 27.5311C24.5443 27.6247 24.6681 27.6956 24.8026 27.7391C25.0082 27.8143 25.2296 27.8367 25.4463 27.8043C25.6299 27.7669 25.8058 27.6989 25.9662 27.6032V27.6032Z" fill="#455A64"/>
<path d="M14.6023 93.6775C14.6023 93.6775 16.4426 97.211 21.2402 95.4932C21.2402 95.4932 25.9387 98.0156 30.4337 95.1915C30.4337 95.1915 36.2518 95.9607 39.4181 94.4467L35.3577 59.7529L34.8406 54.4254H21.9912C21.9912 54.4254 18.1785 56.1405 17.565 64.515C16.9516 72.8895 15.6394 84.3925 15.6394 84.3925L14.6023 93.6775Z" fill="#263238"/>
<path d="M30.1584 95.2975C30.1584 95.2975 30.1584 95.2621 30.1584 95.1915C30.1584 95.1208 30.1419 95.0148 30.1309 94.8843C30.1089 94.6125 30.0786 94.2075 30.0374 93.6992C29.9603 92.6718 29.8586 91.1823 29.7485 89.3503C29.5257 85.67 29.2891 80.5762 29.1653 74.9443C29.0415 69.3124 29.0553 64.216 29.1158 60.5384C29.1461 58.6928 29.1791 57.2006 29.2149 56.1704C29.2314 55.6594 29.2451 55.2626 29.2561 54.9826C29.2561 54.8521 29.2561 54.7489 29.2561 54.6727C29.2526 54.6384 29.2526 54.6038 29.2561 54.5695C29.2603 54.6038 29.2603 54.6384 29.2561 54.6727V54.9826C29.2561 55.2544 29.2561 55.6621 29.2424 56.1704C29.2424 57.2087 29.2121 58.701 29.1901 60.5384C29.1571 64.2269 29.1571 69.3233 29.2809 74.9443C29.4047 80.5654 29.6275 85.6618 29.8311 89.3503C29.9328 91.1877 30.0154 92.6745 30.0759 93.6992C30.1034 94.2075 30.1254 94.6071 30.1419 94.8843C30.1419 95.0148 30.1419 95.1181 30.1557 95.1942C30.1595 95.2285 30.1604 95.263 30.1584 95.2975Z" fill="#455A64"/>
<path d="M31.2863 85.3655C31.2863 85.3655 31.3138 85.3274 31.3853 85.3084C31.4912 85.2857 31.6017 85.2991 31.6989 85.3465C31.7725 85.3821 31.8372 85.4335 31.8881 85.497C31.939 85.5605 31.975 85.6344 31.9933 85.7134C32.0038 85.815 31.9842 85.9174 31.937 86.0082C31.8898 86.099 31.8169 86.1743 31.7271 86.225C31.6374 86.2756 31.5347 86.2995 31.4316 86.2936C31.3284 86.2877 31.2292 86.2523 31.146 86.1918C31.0864 86.1355 31.0404 86.0667 31.0114 85.9905C30.9823 85.9143 30.971 85.8326 30.9782 85.7515C30.9861 85.6448 31.0307 85.5441 31.1047 85.4661C31.157 85.4144 31.201 85.4035 31.2037 85.409C31.1303 85.5112 31.0874 85.6318 31.08 85.7569C31.0801 85.82 31.0937 85.8823 31.1197 85.9399C31.1458 85.9975 31.1838 86.049 31.2313 86.0912C31.2945 86.1307 31.3674 86.1524 31.4422 86.154C31.5169 86.1557 31.5907 86.1373 31.6557 86.1007C31.7207 86.0641 31.7744 86.0108 31.8111 85.9464C31.8477 85.882 31.866 85.809 31.864 85.7351C31.8524 85.6729 31.8272 85.6139 31.7901 85.5622C31.7531 85.5106 31.705 85.4676 31.6494 85.4362C31.5385 85.3766 31.4118 85.3519 31.2863 85.3655V85.3655Z" fill="#455A64"/>
<path d="M31.0004 75.0639C31.0004 75.0639 31.0279 75.0285 31.0994 75.0095C31.2052 74.9852 31.3163 74.9987 31.413 75.0476C31.4879 75.0815 31.5536 75.1324 31.6047 75.1962C31.6559 75.26 31.691 75.3348 31.7074 75.4145C31.7168 75.5154 31.6967 75.6169 31.6493 75.7068C31.6019 75.7966 31.5294 75.8711 31.4403 75.9213C31.3512 75.9715 31.2493 75.9952 31.1469 75.9897C31.0445 75.9842 30.9459 75.9496 30.8629 75.8902C30.8022 75.8353 30.7554 75.7671 30.7262 75.6911C30.6971 75.6151 30.6864 75.5334 30.6951 75.4526C30.704 75.3507 30.7476 75.2549 30.8188 75.1808C30.8739 75.1264 30.9151 75.1182 30.9179 75.1237C30.8448 75.2251 30.8019 75.3446 30.7941 75.4689C30.7941 75.532 30.8076 75.5944 30.8336 75.652C30.8597 75.7096 30.8978 75.7611 30.9454 75.8032C31.0082 75.8435 31.0811 75.866 31.1559 75.8682C31.2308 75.8705 31.3049 75.8524 31.3701 75.816C31.4353 75.7796 31.4892 75.7262 31.5259 75.6616C31.5625 75.5971 31.5806 75.5238 31.5781 75.4498C31.5662 75.3877 31.5411 75.3287 31.5046 75.2767C31.4682 75.2248 31.421 75.1809 31.3663 75.1481C31.2546 75.0869 31.1279 75.0577 31.0004 75.0639V75.0639Z" fill="#455A64"/>
<path d="M30.8325 65.9528C30.8325 65.9528 30.8601 65.9175 30.9343 65.8984C31.0392 65.8743 31.1494 65.8878 31.2452 65.9365C31.3202 65.9706 31.3861 66.0216 31.4376 66.0853C31.4892 66.1489 31.525 66.2236 31.5423 66.3034C31.5522 66.4048 31.5322 66.5068 31.4847 66.5972C31.4373 66.6875 31.3643 66.7624 31.2747 66.8127C31.1851 66.863 31.0827 66.8866 30.9798 66.8806C30.877 66.8747 30.778 66.8394 30.695 66.7791C30.6348 66.7238 30.5884 66.6556 30.5593 66.5797C30.5302 66.5038 30.5192 66.4223 30.5272 66.3415C30.5348 66.2353 30.5784 66.1347 30.651 66.0561C30.706 66.0044 30.7473 65.9936 30.7528 65.999C30.678 66.0997 30.6341 66.2195 30.6262 66.3442C30.6259 66.4076 30.6394 66.4704 30.666 66.5281C30.6926 66.5858 30.7316 66.6372 30.7803 66.6785C30.8431 66.7181 30.9156 66.74 30.9901 66.7418C31.0645 66.7437 31.1381 66.7255 31.2029 66.6892C31.2676 66.6528 31.3212 66.5997 31.3577 66.5356C31.3942 66.4715 31.4124 66.3987 31.4102 66.3252C31.3983 66.263 31.3733 66.204 31.3368 66.1521C31.3003 66.1001 31.2532 66.0563 31.1984 66.0235C31.0855 65.9668 30.9588 65.9423 30.8325 65.9528V65.9528Z" fill="#455A64"/>
<path d="M30.5052 56.2057C30.5052 56.2057 30.5327 56.1677 30.6043 56.1486C30.7104 56.1256 30.8214 56.14 30.9179 56.1894C30.9923 56.2239 31.0577 56.275 31.1088 56.3386C31.1598 56.4023 31.1952 56.4768 31.2122 56.5564C31.2263 56.6589 31.2073 56.7632 31.1579 56.8545C31.1085 56.9457 31.0312 57.0193 30.9371 57.0646C30.8487 57.1188 30.7455 57.1447 30.6417 57.1389C30.5378 57.133 30.4383 57.0957 30.3567 57.032C30.2971 56.9757 30.2511 56.9069 30.2221 56.8307C30.193 56.7545 30.1817 56.6728 30.1889 56.5917C30.1998 56.4898 30.2442 56.3943 30.3154 56.3199C30.3704 56.2682 30.4117 56.2574 30.4144 56.2628C30.341 56.365 30.2981 56.4856 30.2907 56.6107C30.2908 56.6738 30.3044 56.7361 30.3304 56.7937C30.3565 56.8513 30.3945 56.9029 30.442 56.945C30.5052 56.9845 30.5781 57.0062 30.6528 57.0079C30.7276 57.0095 30.8014 56.9911 30.8664 56.9545C30.9314 56.918 30.9851 56.8646 31.0218 56.8003C31.0584 56.7359 31.0767 56.6628 31.0747 56.589C31.0631 56.5267 31.0379 56.4677 31.0008 56.4161C30.9637 56.3644 30.9157 56.3214 30.8601 56.29C30.7531 56.2273 30.6294 56.1979 30.5052 56.2057V56.2057Z" fill="#455A64"/>
<path d="M47.2497 45.6541L112.135 45.1893L113.945 88.7768L46.7573 88.1625L47.2497 45.6541Z" fill="url(#paint3_linear_639_164)"/>
<path d="M47.2498 45.6542L77.9607 21.1016C78.5917 20.5977 79.3792 20.3242 80.1905 20.3272C81.0017 20.3301 81.7872 20.6094 82.4144 21.1179L112.138 45.1894" fill="url(#paint4_linear_639_164)"/>
<g opacity="0.3">
<path d="M47.2498 45.6542L77.9607 21.1016C78.5917 20.5977 79.3792 20.3242 80.1905 20.3272C81.0017 20.3301 81.7872 20.6094 82.4144 21.1179L112.138 45.1894" fill="black"/>
</g>
<path d="M46.7573 88.1625C46.6775 88.0864 51.8712 82.4817 58.3605 75.6457C64.8498 68.8096 70.1728 63.3272 70.2553 63.4006C70.3379 63.474 65.1414 69.0787 58.6521 75.9175C52.1627 82.7562 46.8398 88.2359 46.7573 88.1625Z" fill="#263238"/>
<path d="M113.945 88.7769C113.862 88.8502 108.804 83.3597 102.647 76.5155C96.4905 69.6713 91.5664 64.0612 91.6435 63.9878C91.7205 63.9144 96.7849 69.405 102.941 76.2519C109.098 83.0987 114.033 88.7035 113.945 88.7769Z" fill="#263238"/>
<g opacity="0.5">
<path d="M112.135 45.1893L79.5534 70.908L47.2498 45.6541" fill="black"/>
</g>
<path d="M50.5178 48.0352L50.416 28.0137L107.233 27.3478L107.874 48.4185L79.5507 70.571L50.5178 48.0352Z" fill="#FAFAFA"/>
<path d="M50.5176 48.0352C50.5176 48.0352 50.7019 48.1711 51.0513 48.4402L52.5918 49.6253L58.4649 54.1563L79.5945 70.5247H79.5229L107.838 48.3614L107.81 48.4184C107.689 44.4011 107.56 40.1826 107.428 35.8934C107.343 33.0041 107.255 30.1501 107.169 27.3505L107.241 27.4184L50.4268 28.0572L50.4708 28.0137C50.4928 34.3115 50.5121 39.3155 50.5231 42.7458C50.5231 44.4609 50.5231 45.7819 50.5231 46.6761V47.69C50.5231 47.9183 50.5231 48.0352 50.5231 48.0352C50.5231 48.0352 50.5231 47.921 50.5231 47.6954C50.5231 47.4698 50.5231 47.1301 50.5231 46.687C50.5231 45.7928 50.5038 44.4745 50.4901 42.7621C50.4681 39.3264 50.4351 34.3197 50.3938 28.0137V27.9675H50.4378L107.255 27.2798H107.323V27.3505C107.409 30.1474 107.494 33.0014 107.582 35.8907C107.714 40.1826 107.841 44.3984 107.964 48.4184V48.4538L107.937 48.4755L79.6027 70.6199L79.567 70.6471L79.5312 70.6199L58.4154 54.1971L52.578 49.6443L51.0375 48.4483C50.6909 48.1765 50.5176 48.0352 50.5176 48.0352Z" fill="#263238"/>
<path d="M98.2539 37.4319C98.2539 37.47 89.5639 37.5543 78.8492 37.6168C68.1345 37.6793 59.4417 37.7038 59.4417 37.663C59.4417 37.6222 68.129 37.5407 78.8492 37.4754C89.5694 37.4102 98.2539 37.3912 98.2539 37.4319Z" fill="#263238"/>
<path d="M98.2539 43.0856C98.2539 43.1264 89.5639 43.2106 78.8492 43.2732C68.1345 43.3357 59.4417 43.3574 59.4417 43.3194C59.4417 43.2813 68.129 43.1971 78.8492 43.1318C89.5694 43.0666 98.2539 43.0476 98.2539 43.0856Z" fill="#263238"/>
<path d="M98.2539 49.6063C98.2539 49.6444 89.5639 49.7287 78.8492 49.7939C68.1345 49.8591 59.4417 49.8781 59.4417 49.8374C59.4417 49.7966 68.129 49.7151 78.8492 49.6525C89.5694 49.59 98.2539 49.5656 98.2539 49.6063Z" fill="#263238"/>
<path d="M98.2538 56.1242C98.2538 56.165 89.9654 56.2438 79.7404 56.3063C69.5153 56.3689 61.2269 56.3852 61.2241 56.3471C61.2214 56.3091 69.5125 56.2275 79.7404 56.165C89.9682 56.1025 98.2538 56.0862 98.2538 56.1242Z" fill="#263238"/>
<path d="M90.9859 61.8459C90.9114 61.8583 90.8359 61.8638 90.7604 61.8622L90.1056 61.8812L87.7069 61.9193L79.7871 62.0307C76.6951 62.0823 73.8919 62.0987 71.8645 62.1014H69.4657H68.811C68.7356 62.1027 68.6602 62.0982 68.5854 62.0878C68.66 62.0753 68.7355 62.0699 68.811 62.0715L69.4657 62.0552L71.8645 62.0144L79.7843 61.9029C82.8763 61.8513 85.6795 61.835 87.7041 61.8323H90.1056H90.7604C90.8358 61.8321 90.9111 61.8366 90.9859 61.8459V61.8459Z" fill="#263238"/>
<path d="M83.6714 67.3473C83.6714 67.3853 81.82 67.4179 79.545 67.4179C77.27 67.4179 75.4187 67.3853 75.4187 67.3473C75.4187 67.3092 77.2728 67.2766 79.545 67.2766C81.8173 67.2766 83.6714 67.3065 83.6714 67.3473Z" fill="#263238"/>
<path d="M102.796 62.906C106.586 62.906 109.659 59.8697 109.659 56.1243C109.659 52.3789 106.586 49.3427 102.796 49.3427C99.005 49.3427 95.9321 52.3789 95.9321 56.1243C95.9321 59.8697 99.005 62.906 102.796 62.906Z" fill="#263238"/>
<path d="M101.01 62.906C104.801 62.906 107.874 59.8697 107.874 56.1243C107.874 52.3789 104.801 49.3427 101.01 49.3427C97.2196 49.3427 94.1467 52.3789 94.1467 56.1243C94.1467 59.8697 97.2196 62.906 101.01 62.906Z" fill="#455A64"/>
<path d="M101.882 52.9685V58.6058H100.829V53.8356H99.6211V52.9576L101.882 52.9685Z" fill="#EBEBEB"/>
<path d="M50.9636 18.8673H57.2411L56.3911 17.9051V15.5974C56.3911 14.9976 56.15 14.4224 55.7208 13.9983C55.2915 13.5742 54.7094 13.3359 54.1024 13.3359V13.3359C53.802 13.3359 53.5045 13.3945 53.2269 13.5081C52.9494 13.6218 52.6973 13.7884 52.485 13.9985C52.2727 14.2085 52.1043 14.4578 51.9896 14.7322C51.8749 15.0065 51.816 15.3005 51.8164 15.5974V17.7909L50.9636 18.8673Z" fill="url(#paint5_linear_639_164)"/>
<path d="M53.2385 18.5627C53.2455 18.6977 53.2813 18.8298 53.3437 18.9502C53.406 19.0705 53.4935 19.1765 53.6003 19.261C53.7072 19.3455 53.8309 19.4067 53.9634 19.4405C54.0959 19.4743 54.2342 19.48 54.369 19.4572C54.5039 19.4344 54.6324 19.3835 54.746 19.3081C54.8595 19.2326 54.9556 19.1342 55.0279 19.0194C55.1001 18.9046 55.147 18.7759 55.1652 18.6419C55.1835 18.5079 55.1728 18.3716 55.1339 18.2419" fill="url(#paint6_linear_639_164)"/>
<path d="M54.4516 12.3955H53.8354V13.6893H54.4516V12.3955Z" fill="url(#paint7_linear_639_164)"/>
<path d="M63.2545 14.6243C63.2358 14.571 63.2211 14.5165 63.2105 14.4612C63.183 14.3443 63.1472 14.1894 63.1005 13.9828C63.043 13.7228 62.9686 13.4668 62.8776 13.2163C62.8226 13.0695 62.7841 12.9037 62.7098 12.7379L62.476 12.2106C62.0528 11.3198 61.4913 10.4999 60.8117 9.78061C59.9192 8.85093 58.8385 8.11743 57.6399 7.62787C56.9574 7.34399 56.2424 7.14318 55.5108 7.02989C54.7216 6.91625 53.9209 6.90346 53.1285 6.99184C52.7115 7.03518 52.298 7.106 51.8906 7.20385C51.6843 7.24734 51.4834 7.32616 51.2744 7.38868C51.0644 7.44624 50.8593 7.51985 50.6609 7.60885C49.8181 7.94563 49.0338 8.41061 48.3364 8.98692C46.7888 10.2478 45.6978 11.9716 45.2279 13.8985C44.9805 14.9309 44.92 15.9983 45.0491 17.0515C45.1624 18.141 45.4825 19.1996 45.9927 20.1719L46.1522 20.4682L46.1715 20.5062V20.547C45.6626 22.1779 45.1674 23.8087 44.6833 25.3662L44.554 25.2493L48.485 23.2243L48.5318 23.1999L48.5758 23.2325C50.2192 24.4847 52.2449 25.1475 54.3199 25.112C56.395 25.0764 58.3962 24.3446 59.9947 23.0368C60.8143 22.3597 61.5127 21.5511 62.0606 20.6449C62.4986 19.8881 62.8361 19.0786 63.0647 18.2366C63.2189 17.5971 63.3111 16.9445 63.3398 16.2877C63.3398 16.0159 63.3398 15.7822 63.3398 15.5729C63.3398 15.3636 63.3068 15.1978 63.2958 15.0537C63.2848 14.9097 63.2738 14.8145 63.2683 14.7357C63.2639 14.6996 63.2639 14.6631 63.2683 14.627C63.278 14.6616 63.2844 14.6971 63.2875 14.733C63.2875 14.8127 63.3013 14.9187 63.3288 15.051C63.3453 15.1951 63.3645 15.3663 63.3893 15.5729C63.4141 15.7795 63.3893 16.0214 63.3893 16.2905C63.374 16.953 63.291 17.6123 63.1417 18.2584C62.9221 19.1133 62.5891 19.9359 62.1514 20.7047C61.6034 21.6306 60.9002 22.4578 60.0717 23.1509C59.0573 23.9876 57.8742 24.6012 56.6011 24.9508C55.328 25.3005 53.9942 25.3781 52.6883 25.1786C51.1514 24.9374 49.6988 24.3239 48.4602 23.3929H48.5538L44.6282 25.4233L44.4302 25.5266L44.4962 25.3064L45.9817 20.4872V20.566L45.8194 20.2643C45.299 19.2706 44.9724 18.189 44.8566 17.076C44.7219 15.9982 44.7853 14.9052 45.0436 13.8496C45.5248 11.885 46.6401 10.1285 48.2209 8.84558C48.9345 8.26224 49.7353 7.79184 50.5949 7.4512C50.7968 7.36085 51.0056 7.28633 51.2194 7.22831C51.4312 7.16851 51.6348 7.08969 51.8466 7.0462C52.2599 6.9457 52.6801 6.87485 53.1037 6.83419C53.9094 6.74654 54.7232 6.76299 55.5245 6.88311C56.2657 7.00454 56.9897 7.21257 57.6812 7.50284C58.8927 8.00686 59.9822 8.75912 60.8777 9.70994C61.5575 10.4425 62.1146 11.2775 62.5283 12.1834C62.608 12.3737 62.6851 12.5504 62.7538 12.727C62.8226 12.9037 62.8639 13.0641 62.9161 13.2136C63.0054 13.466 63.0743 13.7251 63.1225 13.9882C63.161 14.1921 63.194 14.3525 63.216 14.472C63.2322 14.5219 63.2451 14.5727 63.2545 14.6243Z" fill="#263238"/>
<path d="M139.151 79.171C140.051 82.1745 139.369 86.0369 138.279 88.9779C137.172 91.9478 135.135 94.4912 132.464 96.2379C132.167 96.4309 131.785 96.6185 131.471 96.4527C131.355 96.3616 131.261 96.2465 131.195 96.1155C131.128 95.9844 131.092 95.8407 131.089 95.6943C130.445 92.4467 130.884 89.0806 132.34 86.1003C133.795 83.1199 136.189 80.6859 139.162 79.1628" fill="url(#paint8_linear_639_164)"/>
<g opacity="0.2">
<path d="M139.151 79.171C140.051 82.1745 139.369 86.0369 138.279 88.9779C137.172 91.9478 135.135 94.4912 132.464 96.2379C132.167 96.4309 131.785 96.6185 131.471 96.4527C131.355 96.3616 131.261 96.2465 131.195 96.1155C131.128 95.9844 131.092 95.8407 131.089 95.6943C130.445 92.4467 130.884 89.0806 132.34 86.1003C133.795 83.1199 136.189 80.6859 139.162 79.1628" fill="black"/>
</g>
<path d="M125.639 64.9146C127.532 64.863 128.781 66.9423 128.97 68.8069C129.16 70.6716 128.742 72.6123 129.295 74.3954C129.988 76.6677 132.15 78.2985 132.8 80.5899C133.57 83.289 132.071 86.0913 131.999 88.8937C131.963 90.2527 132.274 91.6363 132.013 92.9708C131.795 94.1124 131.184 95.1441 130.282 95.8901C129.381 96.636 128.246 97.05 127.07 97.0616C125.895 97.0731 124.751 96.6815 123.835 95.9534C122.919 95.2253 122.287 94.2058 122.046 93.0687C121.604 90.9703 122.542 88.7388 121.98 86.6649C121.565 85.1346 120.36 83.8326 120.261 82.2507C120.146 80.367 121.62 78.7389 121.895 76.8715C122.17 75.0042 121.213 73.1804 121.07 71.2967C120.814 67.9208 122.228 65.2707 125.636 64.9092" fill="url(#paint9_linear_639_164)"/>
<path d="M129.787 103.362C129.813 103.302 129.833 103.239 129.845 103.175C129.878 103.033 129.919 102.851 129.969 102.631C130.071 102.161 130.244 101.479 130.437 100.639C131.511 96.2629 133.045 92.0097 135.011 87.9478C135.388 87.1677 135.702 86.5426 135.925 86.1104L136.175 85.613C136.207 85.5561 136.233 85.4959 136.252 85.4336C136.21 85.4827 136.174 85.5365 136.145 85.594L135.87 86.0778C135.627 86.4991 135.295 87.1188 134.904 87.8935C132.869 91.9365 131.329 96.2051 130.318 100.609C130.128 101.454 129.988 102.142 129.906 102.62C129.87 102.84 129.84 103.022 129.815 103.164C129.798 103.229 129.789 103.295 129.787 103.362V103.362Z" fill="#263238"/>
<path d="M125.716 74.1235C125.717 74.2238 125.726 74.3237 125.744 74.4225C125.768 74.6318 125.804 74.9172 125.848 75.276L126.269 78.4154C126.624 81.0656 127.114 84.7241 127.628 88.7714C128.142 92.8186 128.585 96.4853 128.902 99.1409C129.061 100.454 129.19 101.525 129.284 102.283C129.331 102.642 129.367 102.927 129.394 103.137C129.404 103.236 129.42 103.335 129.444 103.433C129.452 103.333 129.452 103.233 129.444 103.134C129.424 102.922 129.4 102.636 129.366 102.275C129.287 101.514 129.177 100.443 129.042 99.1246C128.767 96.4663 128.335 92.7969 127.821 88.7496C127.306 84.7024 126.797 81.0438 126.407 78.3964C126.208 77.089 126.046 76.0235 125.933 75.2679C125.873 74.9091 125.826 74.6264 125.793 74.4171C125.777 74.3171 125.751 74.2188 125.716 74.1235V74.1235Z" fill="#263238"/>
<path d="M136.395 99.6899H122.019V101.348H136.395V99.6899Z" fill="#263238"/>
<path d="M123.35 101.348L125.039 111.41H133.955L135.124 101.348H123.35Z" fill="#263238"/>
<path d="M135.171 101.28C135.171 101.321 132.516 101.383 129.24 101.424C125.964 101.465 123.309 101.465 123.309 101.424C123.309 101.383 125.964 101.321 129.24 101.28C132.516 101.239 135.171 101.242 135.171 101.28Z" fill="#455A64"/>
<path d="M134.681 106.317H134.601H134.362C134.055 106.328 133.748 106.316 133.443 106.281C132.953 106.234 132.485 106.059 132.084 105.776C131.833 105.597 131.63 105.36 131.493 105.085C131.333 104.772 131.303 104.41 131.408 104.074C131.468 103.887 131.587 103.723 131.749 103.607C131.91 103.492 132.105 103.431 132.304 103.433C132.516 103.45 132.713 103.547 132.855 103.705C132.992 103.87 133.087 104.066 133.13 104.275C133.303 105.134 132.692 106.091 131.754 106.39C130.816 106.689 129.672 106.173 129.204 105.235C129.082 104.998 129.011 104.739 128.995 104.474C128.976 104.197 129.05 103.922 129.204 103.691C129.285 103.574 129.391 103.475 129.515 103.402C129.638 103.329 129.776 103.283 129.919 103.267C130.067 103.259 130.214 103.289 130.347 103.354C130.479 103.418 130.593 103.516 130.676 103.637C130.842 103.869 130.928 104.148 130.921 104.433C130.915 104.708 130.844 104.978 130.714 105.221C130.461 105.692 130.059 106.068 129.57 106.292C129.107 106.508 128.612 106.646 128.104 106.703C127.615 106.772 127.116 106.73 126.646 106.578C126.192 106.427 125.804 106.128 125.545 105.73C125.426 105.54 125.35 105.326 125.326 105.104C125.301 104.882 125.327 104.657 125.402 104.447C125.466 104.245 125.584 104.065 125.743 103.925C125.903 103.784 126.098 103.689 126.307 103.65C126.501 103.621 126.7 103.641 126.884 103.709C127.067 103.776 127.231 103.889 127.358 104.036C127.463 104.179 127.527 104.348 127.544 104.524C127.56 104.7 127.529 104.877 127.452 105.037C127.324 105.318 127.113 105.555 126.847 105.716C126.623 105.857 126.384 105.972 126.134 106.059C125.906 106.145 125.694 106.213 125.501 106.268C125.208 106.353 124.909 106.42 124.607 106.469L124.371 106.504H124.291C124.291 106.504 124.316 106.504 124.368 106.483L124.602 106.436C124.805 106.393 125.108 106.325 125.488 106.208C125.675 106.151 125.884 106.078 126.109 105.991C126.353 105.902 126.586 105.786 126.803 105.645C127.046 105.487 127.238 105.261 127.353 104.996C127.422 104.852 127.451 104.691 127.435 104.532C127.42 104.374 127.361 104.222 127.265 104.093C127.148 103.961 126.999 103.86 126.832 103.8C126.665 103.74 126.486 103.723 126.31 103.751C126.121 103.789 125.947 103.877 125.804 104.005C125.662 104.133 125.557 104.297 125.501 104.479C125.432 104.673 125.409 104.88 125.433 105.085C125.457 105.289 125.527 105.485 125.639 105.659C125.883 106.03 126.246 106.309 126.671 106.45C127.122 106.592 127.599 106.631 128.068 106.564C128.56 106.507 129.039 106.372 129.487 106.165C129.95 105.951 130.329 105.595 130.569 105.151C130.697 104.932 130.763 104.682 130.758 104.429C130.753 104.176 130.678 103.929 130.541 103.716C130.473 103.614 130.379 103.531 130.268 103.476C130.158 103.421 130.035 103.396 129.911 103.403C129.789 103.417 129.672 103.457 129.567 103.52C129.462 103.583 129.372 103.667 129.303 103.767C129.166 103.973 129.101 104.217 129.119 104.463C129.133 104.709 129.198 104.949 129.309 105.17C129.746 106.048 130.822 106.553 131.694 106.257C132.566 105.961 133.143 105.08 132.984 104.292C132.949 104.1 132.863 103.921 132.736 103.773C132.678 103.703 132.605 103.646 132.524 103.605C132.443 103.563 132.354 103.538 132.263 103.531C132.087 103.528 131.915 103.582 131.772 103.683C131.629 103.784 131.523 103.928 131.468 104.093C131.368 104.404 131.393 104.741 131.54 105.034C131.666 105.296 131.855 105.525 132.09 105.7C132.477 105.979 132.931 106.156 133.407 106.213C133.709 106.252 134.014 106.272 134.318 106.273H134.557L134.681 106.317Z" fill="#455A64"/>
<defs>
<linearGradient id="paint0_linear_639_164" x1="3.91502" y1="43.6726" x2="44.3173" y2="43.6726" gradientUnits="userSpaceOnUse">
<stop stop-color="#E07AA4"/>
<stop offset="1" stop-color="#F6790B"/>
</linearGradient>
<linearGradient id="paint1_linear_639_164" x1="33.5806" y1="110.676" x2="41.2803" y2="110.676" gradientUnits="userSpaceOnUse">
<stop stop-color="#E07AA4"/>
<stop offset="1" stop-color="#F6790B"/>
</linearGradient>
<linearGradient id="paint2_linear_639_164" x1="17.7686" y1="110.144" x2="25.273" y2="110.144" gradientUnits="userSpaceOnUse">
<stop stop-color="#E07AA4"/>
<stop offset="1" stop-color="#F6790B"/>
</linearGradient>
<linearGradient id="paint3_linear_639_164" x1="46.7573" y1="66.9831" x2="113.945" y2="66.9831" gradientUnits="userSpaceOnUse">
<stop stop-color="#E07AA4"/>
<stop offset="1" stop-color="#F6790B"/>
</linearGradient>
<linearGradient id="paint4_linear_639_164" x1="47.2498" y1="32.9905" x2="112.138" y2="32.9905" gradientUnits="userSpaceOnUse">
<stop stop-color="#E07AA4"/>
<stop offset="1" stop-color="#F6790B"/>
</linearGradient>
<linearGradient id="paint5_linear_639_164" x1="50.9636" y1="16.1002" x2="57.2411" y2="16.1002" gradientUnits="userSpaceOnUse">
<stop stop-color="#E07AA4"/>
<stop offset="1" stop-color="#F6790B"/>
</linearGradient>
<linearGradient id="paint6_linear_639_164" x1="53.2248" y1="18.859" x2="55.1614" y2="18.859" gradientUnits="userSpaceOnUse">
<stop stop-color="#E07AA4"/>
<stop offset="1" stop-color="#F6790B"/>
</linearGradient>
<linearGradient id="paint7_linear_639_164" x1="53.8354" y1="13.0424" x2="54.4516" y2="13.0424" gradientUnits="userSpaceOnUse">
<stop stop-color="#E07AA4"/>
<stop offset="1" stop-color="#F6790B"/>
</linearGradient>
<linearGradient id="paint8_linear_639_164" x1="130.794" y1="87.839" x2="139.567" y2="87.839" gradientUnits="userSpaceOnUse">
<stop stop-color="#E07AA4"/>
<stop offset="1" stop-color="#F6790B"/>
</linearGradient>
<linearGradient id="paint9_linear_639_164" x1="120.256" y1="80.9922" x2="133.02" y2="80.9922" gradientUnits="userSpaceOnUse">
<stop stop-color="#E07AA4"/>
<stop offset="1" stop-color="#F6790B"/>
</linearGradient>
</defs>
</svg>
