<svg width="150" height="112" viewBox="0 0 150 112" fill="none" xmlns="http://www.w3.org/2000/svg">
<rect width="150" height="112" fill="white"/>
<path d="M75.5 110C109.466 110 137 108.394 137 106.413C137 104.432 109.466 102.827 75.5 102.827C41.5345 102.827 14 104.432 14 106.413C14 108.394 41.5345 110 75.5 110Z" fill="#F5F5F5"/>
<path d="M28.2171 52.9217L26.5515 53.2114L34.3234 97.7863L35.989 97.4965L28.2171 52.9217Z" fill="#263238"/>
<path opacity="0.2" d="M28.2171 52.9217L26.5515 53.2114L34.3234 97.7863L35.989 97.4965L28.2171 52.9217Z" fill="white"/>
<path d="M34.8202 51.9626C36.9936 47.3235 34.9908 41.8028 30.3467 39.6317C25.7027 37.4605 20.176 39.4612 18.0025 44.1003C15.8291 48.7393 17.8319 54.26 22.476 56.4312C27.12 58.6023 32.6467 56.6016 34.8202 51.9626Z" fill="url(#paint0_linear_639_163)"/>
<path opacity="0.6" d="M34.8202 51.9626C36.9936 47.3235 34.9908 41.8028 30.3467 39.6317C25.7027 37.4605 20.176 39.4612 18.0025 44.1003C15.8291 48.7393 17.8319 54.26 22.476 56.4312C27.12 58.6023 32.6467 56.6016 34.8202 51.9626Z" fill="white"/>
<path d="M33.3162 53.1284C36.1336 49.3181 35.3253 43.9477 31.5109 41.1334C27.6965 38.319 22.3203 39.1264 19.5029 42.9367C16.6856 46.7471 17.4938 52.1174 21.3082 54.9318C25.1227 57.7461 30.4988 56.9387 33.3162 53.1284Z" fill="url(#paint1_linear_639_163)"/>
<path d="M21.397 48.842L23.8076 48.2083C23.8076 48.2083 23.963 46.3737 23.0559 42.6286C23.4637 42.4775 23.8908 42.3847 24.3246 42.3529C24.7592 42.3751 25.9106 46.5163 25.9106 46.5163C25.9106 46.5163 30.2022 45.1824 30.4813 45.3123C30.6589 45.3946 30.8492 46.0347 30.9634 46.4878C30.9972 46.6165 30.9838 46.753 30.9256 46.8727C30.8675 46.9924 30.7684 47.0874 30.6462 47.1405L30.5035 47.207L31.2901 51.4148C31.3168 51.5708 31.284 51.7311 31.1983 51.8642C31.1126 51.9973 30.9802 52.0935 30.827 52.134L26.767 53.1448C26.3653 53.2441 25.943 53.2198 25.5553 53.075L25.0415 52.8818L22.5769 53.6612L21.397 48.842Z" fill="url(#paint2_linear_639_163)"/>
<path opacity="0.7" d="M21.397 48.842L23.8076 48.2083C23.8076 48.2083 23.963 46.3737 23.0559 42.6286C23.4637 42.4775 23.8908 42.3847 24.3246 42.3529C24.7592 42.3751 25.9106 46.5163 25.9106 46.5163C25.9106 46.5163 30.2022 45.1824 30.4813 45.3123C30.6589 45.3946 30.8492 46.0347 30.9634 46.4878C30.9972 46.6165 30.9838 46.753 30.9256 46.8727C30.8675 46.9924 30.7684 47.0874 30.6462 47.1405L30.5035 47.207L31.2901 51.4148C31.3168 51.5708 31.284 51.7311 31.1983 51.8642C31.1126 51.9973 30.9802 52.0935 30.827 52.134L26.767 53.1448C26.3653 53.2441 25.943 53.2198 25.5553 53.075L25.0415 52.8818L22.5769 53.6612L21.397 48.842Z" fill="white"/>
<path d="M58.2227 81.3537L57.5027 79.4526C47.8728 79.8962 46.7944 76.2842 46.6929 75.1182C46.5121 72.9794 48.4469 71.0308 51.0098 70.7742C54.5401 70.413 56.8937 73.5719 58.0927 75.6536C59.9102 73.4674 63.4278 71.6614 66.0795 71.6614C68.1095 71.6614 69.5528 72.6119 70.0349 74.5447C70.4219 76.0941 69.8731 77.0541 69.3434 77.6498C67.1041 80.1846 60.6429 79.6839 58.7017 79.4843L58.2227 81.3537ZM59.3646 77.5199C62.2891 77.7765 66.5426 77.5864 67.7384 76.2525C67.9287 76.037 68.1254 75.8152 67.9541 75.1277C67.7099 74.1486 67.1294 73.8254 66.0795 73.8254C63.7323 73.8128 60.4335 75.8089 59.3646 77.5199V77.5199ZM51.5554 72.8971C51.4494 72.8978 51.3435 72.9042 51.2382 72.9161C49.7855 73.0618 48.7768 74.1074 48.8466 74.9471C48.9291 75.8976 50.7021 77.4977 56.6558 77.3488C55.9072 75.8659 54.1183 72.8971 51.5554 72.8971Z" fill="#263238"/>
<path d="M78.916 78.3373H37.1135V107.022H78.916V78.3373Z" fill="url(#paint3_linear_639_163)"/>
<path opacity="0.2" d="M78.916 78.3373H37.1135V107.022H78.916V78.3373Z" fill="white"/>
<path opacity="0.2" d="M78.916 88.2515H37.1135V107.025H78.916V88.2515Z" fill="black"/>
<path d="M68.3695 78.3373H64.9724V107.022H68.3695V78.3373Z" fill="#263238"/>
<path d="M45.4748 78.3373H42.9817V107.022H45.4748V78.3373Z" fill="#263238"/>
<path opacity="0.2" d="M53.7216 78.3373H37.1135V107.022H53.7216V78.3373Z" fill="black"/>
<path d="M32.7079 88.3972C31.3915 88.5334 27.0238 88.8661 25.5077 87.1583C25.2525 86.879 25.0751 86.5378 24.9933 86.1686C24.9115 85.7994 24.928 85.4152 25.0414 85.0544C25.3586 83.749 26.3419 83.0995 27.7153 83.0995C29.5106 83.0995 31.8895 84.3257 33.1075 85.8054C33.9195 84.3954 35.5087 82.2598 37.8971 82.5038C39.6321 82.6781 40.9421 83.9962 40.8184 85.4442C40.7518 86.2236 40.0191 88.676 33.504 88.375L33.0187 89.6582L32.7079 88.3972ZM27.7185 84.5285C27.008 84.5285 26.6178 84.7598 26.4497 85.422C26.3955 85.5499 26.3805 85.691 26.4064 85.8274C26.4324 85.9639 26.4982 86.0896 26.5956 86.1888C27.4045 87.1013 30.2814 87.2217 32.2638 87.0474C31.5375 85.8878 29.3044 84.5285 27.7185 84.5285ZM34.1003 86.946C38.1287 87.0474 39.3308 85.9606 39.3847 85.3206C39.4323 84.7534 38.7504 84.0532 37.7671 83.9486C37.6921 83.944 37.6169 83.944 37.5419 83.9486C35.81 83.936 34.5983 85.9448 34.1003 86.946Z" fill="url(#paint4_linear_639_163)"/>
<path d="M19.0338 107.022H47.3145V87.6147H19.0338L19.0338 107.022Z" fill="url(#paint5_linear_639_163)"/>
<path opacity="0.6" d="M19.0338 107.022H47.3145V87.6147H19.0338L19.0338 107.022Z" fill="white"/>
<path opacity="0.1" d="M19.0338 107.025H47.3145V94.3223H19.0338V107.025Z" fill="black"/>
<path opacity="0.2" d="M36.0732 107.022H47.3113V87.6147H36.0732V107.022Z" fill="white"/>
<path d="M26.1677 107.022H28.4641L28.4641 87.6147H26.1677L26.1677 107.022Z" fill="url(#paint6_linear_639_163)"/>
<path d="M41.6558 107.022H43.3433V87.6147H41.6558V107.022Z" fill="url(#paint7_linear_639_163)"/>
<path d="M118.727 83.1503C118.727 83.1503 120.947 81.2999 122.85 83.1503C124.753 85.0007 125.124 96.4579 125.124 96.4579" stroke="#407BFF" stroke-width="0.326" stroke-miterlimit="10"/>
<path d="M125.299 98.6853C125.299 98.6853 123.989 85.2256 128.921 79.5698" stroke="#407BFF" stroke-width="0.326" stroke-miterlimit="10"/>
<path d="M124.817 97.2658C124.817 97.2658 125.825 81.9398 122.127 78.5432" stroke="#407BFF" stroke-width="0.326" stroke-miterlimit="10"/>
<path d="M125.299 97.2658C125.299 97.2658 125.385 87.1267 128.135 85.5678C130.885 84.0089 132.277 89.126 132.277 89.126" stroke="#407BFF" stroke-width="0.326" stroke-miterlimit="10"/>
<path d="M124.198 97.2659C124.198 97.2659 124.649 89.4936 122.517 86.7148C120.386 83.9361 118.146 87.9062 118.146 87.9062" stroke="#407BFF" stroke-width="0.326" stroke-miterlimit="10"/>
<path d="M124.944 98.3082C124.944 98.3082 123.564 80.1275 125.844 77.0477" stroke="#407BFF" stroke-width="0.326" stroke-miterlimit="10"/>
<path d="M130.476 87.0413C130.476 87.0413 129.105 87.5482 129.524 88.7396C129.943 89.9309 134.282 91.9081 134.282 91.9081C134.282 91.9081 136.096 90.2446 134.431 87.5419C132.766 84.8392 130.514 86.189 130.476 87.0413Z" fill="url(#paint8_linear_639_163)"/>
<path opacity="0.2" d="M130.476 87.0413C130.476 87.0413 129.105 87.5482 129.524 88.7396C129.943 89.9309 134.282 91.9081 134.282 91.9081C134.282 91.9081 136.096 90.2446 134.431 87.5419C132.766 84.8392 130.514 86.189 130.476 87.0413Z" fill="white"/>
<path d="M124.516 84.7725C124.516 84.7725 125.975 84.7123 126.06 85.9702C126.146 87.2281 122.888 90.7039 122.888 90.7039C122.888 90.7039 120.573 89.8674 121.071 86.7306C121.569 83.5938 124.154 83.9994 124.516 84.7725Z" fill="url(#paint9_linear_639_163)"/>
<path opacity="0.2" d="M124.516 84.7725C124.516 84.7725 125.975 84.7123 126.06 85.9702C126.146 87.2281 122.888 90.7039 122.888 90.7039C122.888 90.7039 120.573 89.8674 121.071 86.7306C121.569 83.5938 124.154 83.9994 124.516 84.7725Z" fill="white"/>
<path d="M123.279 78.7714C123.279 78.7714 124.252 78.6668 124.176 78.0743C124.1 77.4818 120.392 75.9578 118.204 78.4229C118.204 78.4229 119.606 80.8246 121.629 80.8563C123.653 80.888 123.279 78.7714 123.279 78.7714Z" fill="url(#paint10_linear_639_163)"/>
<path opacity="0.2" d="M123.279 78.7714C123.279 78.7714 124.252 78.6668 124.176 78.0743C124.1 77.4818 120.392 75.9578 118.204 78.4229C118.204 78.4229 119.606 80.8246 121.629 80.8563C123.653 80.888 123.279 78.7714 123.279 78.7714Z" fill="white"/>
<path d="M125.093 77.317C125.093 77.317 124.211 77.7448 123.967 77.1998C123.723 76.6548 126.057 73.3976 129.216 74.3482C129.216 74.3482 129.299 77.1269 127.599 78.22C125.898 79.3132 125.093 77.317 125.093 77.317Z" fill="url(#paint11_linear_639_163)"/>
<path opacity="0.2" d="M125.093 77.317C125.093 77.317 124.211 77.7448 123.967 77.1998C123.723 76.6548 126.057 73.3976 129.216 74.3482C129.216 74.3482 129.299 77.1269 127.599 78.22C125.898 79.3132 125.093 77.317 125.093 77.317Z" fill="white"/>
<path d="M120.484 86.5627C120.484 86.5627 121.156 86.0209 120.433 85.7579C119.71 85.4949 116.151 85.5678 116.113 89.088C116.113 89.088 120.256 89.7755 120.769 88.4353C121.283 87.095 120.484 86.5627 120.484 86.5627Z" fill="url(#paint12_linear_639_163)"/>
<path opacity="0.2" d="M120.484 86.5627C120.484 86.5627 121.156 86.0209 120.433 85.7579C119.71 85.4949 116.151 85.5678 116.113 89.088C116.113 89.088 120.256 89.7755 120.769 88.4353C121.283 87.095 120.484 86.5627 120.484 86.5627Z" fill="white"/>
<path d="M128.934 78.6668C128.934 78.6668 128.262 78.125 128.988 77.862C129.714 77.599 133.27 77.6719 133.305 81.1921C133.305 81.1921 129.162 81.8796 128.652 80.5394C128.141 79.1991 128.934 78.6668 128.934 78.6668Z" fill="url(#paint13_linear_639_163)"/>
<path opacity="0.2" d="M128.934 78.6668C128.934 78.6668 128.262 78.125 128.988 77.862C129.714 77.599 133.27 77.6719 133.305 81.1921C133.305 81.1921 129.162 81.8796 128.652 80.5394C128.141 79.1991 128.934 78.6668 128.934 78.6668Z" fill="white"/>
<path d="M126.742 81.5026C126.742 81.5026 126.685 80.8436 127.218 81.1034C127.751 81.3632 129.603 83.3593 127.681 85.2573C127.681 85.2573 125.093 83.3403 125.559 82.3454C126.025 81.3505 126.742 81.5026 126.742 81.5026Z" fill="url(#paint14_linear_639_163)"/>
<path opacity="0.2" d="M126.742 81.5026C126.742 81.5026 126.685 80.8436 127.218 81.1034C127.751 81.3632 129.603 83.3593 127.681 85.2573C127.681 85.2573 125.093 83.3403 125.559 82.3454C126.025 81.3505 126.742 81.5026 126.742 81.5026Z" fill="white"/>
<path d="M119.885 82.4437C119.885 82.4437 120.287 81.9177 119.698 81.8512C119.108 81.7846 116.475 82.4849 117.087 85.1179C117.087 85.1179 120.3 84.8771 120.437 83.7839C120.573 82.6908 119.885 82.4437 119.885 82.4437Z" fill="url(#paint15_linear_639_163)"/>
<path opacity="0.2" d="M119.885 82.4437C119.885 82.4437 120.287 81.9177 119.698 81.8512C119.108 81.7846 116.475 82.4849 117.087 85.1179C117.087 85.1179 120.3 84.8771 120.437 83.7839C120.573 82.6908 119.885 82.4437 119.885 82.4437Z" fill="white"/>
<path d="M130.733 107.025H119.717L118.527 94.975H131.922L130.733 107.025Z" fill="url(#paint16_linear_639_163)"/>
<path opacity="0.5" d="M130.733 107.025H119.717L118.527 94.975H131.922L130.733 107.025Z" fill="white"/>
<path d="M132.509 93.6443H117.937V96.3026H132.509V93.6443Z" fill="url(#paint17_linear_639_163)"/>
<path opacity="0.2" d="M132.509 93.6443H117.937V96.3026H132.509V93.6443Z" fill="white"/>
<path d="M110.8 18.7351C110.8 18.7351 109.982 16.8562 107.349 16.8562C104.716 16.8562 102.518 18.4214 102.642 20.4271C102.766 22.4327 101.262 22.2458 101.012 24.1881C100.761 26.1303 101.7 26.631 101.763 27.4484C101.827 28.2659 100.761 28.0124 100.07 29.3907C99.3781 30.769 98.5027 32.7113 101.449 35.2809C104.396 37.8506 112.745 37.4133 114.562 35.8449C116.38 34.2765 116.319 31.2696 114.562 30.4585C112.805 29.6474 114.438 29.7678 114.625 27.9522C114.813 26.1367 113.182 25.446 113.309 24.0043C113.436 22.5626 113.88 18.8619 110.8 18.7351Z" fill="#263238"/>
<path d="M95.483 45.0525L92.8852 43.6362C92.8852 43.6362 92.1494 41.7351 91.7592 41.5324C91.3691 41.3296 88.5461 41.3834 88.1876 41.3834C87.8292 41.3834 87.9275 44.0228 88.0988 44.4632C88.2701 44.9036 91.3881 45.0494 91.6926 45.0969L94.8645 47.394L95.483 45.0525Z" fill="#B97964"/>
<path d="M99.8507 30.8641C97.8936 30.8641 96.3045 44.6407 96.3045 44.6407L93.6274 43.6363L91.9558 46.0602C91.9558 46.0602 94.9659 49.9035 97.8936 49.4029C100.821 48.9023 102.334 33.8393 102.334 33.8393L99.8507 30.8641Z" fill="url(#paint18_linear_639_163)"/>
<path opacity="0.2" d="M102.328 33.8393C102.328 33.8393 102.29 34.2322 102.211 34.8976C101.805 38.3323 100.352 48.9847 97.8936 49.4029C97.6602 49.444 97.4227 49.4568 97.1863 49.4409C94.4997 49.311 91.9558 46.0602 91.9558 46.0602L93.6274 43.6395L96.3045 44.6407C96.3045 44.6407 97.8904 30.8515 99.8507 30.8641L102.328 33.8393Z" fill="white"/>
<path opacity="0.2" d="M102.211 34.8975C101.805 38.3322 100.352 48.9846 97.8937 49.4028C97.6604 49.4439 97.4229 49.4567 97.1864 49.4409C97.123 40.5945 99.8191 32.7747 99.8191 32.7747L102.211 34.8975Z" fill="black"/>
<path d="M101.285 51.2311C101.285 51.2311 97.8463 69.5322 96.9296 77.0479C95.7307 86.8511 90.8301 101.192 90.8301 101.192L92.7903 101.699C92.7903 101.699 99.6987 89.5095 101.037 78.5466C106.525 67.3396 106.969 53.5377 106.969 53.5377L101.285 51.2311Z" fill="#B97964"/>
<path d="M87.1824 105.628C87.4999 105.486 87.8408 105.405 88.1879 105.387C88.1879 105.387 89.3932 104.677 90.5858 101.927H91.9307C92.1575 101.93 92.3778 102.002 92.5621 102.134C92.7464 102.266 92.8858 102.452 92.9616 102.665C92.9837 102.725 92.9965 102.788 92.9997 102.852C92.9869 103.176 92.952 103.499 92.895 103.818C92.6983 104.889 92.4366 105.947 92.1115 106.987L91.8832 106.927L92.2987 104.927C92.4351 104.246 91.7182 104.902 91.3883 105.59C91.0585 106.277 90.5478 106.965 89.0633 106.626C87.3378 106.188 86.64 105.938 87.1824 105.628Z" fill="#263238"/>
<path d="M104.853 50.9397C104.853 50.9397 105.281 69.5545 105.938 77.0955C106.797 86.9368 104.986 101.981 104.986 101.981L107.01 102.069C107.01 102.069 111.244 88.7175 110.293 77.7134C113.341 65.6129 110.927 52.0202 110.927 52.0202L104.853 50.9397Z" fill="#B97964"/>
<path d="M101.827 106.242C102.126 106.062 102.456 105.939 102.801 105.878C102.801 105.878 103.92 105.045 104.812 102.18L106.144 102.028C106.371 102.007 106.6 102.056 106.798 102.17C106.996 102.283 107.154 102.455 107.251 102.662C107.279 102.719 107.298 102.78 107.308 102.842C107.328 103.166 107.328 103.491 107.308 103.815C107.226 104.896 107.079 105.971 106.867 107.034L106.635 107.003L106.829 104.969C106.892 104.278 106.255 105.007 105.998 105.726C105.741 106.445 105.313 107.183 103.8 106.993C102.039 106.781 101.319 106.607 101.827 106.242Z" fill="#263238"/>
<path d="M90.8299 101.192C90.8299 101.192 89.1393 104.696 88.1877 105.387C88.1877 105.387 89.4819 106.157 90.8299 104.436C92.5713 102.218 92.9995 102.852 92.9995 102.852C92.9649 102.469 92.8948 102.091 92.7902 101.721C92.5269 100.983 90.8299 101.192 90.8299 101.192Z" fill="#B97964"/>
<path d="M105.177 101.163C105.177 101.163 104.701 102.459 104.066 103.885C103.775 104.624 103.344 105.301 102.798 105.878C102.798 105.878 103.898 106.236 104.495 105.545C105.091 104.854 106.106 102.377 107.248 102.649C107.187 102.446 107.102 102.252 106.994 102.069C106.823 101.787 105.177 101.163 105.177 101.163Z" fill="#B97964"/>
<path d="M100.108 48.1768C100.108 48.1768 98.7469 61.7252 96.7233 75.3085C95.5368 83.0482 93.7185 90.678 91.2866 98.1215L95.3022 98.4574C95.3022 98.4574 102.997 79.4021 105.341 68.3727C105.341 68.3727 106.176 87.9254 104.837 98.7901L108.351 98.6222C108.351 98.6222 116.916 61.8234 110.527 48.5601L100.108 48.1768Z" fill="url(#paint19_linear_639_163)"/>
<path opacity="0.4" d="M108.351 98.6253L104.837 98.7901C106.176 87.9285 105.341 68.3727 105.341 68.3727C104.748 71.1578 103.816 74.4498 102.753 77.8211C99.6034 87.805 95.3022 98.4574 95.3022 98.4574L91.2866 98.1215C93.719 90.6781 95.5373 83.0483 96.7233 75.3085C98.7469 61.7252 100.108 48.1768 100.108 48.1768L110.527 48.5696C116.925 61.8234 108.351 98.6253 108.351 98.6253Z" fill="white"/>
<path opacity="0.2" d="M105.341 68.3726C104.748 71.1577 103.816 74.4498 102.753 77.821C102.347 71.4841 103.962 60.0997 103.962 60.0997L105.341 68.3726Z" fill="black"/>
<path d="M110.505 47.9105L110.534 49.4409L100.051 48.8389L100.019 47.0265L110.505 47.9105Z" fill="#263238"/>
<path d="M102.317 49.1001L104.608 49.2614L104.731 47.5262L102.44 47.3649L102.317 49.1001Z" fill="white"/>
<path d="M106.889 49.9849L107.409 50.0016L107.494 47.3573L106.974 47.3406L106.889 49.9849Z" fill="url(#paint20_linear_639_163)"/>
<path opacity="0.4" d="M106.889 49.9849L107.409 50.0016L107.494 47.3573L106.974 47.3406L106.889 49.9849Z" fill="white"/>
<path d="M100.485 49.3947L101.005 49.4114L101.09 46.7671L100.57 46.7504L100.485 49.3947Z" fill="url(#paint21_linear_639_163)"/>
<path opacity="0.4" d="M100.485 49.3947L101.005 49.4114L101.09 46.7671L100.57 46.7504L100.485 49.3947Z" fill="white"/>
<path d="M100.057 46.6083L110.524 47.5113C110.626 44.9194 110.999 42.3452 111.637 39.8309C111.888 38.8297 112.202 37.7112 112.605 36.4184C112.821 35.7277 113.058 34.9863 113.325 34.2005C113.525 33.5953 113.74 32.9521 113.978 32.2741C112.557 31.8207 111.105 31.4702 109.633 31.2253C108.08 30.9497 106.509 30.7846 104.932 30.731C102.896 30.7152 100.555 30.9433 100.555 30.9433C100.555 30.9433 100.222 31.0225 100.012 33.1802C99.8253 35.1922 99.6382 39.2416 100.057 46.6083Z" fill="url(#paint22_linear_639_163)"/>
<path d="M100.038 47.2198L110.505 47.9105C110.67 45.3124 110.857 42.9297 111.641 39.8309C111.891 38.8297 112.205 37.7112 112.608 36.4184C112.824 35.7277 113.062 34.9863 113.328 34.2005C113.528 33.5953 113.744 32.9521 113.982 32.2741C112.56 31.8207 111.108 31.4702 109.636 31.2253C108.083 30.9497 106.512 30.7846 104.935 30.731C102.899 30.7152 100.558 30.9433 100.558 30.9433C100.558 30.9433 100.225 31.0225 100.016 33.1802C99.8253 35.1922 99.6065 39.8531 100.038 47.2198Z" fill="#263238"/>
<g opacity="0.1">
<path d="M100.057 46.6083L110.524 47.5113C110.626 44.9194 110.999 42.3452 111.637 39.8309C111.888 38.8297 112.202 37.7112 112.605 36.4184C112.821 35.7277 113.058 34.9863 113.325 34.2005C113.525 33.5953 113.74 32.9521 113.978 32.2741C112.557 31.8207 111.105 31.4702 109.633 31.2253C108.08 30.9497 106.509 30.7846 104.932 30.731C102.896 30.7152 100.555 30.9433 100.555 30.9433C100.555 30.9433 100.222 31.0225 100.012 33.1802C99.8253 35.1922 99.6382 39.2416 100.057 46.6083Z" fill="white"/>
</g>
<path d="M105.798 33.0282C108.38 32.7113 109.154 31.596 109.154 31.596C107.517 30.053 108.878 27.3788 108.878 27.3788L105.773 27.9586C105.842 28.3905 105.883 28.8267 105.893 29.264C105.915 31.1493 105.065 31.1651 105.065 31.1651C104.52 32.1949 105.798 33.0282 105.798 33.0282Z" fill="#B97964"/>
<path opacity="0.2" d="M105.773 27.9586C105.842 28.3905 105.883 28.8267 105.893 29.264C107.99 29.264 108.878 27.3788 108.878 27.3788L105.773 27.9586Z" fill="black"/>
<path d="M107.489 19.2832C104.79 19.1374 103.841 20.5316 103.489 23.3008C103.051 26.7608 103.689 29.2702 107.105 28.7126C111.746 27.9553 111.977 19.5208 107.489 19.2832Z" fill="#B97964"/>
<path d="M105.243 23.2472C105.005 23.6382 104.721 23.9989 104.396 24.3213C104.469 24.437 104.572 24.5305 104.695 24.5914C104.817 24.6523 104.954 24.6784 105.091 24.6667L105.243 23.2472Z" fill="#A24E3F"/>
<path d="M106.902 23.1173C106.902 23.3359 106.991 23.526 107.137 23.5387C107.282 23.5514 107.419 23.3803 107.438 23.1585C107.457 22.9367 107.349 22.7466 107.2 22.7371C107.051 22.7276 106.927 22.8955 106.902 23.1173Z" fill="#263238"/>
<path d="M107.267 22.7529L106.8 22.5248C106.8 22.5248 107.01 22.9494 107.267 22.7529Z" fill="#263238"/>
<path d="M104.158 22.8543C104.142 23.0761 104.247 23.263 104.393 23.2757C104.539 23.2883 104.675 23.1172 104.71 22.8955C104.745 22.6737 104.621 22.4867 104.472 22.474C104.323 22.4614 104.177 22.6325 104.158 22.8543Z" fill="#263238"/>
<path d="M104.517 22.4897L104.05 22.2648C104.05 22.2648 104.26 22.6893 104.517 22.4897Z" fill="#263238"/>
<path d="M107.038 21.2541C107.253 21.2397 107.468 21.2748 107.667 21.3566C107.867 21.4385 108.044 21.5649 108.187 21.7262" stroke="#2E353A" stroke-width="0.23472" stroke-linecap="round" stroke-linejoin="round"/>
<path d="M105.081 21.0323C104.899 20.9764 104.707 20.9622 104.518 20.9908C104.33 21.0193 104.15 21.0898 103.993 21.1971" stroke="#2E353A" stroke-width="0.23472" stroke-linecap="round" stroke-linejoin="round"/>
<path d="M105.427 25.747C105.538 26.057 105.626 26.3747 105.69 26.6975C105.748 26.7007 105.807 26.7007 105.865 26.6975C106.655 26.6627 107.01 26.3807 107.165 26.0892C107.237 25.9423 107.272 25.7803 107.267 25.6171C107.268 25.5241 107.256 25.4313 107.232 25.3414C106.754 25.581 106.231 25.715 105.697 25.7343C105.532 25.747 105.427 25.747 105.427 25.747Z" fill="#263238"/>
<path d="M105.697 25.7312L105.782 26.01C106.524 25.9751 107.051 25.8484 107.267 25.6139C107.267 25.5209 107.256 25.4282 107.232 25.3383C106.754 25.5778 106.231 25.7118 105.697 25.7312V25.7312Z" fill="white"/>
<path d="M105.865 26.6944C106.655 26.6596 107.01 26.3776 107.165 26.0861C106.864 26.105 106.569 26.1769 106.293 26.2983C106.113 26.3834 105.963 26.5216 105.865 26.6944V26.6944Z" fill="#DE5753"/>
<path d="M110.191 23.9917C110.191 23.9917 109.049 21.7072 109.335 20.0057C109.335 20.0057 104.104 17.5312 103.543 22.9397C103.543 22.9397 103.283 18.0951 107.93 18.2409C112.576 18.3866 112.186 25.1704 109.677 27.0588C109.677 27.0588 110.895 25.4207 110.191 23.9917Z" fill="#263238"/>
<path d="M110.464 19.0267C110.464 19.0267 108.352 17.1477 106.429 17.5026C104.507 17.8575 104.843 20.3859 107.381 21.346C109.919 22.306 110.436 23.5417 110.436 23.5417L112.631 21.5773L110.464 19.0267Z" fill="#263238"/>
<path d="M105.865 18.2948C105.865 18.2948 104.964 18.355 105.214 19.6921C105.465 21.0292 107.368 21.7009 109.167 22.3283C110.965 22.9556 110.819 23.6622 110.819 23.6622" stroke="#263238" stroke-width="0.163" stroke-miterlimit="10"/>
<path d="M109.719 24.5367C109.761 24.2263 109.925 23.9454 110.175 23.7558C110.425 23.5663 110.74 23.4836 111.051 23.526C111.885 23.6622 112.189 25.3986 110.083 25.6996C109.782 25.7408 109.63 25.4398 109.719 24.5367Z" fill="#B97964"/>
<path d="M111.546 31.878C111.546 31.878 108.516 34.3336 105.697 34.2956C102.877 34.2576 101.89 31.0859 101.89 31.0859C101.89 31.0859 106.268 29.7964 111.546 31.878Z" fill="#B97964"/>
<path d="M109.7 31.0194C108.688 37.895 108.741 44.8851 109.858 51.7445L112.868 51.4086L114.293 32.1062L109.7 31.0194Z" fill="url(#paint23_linear_639_163)"/>
<path opacity="0.2" d="M114.292 32.1062L114.14 34.153L113.376 44.5171L112.868 51.4086L109.858 51.7445C109.823 51.5258 109.788 51.3072 109.756 51.0917C109.239 47.6942 108.982 44.2624 108.986 40.8259V40.4742C108.988 37.3092 109.226 34.1489 109.699 31.0194L111.095 31.3363L114.292 32.1062Z" fill="white"/>
<path d="M103.917 30.6107C103.917 30.6107 100.558 40.4615 100.07 50.5722L98.972 50.2553C98.972 50.2553 98.1664 39.3177 99.8411 30.88L103.917 30.6107Z" fill="url(#paint24_linear_639_163)"/>
<path opacity="0.2" d="M103.917 30.6107C102.967 33.5588 102.178 36.5564 101.554 39.5902C101.383 40.4108 101.215 41.2695 101.059 42.1567C100.767 43.7979 100.514 45.5343 100.327 47.3118C100.212 48.3922 100.124 49.4854 100.07 50.5848L98.9722 50.2553C98.9722 50.2553 98.8675 48.8517 98.8136 46.6591C98.7755 45.154 98.7596 43.2751 98.8136 41.2283C98.8727 37.7568 99.2153 34.2959 99.8381 30.88L102.626 30.6994L103.917 30.6107Z" fill="white"/>
<path opacity="0.2" d="M110.109 34.7487L111.174 36.2537L108.986 40.4742C108.988 37.3092 109.227 34.1489 109.7 31.0194L111.095 31.3363L111.99 33.3261L110.109 34.7487Z" fill="white"/>
<path opacity="0.2" d="M103.917 30.6107C102.967 33.5588 102.178 36.5564 101.554 39.5902L100.761 35.2589L102.328 33.8489L101.326 32.2837L102.639 30.6994L103.917 30.6107Z" fill="white"/>
<path opacity="0.2" d="M114.14 34.153L113.376 44.5171C112.484 46.735 111.273 49.2096 109.756 51.0917C109.239 47.6942 108.982 44.2623 108.986 40.8258C110.372 38.5667 112.348 35.6421 114.061 34.2163L114.14 34.153Z" fill="black"/>
<path opacity="0.2" d="M101.059 42.1471C100.767 43.7884 100.514 45.5247 100.327 47.3022C99.8286 47.0899 99.3179 46.865 98.8231 46.6432C98.785 45.1382 98.7692 43.2592 98.8231 41.2124L101.059 42.1471Z" fill="black"/>
<path d="M90.4777 43.1642C90.4777 43.1642 88.1178 42.2136 89.1233 39.7739C89.1233 39.7739 88.4413 40.4076 86.8554 39.6218C86.8554 39.6218 88.5079 40.4108 88.2764 40.9241C88.0829 41.3518 85.9102 41.5831 85.9102 41.5831C85.9102 41.5831 88.3557 41.4152 88.6158 41.9412C88.7776 42.2738 87.1345 44.2415 87.1345 44.2415C87.1345 44.2415 88.8632 42.5717 89.2311 42.7871C89.5991 43.0026 89.1138 44.3936 89.1138 44.3936C89.1138 44.3936 89.5832 43.1927 89.8528 43.2307C90.1224 43.2687 90.0812 44.0704 90.0812 44.0704C90.0812 44.0704 90.0907 43.2181 90.4777 43.1642Z" fill="url(#paint25_linear_639_163)"/>
<path d="M92.3747 37.8632C92.3747 37.8632 90.4081 36.2568 88.7492 38.3227C88.7492 38.3227 88.9808 37.4165 87.5186 36.4216C87.5186 36.4216 89.0093 37.483 89.3487 37.0299C89.6279 36.656 88.7778 34.644 88.7778 34.644C88.7778 34.644 89.815 36.862 90.4018 36.8335C90.7729 36.8145 91.6991 34.4286 91.6991 34.4286C91.6991 34.4286 91.0647 36.7479 91.4422 36.9634C91.8197 37.1788 92.7903 36.0825 92.7903 36.0825C92.7903 36.0825 91.9687 37.0743 92.1305 37.2929C92.2923 37.5115 92.9774 37.0869 92.9774 37.0869C92.9774 37.0869 92.2257 37.4862 92.3747 37.8632Z" fill="url(#paint26_linear_639_163)"/>
<path opacity="0.7" d="M90.4777 43.1642C90.4777 43.1642 88.1178 42.2136 89.1233 39.7739C89.1233 39.7739 88.4413 40.4076 86.8554 39.6218C86.8554 39.6218 88.5079 40.4108 88.2764 40.9241C88.0829 41.3518 85.9102 41.5831 85.9102 41.5831C85.9102 41.5831 88.3557 41.4152 88.6158 41.9412C88.7776 42.2738 87.1345 44.2415 87.1345 44.2415C87.1345 44.2415 88.8632 42.5717 89.2311 42.7871C89.5991 43.0026 89.1138 44.3936 89.1138 44.3936C89.1138 44.3936 89.5832 43.1927 89.8528 43.2307C90.1224 43.2687 90.0812 44.0704 90.0812 44.0704C90.0812 44.0704 90.0907 43.2181 90.4777 43.1642Z" fill="white"/>
<path opacity="0.7" d="M92.3747 37.8632C92.3747 37.8632 90.4081 36.2568 88.7492 38.3227C88.7492 38.3227 88.9808 37.4165 87.5186 36.4216C87.5186 36.4216 89.0093 37.483 89.3487 37.0299C89.6279 36.656 88.7778 34.644 88.7778 34.644C88.7778 34.644 89.815 36.862 90.4018 36.8335C90.7729 36.8145 91.6991 34.4286 91.6991 34.4286C91.6991 34.4286 91.0647 36.7479 91.4422 36.9634C91.8197 37.1788 92.7903 36.0825 92.7903 36.0825C92.7903 36.0825 91.9687 37.0743 92.1305 37.2929C92.2923 37.5115 92.9774 37.0869 92.9774 37.0869C92.9774 37.0869 92.2257 37.4862 92.3747 37.8632Z" fill="white"/>
<path d="M99.7874 42.597L95.5275 39.7041C95.5275 39.7041 94.1509 35.6548 93.821 35.5851C93.4911 35.5154 91.2137 36.7479 91.1027 37.1092C90.9917 37.4704 92.3366 40.3632 92.6886 40.7307C93.0407 41.0983 93.9288 41.1363 93.9288 41.1363L98.0777 44.3935L99.7874 42.597Z" fill="#B97964"/>
<path d="M114.292 32.1061C113.078 32.0269 108.602 43.9721 107.933 44.9733C107.263 45.9745 97.1832 40.6705 97.1832 40.6705L95.6797 43.9911C95.6797 43.9911 106.658 50.5118 109.69 49.5708C111.885 48.8895 113.956 41.9664 114.876 38.9564C116.345 34.1624 115.403 32.1758 114.292 32.1061Z" fill="url(#paint27_linear_639_163)"/>
<path opacity="0.2" d="M114.292 32.1061C113.078 32.0269 108.602 43.9721 107.933 44.9733C107.263 45.9745 97.1832 40.6705 97.1832 40.6705L95.6797 43.9911C95.6797 43.9911 106.658 50.5118 109.69 49.5708C111.885 48.8895 113.956 41.9664 114.876 38.9564C116.345 34.1624 115.403 32.1758 114.292 32.1061Z" fill="white"/>
<path d="M77.1372 3.94083L72.8491 3.19941C72.2121 3.08928 71.6064 3.51579 71.4962 4.15204L70.754 8.4355C70.6437 9.07176 71.0707 9.67682 71.7076 9.78695L75.9957 10.5284C76.6326 10.6385 77.2384 10.212 77.3486 9.57574L78.0908 5.29227C78.2011 4.65602 77.7741 4.05096 77.1372 3.94083Z" fill="url(#paint28_linear_639_163)"/>
<path opacity="0.6" d="M76.4516 5.87733C76.1154 5.04402 75.1829 5.18026 74.6151 5.68722C74.2567 5.01867 73.4193 4.57508 72.8198 5.24997C71.8143 6.38745 73.229 7.84812 73.9141 8.4438L74.1076 8.61172L74.3486 8.51984C75.2019 8.18715 77.0257 7.2873 76.4516 5.87733Z" fill="white"/>
<path d="M74.6467 9.76837C74.6467 9.76837 73.4382 11.5934 71.3955 11.8754C71.3955 11.8754 72.5755 11.4445 72.8482 9.37231L74.6467 9.76837Z" fill="url(#paint29_linear_639_163)"/>
<path d="M59.8177 104.084H56.6776C56.6263 104.085 56.5767 104.102 56.5369 104.135C56.4971 104.167 56.4695 104.212 56.4587 104.262L55.948 106.559C55.9273 106.658 55.9467 106.761 56.002 106.846C56.0573 106.931 56.1439 106.991 56.243 107.012C56.2703 107.017 56.2982 107.017 56.3255 107.012C57.3405 107.012 58.0827 106.936 59.3578 106.936C60.1445 106.936 62.5139 107.015 63.5987 107.015C64.6834 107.015 64.8262 105.947 64.3821 105.846C62.3902 105.415 60.893 104.813 60.2586 104.243C60.1992 104.189 60.1296 104.147 60.054 104.12C59.9783 104.093 59.8981 104.081 59.8177 104.084V104.084Z" fill="#263238"/>
<path d="M73.1337 104.002H69.9935C69.9422 104.002 69.8926 104.02 69.8528 104.052C69.813 104.084 69.7854 104.129 69.7746 104.179L69.2639 106.477C69.2432 106.576 69.2626 106.679 69.3179 106.764C69.3732 106.849 69.4598 106.908 69.5589 106.93C69.5863 106.933 69.614 106.933 69.6414 106.93C70.6596 106.911 71.3986 106.85 72.6737 106.85C73.4604 106.85 75.8298 106.933 76.9146 106.933C77.9994 106.933 78.1421 105.862 77.698 105.764C75.7061 105.33 74.2089 104.728 73.5746 104.157C73.4539 104.049 73.2954 103.993 73.1337 104.002V104.002Z" fill="#263238"/>
<path d="M58.1525 45.9427H71.871C73.1746 53.056 76.9048 81.8511 73.9771 104.284L69.3969 104.785C69.3969 104.785 70.1074 70.3115 66.0156 59.3011C65.543 65.1944 64.9816 71.4649 64.4963 74.7981C63.3037 83.0108 60.6139 104.411 60.6139 104.411L55.9702 104.534C55.9702 104.534 56.9884 83.7776 57.4325 75.7011C57.9241 66.9498 58.1335 47.7424 58.1525 45.9427Z" fill="#263238"/>
<path opacity="0.2" d="M58.1525 45.9427H71.871C73.1746 53.056 76.9048 81.8511 73.9771 104.284L69.3969 104.785C69.3969 104.785 70.1074 70.3115 66.0156 59.3011C65.543 65.1944 64.9816 71.4649 64.4963 74.7981C63.3037 83.0108 60.6139 104.411 60.6139 104.411L55.9702 104.534C55.9702 104.534 56.9884 83.7776 57.4325 75.7011C57.9241 66.9498 58.1335 47.7424 58.1525 45.9427Z" fill="white"/>
<path opacity="0.2" d="M66.0156 59.3043C66.6909 61.2342 67.2033 63.2172 67.5476 65.2325C67.9314 59.9887 66.3963 54.428 66.3963 54.428L66.0156 59.3043Z" fill="black"/>
<path d="M71.9853 46.1075H58.178V47.7488L72.1629 47.5809L71.9853 46.1075Z" fill="#263238"/>
<path d="M62.6187 48.2843H63.1104V45.3693H62.6187V48.2843Z" fill="#263238"/>
<path d="M69.6031 48.2843H70.0947V45.3693H69.6031V48.2843Z" fill="#263238"/>
<path d="M65.6922 47.6602H68.2456V45.8224H65.6922V47.6602Z" fill="white"/>
<path opacity="0.2" d="M62.6187 48.2843H63.1104V45.3693H62.6187V48.2843Z" fill="white"/>
<path opacity="0.2" d="M69.6031 48.2843H70.0947V45.3693H69.6031V48.2843Z" fill="white"/>
<path d="M86.335 29.3114L87.4959 28.12C87.4959 28.12 87.959 26.3298 88.2254 26.0003C88.4919 25.6708 90.5124 24.7329 90.5124 24.7329C90.5124 24.7329 91.207 24.7678 91.3053 24.8977C91.4037 25.0276 91.0738 28.044 90.7756 28.44C90.4775 28.8361 89.0216 29.1688 88.8217 29.2353C88.6219 29.3019 86.5697 31.3867 86.5697 31.3867L86.335 29.3114Z" fill="#EBB376"/>
<path d="M70.6181 22.233C72.7845 22.496 77.0507 32.3342 78.681 33.2118C80.3114 34.0895 86.7757 28.5763 86.7757 28.5763L88.4061 30.582C88.4061 30.582 81.0663 38.4145 78.1799 37.5526C75.2934 36.6908 71.2017 29.2797 69.9615 26.9604C68.7213 24.6411 70.6181 22.233 70.6181 22.233Z" fill="url(#paint30_linear_639_163)"/>
<path opacity="0.6" d="M88.4061 30.5819C88.4061 30.5819 81.0663 38.4144 78.1798 37.5525C76.9111 37.1692 75.433 35.5437 74.0564 33.6426C72.5559 31.5026 71.1894 29.272 69.9646 26.9635C69.6971 26.4347 69.552 25.8527 69.5399 25.2604C69.5278 24.6681 69.6491 24.0807 69.8948 23.5415C70.0801 23.0811 70.3243 22.6466 70.6212 22.2488C72.7876 22.5118 77.0538 32.3531 78.6842 33.2307C80.3145 34.1084 86.7789 28.5921 86.7789 28.5921L88.4061 30.5819Z" fill="white"/>
<path opacity="0.2" d="M74.0534 33.6269C72.553 31.4869 71.1865 29.2562 69.9617 26.9477C69.6942 26.419 69.549 25.837 69.537 25.2447C69.5249 24.6524 69.6462 24.0649 69.8919 23.5258C71.1258 25.0435 73.6347 28.6872 74.0534 33.6269Z" fill="black"/>
<path d="M70.6182 22.233C70.6182 22.233 61.8923 21.8211 55.3931 23.4624C55.3931 23.4624 58.2478 37.8948 58.1526 46.1075H71.9853C71.9853 46.1075 72.8861 30.7055 70.6182 22.233Z" fill="url(#paint31_linear_639_163)"/>
<path opacity="0.6" d="M71.9853 46.1076H58.1558C58.1558 45.214 58.1558 44.2508 58.0924 43.2369C57.9718 40.8669 57.7022 38.2402 57.3755 35.6991L57.2803 34.9577C57.0583 33.3069 56.8204 31.71 56.5889 30.2525C55.9545 26.3394 55.3931 23.4624 55.3931 23.4624C61.8923 21.8243 70.6182 22.233 70.6182 22.233C72.8829 30.7087 71.9853 46.1076 71.9853 46.1076Z" fill="white"/>
<path opacity="0.2" d="M66.574 37.3499C66.574 37.3499 64.1856 43.0373 58.0923 43.2369C57.9718 40.8669 57.7022 38.2402 57.3755 35.6991L66.574 37.3499Z" fill="black"/>
<path d="M60.4873 22.8065C61.7561 23.944 64.8106 23.5226 64.8106 23.5226C64.8106 23.5226 66.7138 22.9998 66.3236 22.4009C65.1944 22.214 64.6488 21.688 64.4205 21.0163C64.2949 20.5987 64.2561 20.1599 64.3063 19.7267C64.3239 19.4864 64.3557 19.2473 64.4014 19.0106L60.5951 16.2034C61.1058 18.0538 61.7148 21.463 60.4873 22.8065Z" fill="#EBB376"/>
<path opacity="0.2" d="M61.4863 17.9871C61.6354 20.262 63.5068 20.8894 64.4235 21.0161C64.298 20.5985 64.2591 20.1597 64.3093 19.7266L61.4863 17.9871Z" fill="black"/>
<path d="M67.0307 10.3069C67.0307 10.3069 68.0902 13.7288 66.4313 15.3543C64.7724 16.9797 63.7954 10.4621 63.7954 10.4621L67.0307 10.3069Z" fill="#263238"/>
<path d="M61.4484 18.9474C61.9251 19.465 62.5587 19.8122 63.2519 19.9359C63.9451 20.0595 64.6597 19.9527 65.2864 19.6318C66.1047 19.2312 66.7398 18.5345 67.0626 17.6831C67.107 17.5659 67.1451 17.4455 67.18 17.3219C67.7731 15.0438 67.4972 11.2575 65.0263 10.196C64.4808 9.9591 63.8837 9.86543 63.2917 9.9239C62.6998 9.98238 62.1326 10.1911 61.6441 10.5301C61.1556 10.8692 60.762 11.3274 60.5007 11.8612C60.2394 12.395 60.119 12.9866 60.1511 13.58C60.2494 16.1242 60.1859 17.6198 61.4484 18.9474Z" fill="#EBB376"/>
<path d="M64.0017 14.3688C63.9827 14.5748 64.1032 14.7459 64.2396 14.749C64.376 14.7522 64.487 14.5843 64.4934 14.3783C64.4997 14.1724 64.3887 14.0013 64.2555 13.9981C64.1223 13.9949 64.0081 14.1597 64.0017 14.3688Z" fill="#263238"/>
<path d="M66.3457 14.4162C66.3267 14.6221 66.4504 14.7932 66.5836 14.7964C66.7168 14.7995 66.831 14.6316 66.8373 14.4257C66.8437 14.2197 66.7327 14.0486 66.5994 14.0455C66.4662 14.0423 66.352 14.2197 66.3457 14.4162Z" fill="#263238"/>
<path d="M65.6001 14.502C65.832 15.1412 66.1523 15.7448 66.5516 16.2953C66.4065 16.3938 66.2417 16.4595 66.0686 16.488C65.8956 16.5165 65.7183 16.5069 65.5493 16.4601L65.6001 14.502Z" fill="#D58745"/>
<path d="M63.2879 13.5957C63.3102 13.5994 63.3329 13.5972 63.3541 13.5894C63.3752 13.5816 63.3939 13.5685 63.4085 13.5513C63.5004 13.4297 63.6192 13.331 63.7557 13.2628C63.8922 13.1947 64.0425 13.1589 64.1951 13.1584C64.2109 13.1602 64.227 13.1588 64.2423 13.1543C64.2576 13.1498 64.2718 13.1424 64.2842 13.1324C64.2966 13.1223 64.3069 13.11 64.3145 13.096C64.322 13.0819 64.3267 13.0666 64.3283 13.0507C64.331 13.0184 64.3208 12.9864 64.3001 12.9615C64.2793 12.9366 64.2496 12.9209 64.2173 12.9176V12.9176C64.0244 12.9126 63.8331 12.9537 63.6593 13.0375C63.4855 13.1213 63.3343 13.2453 63.2182 13.3993C63.1981 13.4243 63.1885 13.4561 63.1914 13.488C63.1944 13.5199 63.2097 13.5495 63.234 13.5703V13.5703C63.2501 13.5823 63.2685 13.5909 63.2879 13.5957V13.5957Z" fill="#263238"/>
<path d="M67.3702 13.6272C67.3928 13.6349 67.4174 13.6349 67.44 13.6272C67.4697 13.614 67.493 13.5897 67.5049 13.5594C67.5168 13.5292 67.5162 13.4955 67.5034 13.4656V13.4656C67.4255 13.2884 67.3062 13.1323 67.1555 13.0105C67.0049 12.8887 66.8273 12.8046 66.6375 12.7654C66.606 12.7609 66.5739 12.769 66.5483 12.788C66.5228 12.807 66.5058 12.8353 66.5011 12.8668V12.8668C66.498 12.8984 66.5067 12.93 66.5254 12.9557C66.5441 12.9814 66.5715 12.9994 66.6026 13.0062V13.0062C66.7517 13.0404 66.8907 13.1092 67.0081 13.2073C67.1255 13.3053 67.2181 13.4296 67.2782 13.5702C67.2874 13.5867 67.3007 13.6007 67.3168 13.6107C67.3329 13.6206 67.3513 13.6263 67.3702 13.6272V13.6272Z" fill="#263238"/>
<path d="M62.0825 10.4431L62.2507 11.5616C62.0637 11.6577 61.9198 11.8206 61.8475 12.0178C61.7752 12.215 61.7799 12.4322 61.8605 12.6262C62.2475 13.5577 61.7527 15.0342 61.0453 15.6394C61.0453 15.6394 61.0104 15.2307 60.6679 15.3384C60.3253 15.4461 60.4807 17.5564 61.1817 18.5639C60.2858 17.6407 59.6453 16.5009 59.323 15.256C58.7362 13.206 58.7965 11.6852 59.1993 10.874L62.0825 10.4431Z" fill="#263238"/>
<path d="M59.0059 15.6425C59.1375 15.9336 59.326 16.1957 59.5601 16.4133C59.7943 16.6309 60.0696 16.7997 60.3698 16.9099C61.1691 17.1982 61.6385 16.4948 61.4609 15.709C61.3023 15.0119 60.7028 13.998 59.875 14.0582C59.0471 14.1184 58.6887 14.9264 59.0059 15.6425Z" fill="#EBB376"/>
<path d="M65.7429 17.0843C65.6364 17.3785 65.5526 17.6804 65.4923 17.9873H65.3274C64.5788 17.9525 64.2426 17.6895 64.0967 17.4075C64.028 17.2688 63.9943 17.1154 63.9984 16.9607C63.9978 16.874 64.0096 16.7876 64.0333 16.7041C64.4859 16.9286 64.981 17.0549 65.486 17.0748L65.7429 17.0843Z" fill="#263238"/>
<path d="M65.4862 17.0685L65.4069 17.3315C64.7027 17.2966 64.2111 17.1794 63.9986 16.9544C63.998 16.8676 64.0097 16.7812 64.0334 16.6978C64.4861 16.9223 64.9812 17.0486 65.4862 17.0685V17.0685Z" fill="white"/>
<path d="M65.3274 17.981C64.5788 17.9461 64.2426 17.6831 64.0967 17.4011C64.3814 17.4196 64.6606 17.4882 64.9214 17.6039C65.0927 17.6844 65.2346 17.8162 65.3274 17.981V17.981Z" fill="#DE5753"/>
<path d="M62.8599 10.8265C62.8599 10.8265 63.028 12.1636 61.3564 12.8543C59.6848 13.545 59.0758 14.1217 59.0758 14.1217C59.0758 14.1217 57.9466 10.8423 59.9956 9.63194C59.9956 9.63194 60.0369 8.99824 61.7941 8.3994C63.5513 7.80055 66.0698 8.08255 67.2117 10.1959C68.0681 11.7802 67.2752 12.9113 67.2752 12.9113C67.2752 12.9113 67.107 11.9925 65.4767 11.7833C64.545 11.6589 63.6518 11.3323 62.8599 10.8265V10.8265Z" fill="#263238"/>
<path d="M66.06 23.3389L65.6921 25.1417C65.6921 25.1417 67.7951 33.8994 68.2296 38.4494L67.4652 39.2161L66.2599 38.4494C66.2599 38.4494 66.152 29.1974 65.0894 25.3128L63.1863 23.7539L64.6866 23.2692L66.06 23.3389Z" fill="#263238"/>
<path d="M60.9091 21.105L64.5568 22.7463L64.7693 21.4282L66.1078 21.9003C66.3419 21.9823 66.5416 22.1407 66.6745 22.3499C66.8074 22.5592 66.8659 22.8071 66.8405 23.0536L66.6883 24.4984L64.8391 23.4877L63.916 24.7899L59.5388 22.6829L60.9091 21.105Z" fill="url(#paint32_linear_639_163)"/>
<path opacity="0.7" d="M60.9091 21.105L64.5568 22.7463L64.7693 21.4282L66.1078 21.9003C66.3419 21.9823 66.5416 22.1407 66.6745 22.3499C66.8074 22.5592 66.8659 22.8071 66.8405 23.0536L66.6883 24.4984L64.8391 23.4877L63.916 24.7899L59.5388 22.6829L60.9091 21.105Z" fill="white"/>
<path d="M70.5898 35.0463L74.9798 34.232C74.9798 34.232 75.7949 33.4177 76.1724 33.4177C76.5498 33.4177 81.4441 34.9196 81.4441 34.9196C81.4441 34.9196 80.1246 36.2377 79.4965 36.488C78.8685 36.7383 75.9852 36.1109 75.9852 36.1109L71.719 37.2389L70.5898 35.0463Z" fill="#EBB376"/>
<path d="M55.3932 23.4624C57.3979 22.7337 60.3604 34.5901 60.9885 35.5312C61.6165 36.4722 73.4128 34.1497 73.4128 34.1497L74.3644 36.9095C74.3644 36.9095 64.3887 40.3568 60.2494 39.6692C56.1101 38.9816 55.1744 32.9615 54.1625 29.3906C53.1507 25.8198 53.931 23.9884 55.3932 23.4624Z" fill="url(#paint33_linear_639_163)"/>
<path opacity="0.7" d="M55.3932 23.4624C57.3979 22.7337 60.3604 34.5901 60.9885 35.5312C61.6165 36.4722 73.4128 34.1497 73.4128 34.1497L74.3644 36.9095C74.3644 36.9095 64.3887 40.3568 60.2494 39.6692C56.1101 38.9816 55.1744 32.9615 54.1625 29.3906C53.1507 25.8198 53.931 23.9884 55.3932 23.4624Z" fill="white"/>
<path d="M87.0835 23.4529C87.1739 23.2549 87.3056 23.0785 87.4696 22.9353C87.6337 22.7922 87.8265 22.6856 88.0351 22.6228C88.4192 22.5094 88.8291 22.5172 89.2087 22.645C89.5909 22.769 89.924 23.0108 90.1603 23.3357C90.221 23.4155 90.2731 23.5015 90.3157 23.5923C90.3609 23.6814 90.397 23.7748 90.4235 23.8712L90.4648 24.0106L90.4838 24.1436L90.5187 24.4098C90.5783 25.1326 90.3504 25.8498 89.8843 26.4059C89.4432 26.9301 88.8691 27.3263 88.2222 27.5529C87.6048 27.7735 86.9525 27.8809 86.2969 27.8698C85.9784 27.8698 85.6604 27.8465 85.3453 27.8001C85.058 27.7433 84.7659 27.7136 84.473 27.7114C84.2123 27.7083 83.9579 27.7919 83.7498 27.949C83.6575 28.0115 83.5872 28.1014 83.5491 28.2061C83.5109 28.3108 83.5068 28.4248 83.5373 28.532C83.5764 28.6288 83.6495 28.7081 83.743 28.7547C83.8365 28.8014 83.9438 28.8124 84.0448 28.7855C84.1036 28.763 84.1552 28.7251 84.1942 28.6757C84.2332 28.6263 84.2581 28.5673 84.2662 28.5049C84.2743 28.4426 84.2654 28.3792 84.2404 28.3215C84.2154 28.2638 84.1752 28.2139 84.1241 28.1771C84.2103 28.1968 84.2879 28.2439 84.345 28.3113C84.4022 28.3787 84.436 28.4628 84.4413 28.551C84.447 28.6505 84.4259 28.7498 84.3801 28.8384C84.3344 28.927 84.2657 29.0017 84.1812 29.0548C84.093 29.109 83.9928 29.1409 83.8894 29.1475C83.786 29.1541 83.6825 29.1353 83.5881 29.0928C83.3973 29.0178 83.2436 28.871 83.1599 28.6841C83.0894 28.4982 83.079 28.2949 83.1302 28.1027C83.1814 27.9106 83.2916 27.7394 83.4453 27.6131C83.7207 27.3789 84.0645 27.2399 84.4255 27.2171C84.7497 27.202 85.0746 27.2169 85.3961 27.2614C85.6901 27.2905 85.9861 27.2958 86.281 27.2773C86.8623 27.2536 87.4347 27.127 87.9716 26.9034C88.4896 26.6994 88.9447 26.3628 89.2912 25.9275C89.6226 25.4869 89.7683 24.9342 89.6972 24.3876C89.6811 24.2444 89.6366 24.1058 89.5662 23.9801C89.4957 23.8543 89.4008 23.7439 89.287 23.6553C89.1732 23.5668 89.0429 23.5018 88.9036 23.4643C88.7643 23.4269 88.6189 23.4176 88.476 23.4371C87.8797 23.5416 87.4451 24.0708 87.1818 24.5777L87.0835 23.4529Z" fill="url(#paint34_linear_639_163)"/>
<path d="M78.8431 20.6488C78.8925 20.435 78.8951 20.2131 78.8508 19.9982C78.8065 19.7833 78.7162 19.5804 78.5861 19.4036C78.3496 19.0776 78.0169 18.8339 77.6346 18.7065C77.2559 18.571 76.8439 18.5588 76.4578 18.6717C76.3606 18.6973 76.2669 18.7345 76.1787 18.7826C76.0884 18.8232 76.0033 18.8743 75.9249 18.9347L75.8044 19.0202L75.706 19.1153L75.5157 19.3022C75.0282 19.84 74.7729 20.5482 74.8052 21.273C74.8343 21.9571 75.0456 22.621 75.4174 23.1963C75.7694 23.7504 76.2185 24.2367 76.7433 24.6316C76.9974 24.829 77.2668 25.0059 77.5489 25.1607C77.8097 25.2941 78.059 25.4489 78.2943 25.6233C78.5002 25.7843 78.65 26.0061 78.7225 26.257C78.7561 26.3633 78.7558 26.4774 78.7217 26.5835C78.6876 26.6896 78.6214 26.7826 78.5322 26.8495C78.4424 26.902 78.3365 26.92 78.2343 26.9002C78.1322 26.8804 78.0407 26.8241 77.9771 26.7418C77.9444 26.6873 77.9271 26.625 77.927 26.5615C77.9269 26.4979 77.944 26.4356 77.9765 26.381C78.009 26.3264 78.0558 26.2816 78.1117 26.2514C78.1677 26.2212 78.2308 26.2067 78.2943 26.2095C78.2138 26.1695 78.1222 26.1571 78.0339 26.1743C77.9456 26.1915 77.8655 26.2373 77.8058 26.3046C77.7394 26.3793 77.6946 26.4707 77.6762 26.5689C77.6577 26.6671 77.6664 26.7685 77.7012 26.8622C77.7378 26.9593 77.7978 27.0458 77.8758 27.1143C77.9537 27.1828 78.0474 27.2312 78.1484 27.2551C78.3455 27.3113 78.5567 27.2898 78.7384 27.1949C78.908 27.0906 79.0406 26.9357 79.1174 26.752C79.1943 26.5684 79.2114 26.3654 79.1666 26.1715C79.0934 25.8174 78.9062 25.4969 78.6337 25.259C78.3854 25.0498 78.119 24.8632 77.8376 24.7013C77.5877 24.5443 77.3501 24.3685 77.1271 24.1753C76.6815 23.8017 76.3057 23.3522 76.0169 22.8477C75.7293 22.3688 75.5749 21.8219 75.5697 21.2635C75.5757 20.7131 75.7965 20.1868 76.185 19.7965C76.2861 19.6928 76.4069 19.6104 76.5404 19.5542C76.6739 19.4979 76.8173 19.4689 76.9621 19.4689C77.107 19.4689 77.2504 19.4979 77.3839 19.5542C77.5173 19.6104 77.6382 19.6928 77.7392 19.7965C78.1452 20.2432 78.1674 20.9276 78.0564 21.4885L78.8431 20.6488Z" fill="url(#paint35_linear_639_163)"/>
<g opacity="0.2">
<path d="M87.0837 23.4529C87.1742 23.2549 87.3058 23.0785 87.4699 22.9353C87.634 22.7922 87.8267 22.6856 88.0353 22.6228C88.4195 22.5094 88.8293 22.5172 89.2089 22.645C89.5912 22.769 89.9243 23.0108 90.1605 23.3357C90.2212 23.4155 90.2733 23.5015 90.3159 23.5923C90.3611 23.6814 90.3972 23.7748 90.4238 23.8712L90.465 24.0106L90.484 24.1436L90.5189 24.4098C90.5786 25.1326 90.3507 25.8498 89.8845 26.4059C89.4434 26.9301 88.8694 27.3263 88.2225 27.5529C87.605 27.7735 86.9528 27.8809 86.2971 27.8698C85.9787 27.8698 85.6606 27.8465 85.3456 27.8001C85.0582 27.7433 84.7662 27.7136 84.4733 27.7114C84.2125 27.7083 83.9581 27.7919 83.7501 27.949C83.6577 28.0115 83.5875 28.1014 83.5493 28.2061C83.5111 28.3108 83.507 28.4248 83.5376 28.532C83.5766 28.6288 83.6498 28.7081 83.7433 28.7547C83.8367 28.8014 83.9441 28.8124 84.0451 28.7855C84.1039 28.763 84.1555 28.7251 84.1945 28.6757C84.2334 28.6263 84.2583 28.5673 84.2664 28.5049C84.2746 28.4426 84.2656 28.3792 84.2406 28.3215C84.2156 28.2638 84.1754 28.2139 84.1244 28.1771C84.2106 28.1968 84.2881 28.2439 84.3453 28.3113C84.4025 28.3787 84.4362 28.4628 84.4416 28.551C84.4472 28.6505 84.4261 28.7498 84.3804 28.8384C84.3346 28.927 84.2659 29.0017 84.1815 29.0548C84.0932 29.109 83.993 29.1409 83.8896 29.1475C83.7862 29.1541 83.6828 29.1353 83.5883 29.0928C83.3975 29.0178 83.2438 28.871 83.1601 28.6841C83.0896 28.4982 83.0792 28.2949 83.1304 28.1027C83.1816 27.9106 83.2919 27.7394 83.4456 27.6131C83.7209 27.3789 84.0648 27.2399 84.4257 27.2171C84.7499 27.202 85.0748 27.2169 85.3963 27.2614C85.6904 27.2905 85.9863 27.2958 86.2813 27.2773C86.8625 27.2536 87.4349 27.127 87.9719 26.9034C88.4898 26.6994 88.9449 26.3628 89.2914 25.9275C89.6229 25.4869 89.7686 24.9342 89.6974 24.3876C89.6814 24.2444 89.6368 24.1058 89.5664 23.9801C89.496 23.8543 89.4011 23.7439 89.2873 23.6553C89.1735 23.5668 89.0431 23.5018 88.9038 23.4643C88.7645 23.4269 88.6191 23.4176 88.4762 23.4371C87.8799 23.5416 87.4453 24.0708 87.1821 24.5777L87.0837 23.4529Z" fill="black"/>
<path d="M78.8431 20.6488C78.8925 20.435 78.8951 20.2131 78.8508 19.9982C78.8065 19.7833 78.7162 19.5804 78.5861 19.4036C78.3496 19.0776 78.0169 18.8339 77.6346 18.7065C77.2559 18.571 76.8439 18.5588 76.4578 18.6717C76.3606 18.6973 76.2669 18.7345 76.1787 18.7826C76.0884 18.8232 76.0033 18.8743 75.9249 18.9347L75.8044 19.0202L75.706 19.1153L75.5157 19.3022C75.0282 19.84 74.7729 20.5482 74.8052 21.273C74.8343 21.9571 75.0456 22.621 75.4174 23.1963C75.7694 23.7504 76.2185 24.2367 76.7433 24.6316C76.9974 24.829 77.2668 25.0059 77.5489 25.1607C77.8097 25.2941 78.059 25.4489 78.2943 25.6233C78.5002 25.7843 78.65 26.0061 78.7225 26.257C78.7561 26.3633 78.7558 26.4774 78.7217 26.5835C78.6876 26.6896 78.6214 26.7826 78.5322 26.8495C78.4424 26.902 78.3365 26.92 78.2343 26.9002C78.1322 26.8804 78.0407 26.8241 77.9771 26.7418C77.9444 26.6873 77.9271 26.625 77.927 26.5615C77.9269 26.4979 77.944 26.4356 77.9765 26.381C78.009 26.3264 78.0558 26.2816 78.1117 26.2514C78.1677 26.2212 78.2308 26.2067 78.2943 26.2095C78.2138 26.1695 78.1222 26.1571 78.0339 26.1743C77.9456 26.1915 77.8655 26.2373 77.8058 26.3046C77.7394 26.3793 77.6946 26.4707 77.6762 26.5689C77.6577 26.6671 77.6664 26.7685 77.7012 26.8622C77.7378 26.9593 77.7978 27.0458 77.8758 27.1143C77.9537 27.1828 78.0474 27.2312 78.1484 27.2551C78.3455 27.3113 78.5567 27.2898 78.7384 27.1949C78.908 27.0906 79.0406 26.9357 79.1174 26.752C79.1943 26.5684 79.2114 26.3654 79.1666 26.1715C79.0934 25.8174 78.9062 25.4969 78.6337 25.259C78.3854 25.0498 78.119 24.8632 77.8376 24.7013C77.5877 24.5443 77.3501 24.3685 77.1271 24.1753C76.6815 23.8017 76.3057 23.3522 76.0169 22.8477C75.7293 22.3688 75.5749 21.8219 75.5697 21.2635C75.5757 20.7131 75.7965 20.1868 76.185 19.7965C76.2861 19.6928 76.4069 19.6104 76.5404 19.5542C76.6739 19.4979 76.8173 19.4689 76.9621 19.4689C77.107 19.4689 77.2504 19.4979 77.3839 19.5542C77.5173 19.6104 77.6382 19.6928 77.7392 19.7965C78.1452 20.2432 78.1674 20.9276 78.0564 21.4885L78.8431 20.6488Z" fill="black"/>
</g>
<path d="M82.4779 28.044C84.4477 27.8254 86.4079 26.3331 87.499 24.0391L88.0002 22.984L78.3925 19.7109L78.1451 20.8516C77.609 23.3357 78.2498 25.7089 79.6739 27.084C79.8604 27.2683 79.992 27.5006 80.0541 27.7551C80.1163 28.0096 80.1066 28.2763 80.026 28.5257L79.3472 30.6485C79.2683 30.8998 79.1015 31.1143 78.8772 31.2527C78.653 31.3912 78.3863 31.4444 78.1261 31.4026C77.6511 31.3214 77.1627 31.416 76.7526 31.6688L76.2515 31.9856L82.2051 34.0135L82.0053 33.4558C81.8343 33.0055 81.5051 32.6327 81.0791 32.407C80.8471 32.2821 80.6681 32.0778 80.5748 31.8316C80.4816 31.5853 80.4805 31.3138 80.5716 31.0668L81.3329 28.9692C81.42 28.7247 81.573 28.5089 81.775 28.3456C81.977 28.1824 82.2203 28.078 82.4779 28.044V28.044Z" fill="url(#paint36_linear_639_163)"/>
<path d="M76.1088 31.3837L82.6873 33.6238L82.2083 35.8417L75.1318 33.4337L76.1088 31.3837Z" fill="#263238"/>
<path opacity="0.2" d="M77.609 31.8937L81.1869 33.1135L80.708 35.3315L76.6353 33.9437L77.609 31.8937Z" fill="white"/>
<path d="M80.2569 33.4947L78.1191 32.7673L77.8358 33.5981L79.9736 34.3255L80.2569 33.4947Z" fill="white"/>
<path opacity="0.3" d="M80.0195 26.9351C80.195 27.1466 80.3124 27.4001 80.3603 27.6706C80.4081 27.9411 80.3847 28.2194 80.2923 28.4782L79.4771 30.8767C79.3154 31.3457 79.1187 31.4787 78.5541 31.5104C78.2226 31.504 77.895 31.5826 77.6025 31.7386L78.6017 32.0807C78.7188 32.0313 78.843 32.0003 78.9696 31.9889H79.1314C79.2394 31.9815 79.3428 31.9423 79.4286 31.8764C79.5144 31.8104 79.5787 31.7206 79.6135 31.6181L80.9426 27.7209C80.9902 27.5826 81.0053 27.4352 80.9866 27.2901C80.9679 27.145 80.9159 27.0062 80.8347 26.8844L80.6666 26.6278C79.9606 25.5533 79.7001 24.2468 79.9402 22.984L80.3557 20.671L78.9125 20.1799L78.5953 22.8573C78.4114 24.1405 78.9887 25.8357 80.0195 26.9351Z" fill="white"/>
<path d="M63.3069 31.7447L62.1904 31.4374L61.1119 31.9507L60.8708 29.4032L63.069 29.1973L63.3069 31.7447Z" fill="url(#paint37_linear_639_163)"/>
<path opacity="0.2" d="M63.3069 31.7447L62.1904 31.4374L61.1119 31.9507L60.8708 29.4032L63.069 29.1973L63.3069 31.7447Z" fill="white"/>
<path d="M61.778 27.1885L62.0096 27.3152L62.2506 27.2043L62.4441 27.3849L62.7074 27.3374L62.8501 27.5592L63.1134 27.5782L63.199 27.8285L63.4496 27.9141L63.4686 28.177L63.6907 28.3228L63.6431 28.5826L63.8207 28.7759L63.7129 29.0167L63.8366 29.248L63.6716 29.4539L63.7319 29.7106L63.5194 29.869L63.5162 30.132L63.272 30.2334L63.2022 30.4869L62.9421 30.5249L62.8121 30.753L62.5488 30.7245L62.3648 30.9146L62.1174 30.8196L61.8922 30.959L61.6765 30.8069L61.4259 30.8829L61.2546 30.6833L60.9914 30.696L60.874 30.4583L60.6171 30.4045L60.5632 30.1478L60.3253 30.0306L60.338 29.7676L60.1381 29.5965L60.2174 29.343L60.0652 29.1276L60.2016 28.9026L60.1096 28.6587L60.2999 28.4749L60.2714 28.2119L60.4997 28.082L60.5378 27.819L60.7916 27.7525L60.8931 27.5085L61.1563 27.5053L61.3149 27.293L61.5718 27.3564L61.778 27.1885Z" fill="url(#paint38_linear_639_163)"/>
<path opacity="0.4" d="M62.356 30.6088C63.2079 30.3841 63.7162 29.512 63.4913 28.661C63.2663 27.8099 62.3933 27.3022 61.5414 27.5269C60.6894 27.7516 60.1811 28.6236 60.4061 29.4747C60.631 30.3257 61.504 30.8334 62.356 30.6088Z" fill="white"/>
<path d="M61.997 28.9407L61.978 29.2259L62.2064 29.2069V29.435L61.9716 29.454L61.9494 29.8121L61.7242 29.8342L61.7496 29.4762L61.5561 29.4952L61.5308 29.8501L61.3087 29.8723L61.3309 29.5142L61.1121 29.5364V29.3083L61.3341 29.2861L61.3563 29.0009L61.1343 29.0231V28.795L61.3563 28.7728L61.3848 28.3641L61.6069 28.3451L61.5783 28.7506H61.7718L61.8004 28.3419L62.0256 28.3197L61.997 28.7284L62.2286 28.7063V28.9344L61.997 28.9407ZM61.7718 28.9629H61.5783L61.5593 29.2512L61.7528 29.2322L61.7718 28.9629Z" fill="url(#paint39_linear_639_163)"/>
<path d="M62.6885 29.7422L62.5839 28.5984L62.3935 28.6174L62.3777 28.4622C62.4318 28.4492 62.4819 28.423 62.5236 28.3861C62.5689 28.3519 62.6022 28.3042 62.6187 28.2499H62.7742L62.9137 29.7327L62.6885 29.7422Z" fill="url(#paint40_linear_639_163)"/>
<defs>
<linearGradient id="paint0_linear_639_163" x1="17.1252" y1="48.0311" x2="35.6998" y2="48.0311" gradientUnits="userSpaceOnUse">
<stop stop-color="#E07AA4"/>
<stop offset="1" stop-color="#F6790B"/>
</linearGradient>
<linearGradient id="paint1_linear_639_163" x1="17.8218" y1="48.0318" x2="34.9976" y2="48.0318" gradientUnits="userSpaceOnUse">
<stop stop-color="#E07AA4"/>
<stop offset="1" stop-color="#F6790B"/>
</linearGradient>
<linearGradient id="paint2_linear_639_163" x1="21.397" y1="48.0182" x2="31.2774" y2="48.0182" gradientUnits="userSpaceOnUse">
<stop stop-color="#E07AA4"/>
<stop offset="1" stop-color="#F6790B"/>
</linearGradient>
<linearGradient id="paint3_linear_639_163" x1="37.1135" y1="92.681" x2="78.916" y2="92.681" gradientUnits="userSpaceOnUse">
<stop stop-color="#E07AA4"/>
<stop offset="1" stop-color="#F6790B"/>
</linearGradient>
<linearGradient id="paint4_linear_639_163" x1="24.9526" y1="86.0715" x2="40.8375" y2="86.0715" gradientUnits="userSpaceOnUse">
<stop stop-color="#E07AA4"/>
<stop offset="1" stop-color="#F6790B"/>
</linearGradient>
<linearGradient id="paint5_linear_639_163" x1="19.0306" y1="97.3197" x2="47.3113" y2="97.3197" gradientUnits="userSpaceOnUse">
<stop stop-color="#E07AA4"/>
<stop offset="1" stop-color="#F6790B"/>
</linearGradient>
<linearGradient id="paint6_linear_639_163" x1="26.1677" y1="97.3197" x2="28.4641" y2="97.3197" gradientUnits="userSpaceOnUse">
<stop stop-color="#E07AA4"/>
<stop offset="1" stop-color="#F6790B"/>
</linearGradient>
<linearGradient id="paint7_linear_639_163" x1="41.6526" y1="97.3197" x2="43.3401" y2="97.3197" gradientUnits="userSpaceOnUse">
<stop stop-color="#E07AA4"/>
<stop offset="1" stop-color="#F6790B"/>
</linearGradient>
<linearGradient id="paint8_linear_639_163" x1="129.438" y1="88.9107" x2="135.11" y2="88.9107" gradientUnits="userSpaceOnUse">
<stop stop-color="#E07AA4"/>
<stop offset="1" stop-color="#F6790B"/>
</linearGradient>
<linearGradient id="paint9_linear_639_163" x1="121.007" y1="87.4625" x2="126.06" y2="87.4625" gradientUnits="userSpaceOnUse">
<stop stop-color="#E07AA4"/>
<stop offset="1" stop-color="#F6790B"/>
</linearGradient>
<linearGradient id="paint10_linear_639_163" x1="118.204" y1="78.9457" x2="124.179" y2="78.9457" gradientUnits="userSpaceOnUse">
<stop stop-color="#E07AA4"/>
<stop offset="1" stop-color="#F6790B"/>
</linearGradient>
<linearGradient id="paint11_linear_639_163" x1="123.948" y1="76.357" x2="129.216" y2="76.357" gradientUnits="userSpaceOnUse">
<stop stop-color="#E07AA4"/>
<stop offset="1" stop-color="#F6790B"/>
</linearGradient>
<linearGradient id="paint12_linear_639_163" x1="116.113" y1="87.4625" x2="120.941" y2="87.4625" gradientUnits="userSpaceOnUse">
<stop stop-color="#E07AA4"/>
<stop offset="1" stop-color="#F6790B"/>
</linearGradient>
<linearGradient id="paint13_linear_639_163" x1="128.477" y1="79.5698" x2="133.305" y2="79.5698" gradientUnits="userSpaceOnUse">
<stop stop-color="#E07AA4"/>
<stop offset="1" stop-color="#F6790B"/>
</linearGradient>
<linearGradient id="paint14_linear_639_163" x1="125.505" y1="83.1502" x2="128.534" y2="83.1502" gradientUnits="userSpaceOnUse">
<stop stop-color="#E07AA4"/>
<stop offset="1" stop-color="#F6790B"/>
</linearGradient>
<linearGradient id="paint15_linear_639_163" x1="116.995" y1="83.4829" x2="120.456" y2="83.4829" gradientUnits="userSpaceOnUse">
<stop stop-color="#E07AA4"/>
<stop offset="1" stop-color="#F6790B"/>
</linearGradient>
<linearGradient id="paint16_linear_639_163" x1="118.527" y1="100.998" x2="131.922" y2="100.998" gradientUnits="userSpaceOnUse">
<stop stop-color="#E07AA4"/>
<stop offset="1" stop-color="#F6790B"/>
</linearGradient>
<linearGradient id="paint17_linear_639_163" x1="117.937" y1="94.975" x2="132.509" y2="94.975" gradientUnits="userSpaceOnUse">
<stop stop-color="#E07AA4"/>
<stop offset="1" stop-color="#F6790B"/>
</linearGradient>
<linearGradient id="paint18_linear_639_163" x1="91.9558" y1="40.1573" x2="102.328" y2="40.1573" gradientUnits="userSpaceOnUse">
<stop stop-color="#E07AA4"/>
<stop offset="1" stop-color="#F6790B"/>
</linearGradient>
<linearGradient id="paint19_linear_639_163" x1="91.2866" y1="73.4834" x2="112.9" y2="73.4834" gradientUnits="userSpaceOnUse">
<stop stop-color="#E07AA4"/>
<stop offset="1" stop-color="#F6790B"/>
</linearGradient>
<linearGradient id="paint20_linear_639_163" x1="106.884" y1="48.6769" x2="107.49" y2="48.6769" gradientUnits="userSpaceOnUse">
<stop stop-color="#E07AA4"/>
<stop offset="1" stop-color="#F6790B"/>
</linearGradient>
<linearGradient id="paint21_linear_639_163" x1="100.485" y1="48.0803" x2="101.09" y2="48.0803" gradientUnits="userSpaceOnUse">
<stop stop-color="#E07AA4"/>
<stop offset="1" stop-color="#F6790B"/>
</linearGradient>
<linearGradient id="paint22_linear_639_163" x1="99.8031" y1="39.1148" x2="113.982" y2="39.1148" gradientUnits="userSpaceOnUse">
<stop stop-color="#E07AA4"/>
<stop offset="1" stop-color="#F6790B"/>
</linearGradient>
<linearGradient id="paint23_linear_639_163" x1="108.983" y1="41.3803" x2="114.293" y2="41.3803" gradientUnits="userSpaceOnUse">
<stop stop-color="#E07AA4"/>
<stop offset="1" stop-color="#F6790B"/>
</linearGradient>
<linearGradient id="paint24_linear_639_163" x1="98.7881" y1="40.5883" x2="103.917" y2="40.5883" gradientUnits="userSpaceOnUse">
<stop stop-color="#E07AA4"/>
<stop offset="1" stop-color="#F6790B"/>
</linearGradient>
<linearGradient id="paint25_linear_639_163" x1="85.9102" y1="42.0077" x2="90.4777" y2="42.0077" gradientUnits="userSpaceOnUse">
<stop stop-color="#E07AA4"/>
<stop offset="1" stop-color="#F6790B"/>
</linearGradient>
<linearGradient id="paint26_linear_639_163" x1="87.5186" y1="36.3709" x2="92.9774" y2="36.3709" gradientUnits="userSpaceOnUse">
<stop stop-color="#E07AA4"/>
<stop offset="1" stop-color="#F6790B"/>
</linearGradient>
<linearGradient id="paint27_linear_639_163" x1="95.6797" y1="40.8828" x2="115.631" y2="40.8828" gradientUnits="userSpaceOnUse">
<stop stop-color="#E07AA4"/>
<stop offset="1" stop-color="#F6790B"/>
</linearGradient>
<linearGradient id="paint28_linear_639_163" x1="70.7369" y1="6.86597" x2="78.1084" y2="6.86597" gradientUnits="userSpaceOnUse">
<stop stop-color="#E07AA4"/>
<stop offset="1" stop-color="#F6790B"/>
</linearGradient>
<linearGradient id="paint29_linear_639_163" x1="71.3955" y1="10.6239" x2="74.6467" y2="10.6239" gradientUnits="userSpaceOnUse">
<stop stop-color="#E07AA4"/>
<stop offset="1" stop-color="#F6790B"/>
</linearGradient>
<linearGradient id="paint30_linear_639_163" x1="69.5333" y1="29.9198" x2="88.4061" y2="29.9198" gradientUnits="userSpaceOnUse">
<stop stop-color="#E07AA4"/>
<stop offset="1" stop-color="#F6790B"/>
</linearGradient>
<linearGradient id="paint31_linear_639_163" x1="55.3931" y1="34.1465" x2="72.1629" y2="34.1465" gradientUnits="userSpaceOnUse">
<stop stop-color="#E07AA4"/>
<stop offset="1" stop-color="#F6790B"/>
</linearGradient>
<linearGradient id="paint32_linear_639_163" x1="59.5452" y1="22.9332" x2="66.8532" y2="22.9332" gradientUnits="userSpaceOnUse">
<stop stop-color="#E07AA4"/>
<stop offset="1" stop-color="#F6790B"/>
</linearGradient>
<linearGradient id="paint33_linear_639_163" x1="53.6994" y1="31.5927" x2="74.3517" y2="31.5927" gradientUnits="userSpaceOnUse">
<stop stop-color="#E07AA4"/>
<stop offset="1" stop-color="#F6790B"/>
</linearGradient>
<linearGradient id="paint34_linear_639_163" x1="83.1028" y1="25.8515" x2="90.5441" y2="25.8515" gradientUnits="userSpaceOnUse">
<stop stop-color="#E07AA4"/>
<stop offset="1" stop-color="#F6790B"/>
</linearGradient>
<linearGradient id="paint35_linear_639_163" x1="74.8116" y1="22.9396" x2="79.1888" y2="22.9396" gradientUnits="userSpaceOnUse">
<stop stop-color="#E07AA4"/>
<stop offset="1" stop-color="#F6790B"/>
</linearGradient>
<linearGradient id="paint36_linear_639_163" x1="76.2515" y1="26.8622" x2="88.0129" y2="26.8622" gradientUnits="userSpaceOnUse">
<stop stop-color="#E07AA4"/>
<stop offset="1" stop-color="#F6790B"/>
</linearGradient>
<linearGradient id="paint37_linear_639_163" x1="60.8708" y1="30.5756" x2="63.3069" y2="30.5756" gradientUnits="userSpaceOnUse">
<stop stop-color="#E07AA4"/>
<stop offset="1" stop-color="#F6790B"/>
</linearGradient>
<linearGradient id="paint38_linear_639_163" x1="60.0652" y1="29.0737" x2="63.8366" y2="29.0737" gradientUnits="userSpaceOnUse">
<stop stop-color="#E07AA4"/>
<stop offset="1" stop-color="#F6790B"/>
</linearGradient>
<linearGradient id="paint39_linear_639_163" x1="61.0994" y1="29.0896" x2="62.2444" y2="29.0896" gradientUnits="userSpaceOnUse">
<stop stop-color="#E07AA4"/>
<stop offset="1" stop-color="#F6790B"/>
</linearGradient>
<linearGradient id="paint40_linear_639_163" x1="62.3777" y1="28.9881" x2="62.9137" y2="28.9881" gradientUnits="userSpaceOnUse">
<stop stop-color="#E07AA4"/>
<stop offset="1" stop-color="#F6790B"/>
</linearGradient>
</defs>
</svg>
